{
	"patcher" : 	{
		"fileversion" : 1,
		"appversion" : 		{
			"major" : 7,
			"minor" : 3,
			"revision" : 1,
			"architecture" : "x86",
			"modernui" : 1
		}
,
		"rect" : [ 550.0, 89.0, 754.0, 688.0 ],
		"bglocked" : 0,
		"openinpresentation" : 0,
		"default_fontsize" : 12.0,
		"default_fontface" : 0,
		"default_fontname" : "Arial",
		"gridonopen" : 1,
		"gridsize" : [ 15.0, 15.0 ],
		"gridsnaponopen" : 1,
		"objectsnaponopen" : 1,
		"statusbarvisible" : 2,
		"toolbarvisible" : 1,
		"lefttoolbarpinned" : 0,
		"toptoolbarpinned" : 0,
		"righttoolbarpinned" : 0,
		"bottomtoolbarpinned" : 0,
		"toolbars_unpinned_last_save" : 0,
		"tallnewobj" : 0,
		"boxanimatetime" : 200,
		"enablehscroll" : 1,
		"enablevscroll" : 1,
		"devicewidth" : 0.0,
		"description" : "",
		"digest" : "",
		"tags" : "",
		"style" : "",
		"subpatcher_template" : "",
		"boxes" : [ 			{
				"box" : 				{
					"id" : "obj-12",
					"maxclass" : "newobj",
					"numinlets" : 1,
					"numoutlets" : 3,
					"outlettype" : [ "", "", "FullPacket" ],
					"patching_rect" : [ 357.0, 214.0, 135.0, 22.0 ],
					"style" : "",
					"text" : "o.route /resultR /resultL"
				}

			}
, 			{
				"box" : 				{
					"fontface" : 0,
					"fontsize" : 12.0,
					"id" : "obj-10",
					"linecount" : 6,
					"maxclass" : "o.expr.codebox",
					"numinlets" : 1,
					"numoutlets" : 2,
					"outlettype" : [ "FullPacket", "FullPacket" ],
					"patching_rect" : [ 357.0, 99.0, 503.0, 100.0 ],
					"text" : "/pfxL = \"L0e\", /pfxR = \"R0e\", /tfx = \"a.wav\",\n/pad = if(/value < 10, \"00\", if(/value < 100, \"0\")),\n/filenameL = /pfxL + /pad + string(/value) + /tfx,\n/filenameR = /pfxR + /pad + string(/value) + /tfx,\n/resultL = [\"createBuffer\", \"buffer~\", \"L-\" + /value, /filenameL],\n/resultR = [\"createBuffer\", \"buffer~\", \"R-\" + /value, /filenameR]",
					"textcolor" : [ 0.0, 0.0, 0.0, 1.0 ]
				}

			}
, 			{
				"box" : 				{
					"id" : "obj-8",
					"maxclass" : "newobj",
					"numinlets" : 1,
					"numoutlets" : 2,
					"outlettype" : [ "", "" ],
					"patching_rect" : [ 357.0, 70.0, 106.0, 22.0 ],
					"style" : "",
					"text" : "o.listenumerate /a"
				}

			}
, 			{
				"box" : 				{
					"fontface" : 0,
					"fontsize" : 12.0,
					"id" : "obj-7",
					"maxclass" : "o.expr.codebox",
					"numinlets" : 1,
					"numoutlets" : 2,
					"outlettype" : [ "FullPacket", "FullPacket" ],
					"patching_rect" : [ 357.0, 28.0, 157.0, 32.0 ],
					"text" : "/a = aseq(0, 355, 5)",
					"textcolor" : [ 0.0, 0.0, 0.0, 1.0 ]
				}

			}
, 			{
				"box" : 				{
					"id" : "obj-1",
					"maxclass" : "newobj",
					"numinlets" : 1,
					"numoutlets" : 1,
					"outlettype" : [ "" ],
					"patching_rect" : [ 357.0, 254.0, 88.0, 22.0 ],
					"saved_object_attributes" : 					{
						"filename" : "createBuffer",
						"parameter_enable" : 0
					}
,
					"style" : "",
					"text" : "js createBuffer"
				}

			}
, 			{
				"box" : 				{
					"id" : "obj-2",
					"maxclass" : "newobj",
					"numinlets" : 1,
					"numoutlets" : 2,
					"outlettype" : [ "float", "bang" ],
					"patching_rect" : [ 16.0, 22.0, 142.0, 22.0 ],
					"style" : "",
					"text" : "buffer~ L-0 L0e000a.wav"
				}

			}
, 			{
				"box" : 				{
					"id" : "obj-3",
					"maxclass" : "newobj",
					"numinlets" : 1,
					"numoutlets" : 2,
					"outlettype" : [ "float", "bang" ],
					"patching_rect" : [ 16.0, 44.0, 146.0, 22.0 ],
					"style" : "",
					"text" : "buffer~ R-0 R0e000a.wav"
				}

			}
, 			{
				"box" : 				{
					"id" : "obj-4",
					"maxclass" : "newobj",
					"numinlets" : 1,
					"numoutlets" : 2,
					"outlettype" : [ "float", "bang" ],
					"patching_rect" : [ 16.0, 66.0, 142.0, 22.0 ],
					"style" : "",
					"text" : "buffer~ L-5 L0e005a.wav"
				}

			}
, 			{
				"box" : 				{
					"id" : "obj-5",
					"maxclass" : "newobj",
					"numinlets" : 1,
					"numoutlets" : 2,
					"outlettype" : [ "float", "bang" ],
					"patching_rect" : [ 16.0, 88.0, 146.0, 22.0 ],
					"style" : "",
					"text" : "buffer~ R-5 R0e005a.wav"
				}

			}
, 			{
				"box" : 				{
					"id" : "obj-6",
					"maxclass" : "newobj",
					"numinlets" : 1,
					"numoutlets" : 2,
					"outlettype" : [ "float", "bang" ],
					"patching_rect" : [ 16.0, 110.0, 148.0, 22.0 ],
					"style" : "",
					"text" : "buffer~ L-10 L0e010a.wav"
				}

			}
, 			{
				"box" : 				{
					"id" : "obj-9",
					"maxclass" : "newobj",
					"numinlets" : 1,
					"numoutlets" : 2,
					"outlettype" : [ "float", "bang" ],
					"patching_rect" : [ 16.0, 132.0, 152.0, 22.0 ],
					"style" : "",
					"text" : "buffer~ R-10 R0e010a.wav"
				}

			}
, 			{
				"box" : 				{
					"id" : "obj-11",
					"maxclass" : "newobj",
					"numinlets" : 1,
					"numoutlets" : 2,
					"outlettype" : [ "float", "bang" ],
					"patching_rect" : [ 16.0, 154.0, 148.0, 22.0 ],
					"style" : "",
					"text" : "buffer~ L-15 L0e015a.wav"
				}

			}
, 			{
				"box" : 				{
					"id" : "obj-13",
					"maxclass" : "newobj",
					"numinlets" : 1,
					"numoutlets" : 2,
					"outlettype" : [ "float", "bang" ],
					"patching_rect" : [ 16.0, 176.0, 152.0, 22.0 ],
					"style" : "",
					"text" : "buffer~ R-15 R0e015a.wav"
				}

			}
, 			{
				"box" : 				{
					"id" : "obj-14",
					"maxclass" : "newobj",
					"numinlets" : 1,
					"numoutlets" : 2,
					"outlettype" : [ "float", "bang" ],
					"patching_rect" : [ 16.0, 198.0, 148.0, 22.0 ],
					"style" : "",
					"text" : "buffer~ L-20 L0e020a.wav"
				}

			}
, 			{
				"box" : 				{
					"id" : "obj-15",
					"maxclass" : "newobj",
					"numinlets" : 1,
					"numoutlets" : 2,
					"outlettype" : [ "float", "bang" ],
					"patching_rect" : [ 16.0, 220.0, 152.0, 22.0 ],
					"style" : "",
					"text" : "buffer~ R-20 R0e020a.wav"
				}

			}
, 			{
				"box" : 				{
					"id" : "obj-16",
					"maxclass" : "newobj",
					"numinlets" : 1,
					"numoutlets" : 2,
					"outlettype" : [ "float", "bang" ],
					"patching_rect" : [ 16.0, 242.0, 148.0, 22.0 ],
					"style" : "",
					"text" : "buffer~ L-25 L0e025a.wav"
				}

			}
, 			{
				"box" : 				{
					"id" : "obj-17",
					"maxclass" : "newobj",
					"numinlets" : 1,
					"numoutlets" : 2,
					"outlettype" : [ "float", "bang" ],
					"patching_rect" : [ 16.0, 264.0, 152.0, 22.0 ],
					"style" : "",
					"text" : "buffer~ R-25 R0e025a.wav"
				}

			}
, 			{
				"box" : 				{
					"id" : "obj-18",
					"maxclass" : "newobj",
					"numinlets" : 1,
					"numoutlets" : 2,
					"outlettype" : [ "float", "bang" ],
					"patching_rect" : [ 16.0, 286.0, 148.0, 22.0 ],
					"style" : "",
					"text" : "buffer~ L-30 L0e030a.wav"
				}

			}
, 			{
				"box" : 				{
					"id" : "obj-19",
					"maxclass" : "newobj",
					"numinlets" : 1,
					"numoutlets" : 2,
					"outlettype" : [ "float", "bang" ],
					"patching_rect" : [ 16.0, 308.0, 152.0, 22.0 ],
					"style" : "",
					"text" : "buffer~ R-30 R0e030a.wav"
				}

			}
, 			{
				"box" : 				{
					"id" : "obj-20",
					"maxclass" : "newobj",
					"numinlets" : 1,
					"numoutlets" : 2,
					"outlettype" : [ "float", "bang" ],
					"patching_rect" : [ 16.0, 330.0, 148.0, 22.0 ],
					"style" : "",
					"text" : "buffer~ L-35 L0e035a.wav"
				}

			}
, 			{
				"box" : 				{
					"id" : "obj-21",
					"maxclass" : "newobj",
					"numinlets" : 1,
					"numoutlets" : 2,
					"outlettype" : [ "float", "bang" ],
					"patching_rect" : [ 16.0, 352.0, 152.0, 22.0 ],
					"style" : "",
					"text" : "buffer~ R-35 R0e035a.wav"
				}

			}
, 			{
				"box" : 				{
					"id" : "obj-22",
					"maxclass" : "newobj",
					"numinlets" : 1,
					"numoutlets" : 2,
					"outlettype" : [ "float", "bang" ],
					"patching_rect" : [ 16.0, 374.0, 148.0, 22.0 ],
					"style" : "",
					"text" : "buffer~ L-40 L0e040a.wav"
				}

			}
, 			{
				"box" : 				{
					"id" : "obj-23",
					"maxclass" : "newobj",
					"numinlets" : 1,
					"numoutlets" : 2,
					"outlettype" : [ "float", "bang" ],
					"patching_rect" : [ 16.0, 396.0, 152.0, 22.0 ],
					"style" : "",
					"text" : "buffer~ R-40 R0e040a.wav"
				}

			}
, 			{
				"box" : 				{
					"id" : "obj-24",
					"maxclass" : "newobj",
					"numinlets" : 1,
					"numoutlets" : 2,
					"outlettype" : [ "float", "bang" ],
					"patching_rect" : [ 16.0, 418.0, 148.0, 22.0 ],
					"style" : "",
					"text" : "buffer~ L-45 L0e045a.wav"
				}

			}
, 			{
				"box" : 				{
					"id" : "obj-25",
					"maxclass" : "newobj",
					"numinlets" : 1,
					"numoutlets" : 2,
					"outlettype" : [ "float", "bang" ],
					"patching_rect" : [ 16.0, 440.0, 152.0, 22.0 ],
					"style" : "",
					"text" : "buffer~ R-45 R0e045a.wav"
				}

			}
, 			{
				"box" : 				{
					"id" : "obj-26",
					"maxclass" : "newobj",
					"numinlets" : 1,
					"numoutlets" : 2,
					"outlettype" : [ "float", "bang" ],
					"patching_rect" : [ 16.0, 462.0, 148.0, 22.0 ],
					"style" : "",
					"text" : "buffer~ L-50 L0e050a.wav"
				}

			}
, 			{
				"box" : 				{
					"id" : "obj-27",
					"maxclass" : "newobj",
					"numinlets" : 1,
					"numoutlets" : 2,
					"outlettype" : [ "float", "bang" ],
					"patching_rect" : [ 16.0, 484.0, 152.0, 22.0 ],
					"style" : "",
					"text" : "buffer~ R-50 R0e050a.wav"
				}

			}
, 			{
				"box" : 				{
					"id" : "obj-28",
					"maxclass" : "newobj",
					"numinlets" : 1,
					"numoutlets" : 2,
					"outlettype" : [ "float", "bang" ],
					"patching_rect" : [ 16.0, 506.0, 148.0, 22.0 ],
					"style" : "",
					"text" : "buffer~ L-55 L0e055a.wav"
				}

			}
, 			{
				"box" : 				{
					"id" : "obj-29",
					"maxclass" : "newobj",
					"numinlets" : 1,
					"numoutlets" : 2,
					"outlettype" : [ "float", "bang" ],
					"patching_rect" : [ 16.0, 528.0, 152.0, 22.0 ],
					"style" : "",
					"text" : "buffer~ R-55 R0e055a.wav"
				}

			}
, 			{
				"box" : 				{
					"id" : "obj-30",
					"maxclass" : "newobj",
					"numinlets" : 1,
					"numoutlets" : 2,
					"outlettype" : [ "float", "bang" ],
					"patching_rect" : [ 16.0, 550.0, 148.0, 22.0 ],
					"style" : "",
					"text" : "buffer~ L-60 L0e060a.wav"
				}

			}
, 			{
				"box" : 				{
					"id" : "obj-31",
					"maxclass" : "newobj",
					"numinlets" : 1,
					"numoutlets" : 2,
					"outlettype" : [ "float", "bang" ],
					"patching_rect" : [ 16.0, 572.0, 152.0, 22.0 ],
					"style" : "",
					"text" : "buffer~ R-60 R0e060a.wav"
				}

			}
, 			{
				"box" : 				{
					"id" : "obj-32",
					"maxclass" : "newobj",
					"numinlets" : 1,
					"numoutlets" : 2,
					"outlettype" : [ "float", "bang" ],
					"patching_rect" : [ 16.0, 594.0, 148.0, 22.0 ],
					"style" : "",
					"text" : "buffer~ L-65 L0e065a.wav"
				}

			}
, 			{
				"box" : 				{
					"id" : "obj-33",
					"maxclass" : "newobj",
					"numinlets" : 1,
					"numoutlets" : 2,
					"outlettype" : [ "float", "bang" ],
					"patching_rect" : [ 16.0, 616.0, 152.0, 22.0 ],
					"style" : "",
					"text" : "buffer~ R-65 R0e065a.wav"
				}

			}
, 			{
				"box" : 				{
					"id" : "obj-34",
					"maxclass" : "newobj",
					"numinlets" : 1,
					"numoutlets" : 2,
					"outlettype" : [ "float", "bang" ],
					"patching_rect" : [ 16.0, 638.0, 148.0, 22.0 ],
					"style" : "",
					"text" : "buffer~ L-70 L0e070a.wav"
				}

			}
, 			{
				"box" : 				{
					"id" : "obj-35",
					"maxclass" : "newobj",
					"numinlets" : 1,
					"numoutlets" : 2,
					"outlettype" : [ "float", "bang" ],
					"patching_rect" : [ 16.0, 660.0, 152.0, 22.0 ],
					"style" : "",
					"text" : "buffer~ R-70 R0e070a.wav"
				}

			}
, 			{
				"box" : 				{
					"id" : "obj-36",
					"maxclass" : "newobj",
					"numinlets" : 1,
					"numoutlets" : 2,
					"outlettype" : [ "float", "bang" ],
					"patching_rect" : [ 16.0, 682.0, 148.0, 22.0 ],
					"style" : "",
					"text" : "buffer~ L-75 L0e075a.wav"
				}

			}
, 			{
				"box" : 				{
					"id" : "obj-37",
					"maxclass" : "newobj",
					"numinlets" : 1,
					"numoutlets" : 2,
					"outlettype" : [ "float", "bang" ],
					"patching_rect" : [ 16.0, 704.0, 152.0, 22.0 ],
					"style" : "",
					"text" : "buffer~ R-75 R0e075a.wav"
				}

			}
, 			{
				"box" : 				{
					"id" : "obj-38",
					"maxclass" : "newobj",
					"numinlets" : 1,
					"numoutlets" : 2,
					"outlettype" : [ "float", "bang" ],
					"patching_rect" : [ 16.0, 726.0, 148.0, 22.0 ],
					"style" : "",
					"text" : "buffer~ L-80 L0e080a.wav"
				}

			}
, 			{
				"box" : 				{
					"id" : "obj-39",
					"maxclass" : "newobj",
					"numinlets" : 1,
					"numoutlets" : 2,
					"outlettype" : [ "float", "bang" ],
					"patching_rect" : [ 16.0, 748.0, 152.0, 22.0 ],
					"style" : "",
					"text" : "buffer~ R-80 R0e080a.wav"
				}

			}
, 			{
				"box" : 				{
					"id" : "obj-40",
					"maxclass" : "newobj",
					"numinlets" : 1,
					"numoutlets" : 2,
					"outlettype" : [ "float", "bang" ],
					"patching_rect" : [ 16.0, 770.0, 148.0, 22.0 ],
					"style" : "",
					"text" : "buffer~ L-85 L0e085a.wav"
				}

			}
, 			{
				"box" : 				{
					"id" : "obj-41",
					"maxclass" : "newobj",
					"numinlets" : 1,
					"numoutlets" : 2,
					"outlettype" : [ "float", "bang" ],
					"patching_rect" : [ 16.0, 792.0, 152.0, 22.0 ],
					"style" : "",
					"text" : "buffer~ R-85 R0e085a.wav"
				}

			}
, 			{
				"box" : 				{
					"id" : "obj-42",
					"maxclass" : "newobj",
					"numinlets" : 1,
					"numoutlets" : 2,
					"outlettype" : [ "float", "bang" ],
					"patching_rect" : [ 16.0, 814.0, 148.0, 22.0 ],
					"style" : "",
					"text" : "buffer~ L-90 L0e090a.wav"
				}

			}
, 			{
				"box" : 				{
					"id" : "obj-43",
					"maxclass" : "newobj",
					"numinlets" : 1,
					"numoutlets" : 2,
					"outlettype" : [ "float", "bang" ],
					"patching_rect" : [ 16.0, 836.0, 152.0, 22.0 ],
					"style" : "",
					"text" : "buffer~ R-90 R0e090a.wav"
				}

			}
, 			{
				"box" : 				{
					"id" : "obj-44",
					"maxclass" : "newobj",
					"numinlets" : 1,
					"numoutlets" : 2,
					"outlettype" : [ "float", "bang" ],
					"patching_rect" : [ 16.0, 858.0, 148.0, 22.0 ],
					"style" : "",
					"text" : "buffer~ L-95 L0e095a.wav"
				}

			}
, 			{
				"box" : 				{
					"id" : "obj-45",
					"maxclass" : "newobj",
					"numinlets" : 1,
					"numoutlets" : 2,
					"outlettype" : [ "float", "bang" ],
					"patching_rect" : [ 16.0, 880.0, 152.0, 22.0 ],
					"style" : "",
					"text" : "buffer~ R-95 R0e095a.wav"
				}

			}
, 			{
				"box" : 				{
					"id" : "obj-46",
					"maxclass" : "newobj",
					"numinlets" : 1,
					"numoutlets" : 2,
					"outlettype" : [ "float", "bang" ],
					"patching_rect" : [ 16.0, 902.0, 156.0, 22.0 ],
					"style" : "",
					"text" : "buffer~ L-100 L0e100a.wav"
				}

			}
, 			{
				"box" : 				{
					"id" : "obj-47",
					"maxclass" : "newobj",
					"numinlets" : 1,
					"numoutlets" : 2,
					"outlettype" : [ "float", "bang" ],
					"patching_rect" : [ 16.0, 924.0, 160.0, 22.0 ],
					"style" : "",
					"text" : "buffer~ R-100 R0e100a.wav"
				}

			}
, 			{
				"box" : 				{
					"id" : "obj-48",
					"maxclass" : "newobj",
					"numinlets" : 1,
					"numoutlets" : 2,
					"outlettype" : [ "float", "bang" ],
					"patching_rect" : [ 16.0, 946.0, 156.0, 22.0 ],
					"style" : "",
					"text" : "buffer~ L-105 L0e105a.wav"
				}

			}
, 			{
				"box" : 				{
					"id" : "obj-49",
					"maxclass" : "newobj",
					"numinlets" : 1,
					"numoutlets" : 2,
					"outlettype" : [ "float", "bang" ],
					"patching_rect" : [ 16.0, 968.0, 160.0, 22.0 ],
					"style" : "",
					"text" : "buffer~ R-105 R0e105a.wav"
				}

			}
, 			{
				"box" : 				{
					"id" : "obj-50",
					"maxclass" : "newobj",
					"numinlets" : 1,
					"numoutlets" : 2,
					"outlettype" : [ "float", "bang" ],
					"patching_rect" : [ 16.0, 990.0, 154.0, 22.0 ],
					"style" : "",
					"text" : "buffer~ L-110 L0e110a.wav"
				}

			}
, 			{
				"box" : 				{
					"id" : "obj-51",
					"maxclass" : "newobj",
					"numinlets" : 1,
					"numoutlets" : 2,
					"outlettype" : [ "float", "bang" ],
					"patching_rect" : [ 16.0, 1012.0, 158.0, 22.0 ],
					"style" : "",
					"text" : "buffer~ R-110 R0e110a.wav"
				}

			}
, 			{
				"box" : 				{
					"id" : "obj-52",
					"maxclass" : "newobj",
					"numinlets" : 1,
					"numoutlets" : 2,
					"outlettype" : [ "float", "bang" ],
					"patching_rect" : [ 16.0, 1034.0, 154.0, 22.0 ],
					"style" : "",
					"text" : "buffer~ L-115 L0e115a.wav"
				}

			}
, 			{
				"box" : 				{
					"id" : "obj-53",
					"maxclass" : "newobj",
					"numinlets" : 1,
					"numoutlets" : 2,
					"outlettype" : [ "float", "bang" ],
					"patching_rect" : [ 16.0, 1056.0, 158.0, 22.0 ],
					"style" : "",
					"text" : "buffer~ R-115 R0e115a.wav"
				}

			}
, 			{
				"box" : 				{
					"id" : "obj-54",
					"maxclass" : "newobj",
					"numinlets" : 1,
					"numoutlets" : 2,
					"outlettype" : [ "float", "bang" ],
					"patching_rect" : [ 16.0, 1078.0, 156.0, 22.0 ],
					"style" : "",
					"text" : "buffer~ L-120 L0e120a.wav"
				}

			}
, 			{
				"box" : 				{
					"id" : "obj-55",
					"maxclass" : "newobj",
					"numinlets" : 1,
					"numoutlets" : 2,
					"outlettype" : [ "float", "bang" ],
					"patching_rect" : [ 16.0, 1100.0, 160.0, 22.0 ],
					"style" : "",
					"text" : "buffer~ R-120 R0e120a.wav"
				}

			}
, 			{
				"box" : 				{
					"id" : "obj-56",
					"maxclass" : "newobj",
					"numinlets" : 1,
					"numoutlets" : 2,
					"outlettype" : [ "float", "bang" ],
					"patching_rect" : [ 16.0, 1122.0, 156.0, 22.0 ],
					"style" : "",
					"text" : "buffer~ L-125 L0e125a.wav"
				}

			}
, 			{
				"box" : 				{
					"id" : "obj-57",
					"maxclass" : "newobj",
					"numinlets" : 1,
					"numoutlets" : 2,
					"outlettype" : [ "float", "bang" ],
					"patching_rect" : [ 16.0, 1144.0, 160.0, 22.0 ],
					"style" : "",
					"text" : "buffer~ R-125 R0e125a.wav"
				}

			}
, 			{
				"box" : 				{
					"id" : "obj-58",
					"maxclass" : "newobj",
					"numinlets" : 1,
					"numoutlets" : 2,
					"outlettype" : [ "float", "bang" ],
					"patching_rect" : [ 16.0, 1166.0, 156.0, 22.0 ],
					"style" : "",
					"text" : "buffer~ L-130 L0e130a.wav"
				}

			}
, 			{
				"box" : 				{
					"id" : "obj-59",
					"maxclass" : "newobj",
					"numinlets" : 1,
					"numoutlets" : 2,
					"outlettype" : [ "float", "bang" ],
					"patching_rect" : [ 16.0, 1188.0, 160.0, 22.0 ],
					"style" : "",
					"text" : "buffer~ R-130 R0e130a.wav"
				}

			}
, 			{
				"box" : 				{
					"id" : "obj-60",
					"maxclass" : "newobj",
					"numinlets" : 1,
					"numoutlets" : 2,
					"outlettype" : [ "float", "bang" ],
					"patching_rect" : [ 16.0, 1210.0, 156.0, 22.0 ],
					"style" : "",
					"text" : "buffer~ L-135 L0e135a.wav"
				}

			}
, 			{
				"box" : 				{
					"id" : "obj-61",
					"maxclass" : "newobj",
					"numinlets" : 1,
					"numoutlets" : 2,
					"outlettype" : [ "float", "bang" ],
					"patching_rect" : [ 16.0, 1232.0, 160.0, 22.0 ],
					"style" : "",
					"text" : "buffer~ R-135 R0e135a.wav"
				}

			}
, 			{
				"box" : 				{
					"id" : "obj-62",
					"maxclass" : "newobj",
					"numinlets" : 1,
					"numoutlets" : 2,
					"outlettype" : [ "float", "bang" ],
					"patching_rect" : [ 16.0, 1254.0, 156.0, 22.0 ],
					"style" : "",
					"text" : "buffer~ L-140 L0e140a.wav"
				}

			}
, 			{
				"box" : 				{
					"id" : "obj-63",
					"maxclass" : "newobj",
					"numinlets" : 1,
					"numoutlets" : 2,
					"outlettype" : [ "float", "bang" ],
					"patching_rect" : [ 16.0, 1276.0, 160.0, 22.0 ],
					"style" : "",
					"text" : "buffer~ R-140 R0e140a.wav"
				}

			}
, 			{
				"box" : 				{
					"id" : "obj-64",
					"maxclass" : "newobj",
					"numinlets" : 1,
					"numoutlets" : 2,
					"outlettype" : [ "float", "bang" ],
					"patching_rect" : [ 16.0, 1298.0, 156.0, 22.0 ],
					"style" : "",
					"text" : "buffer~ L-145 L0e145a.wav"
				}

			}
, 			{
				"box" : 				{
					"id" : "obj-65",
					"maxclass" : "newobj",
					"numinlets" : 1,
					"numoutlets" : 2,
					"outlettype" : [ "float", "bang" ],
					"patching_rect" : [ 16.0, 1320.0, 160.0, 22.0 ],
					"style" : "",
					"text" : "buffer~ R-145 R0e145a.wav"
				}

			}
, 			{
				"box" : 				{
					"id" : "obj-66",
					"maxclass" : "newobj",
					"numinlets" : 1,
					"numoutlets" : 2,
					"outlettype" : [ "float", "bang" ],
					"patching_rect" : [ 16.0, 1342.0, 156.0, 22.0 ],
					"style" : "",
					"text" : "buffer~ L-150 L0e150a.wav"
				}

			}
, 			{
				"box" : 				{
					"id" : "obj-67",
					"maxclass" : "newobj",
					"numinlets" : 1,
					"numoutlets" : 2,
					"outlettype" : [ "float", "bang" ],
					"patching_rect" : [ 16.0, 1364.0, 160.0, 22.0 ],
					"style" : "",
					"text" : "buffer~ R-150 R0e150a.wav"
				}

			}
, 			{
				"box" : 				{
					"id" : "obj-68",
					"maxclass" : "newobj",
					"numinlets" : 1,
					"numoutlets" : 2,
					"outlettype" : [ "float", "bang" ],
					"patching_rect" : [ 16.0, 1386.0, 156.0, 22.0 ],
					"style" : "",
					"text" : "buffer~ L-155 L0e155a.wav"
				}

			}
, 			{
				"box" : 				{
					"id" : "obj-69",
					"maxclass" : "newobj",
					"numinlets" : 1,
					"numoutlets" : 2,
					"outlettype" : [ "float", "bang" ],
					"patching_rect" : [ 16.0, 1408.0, 160.0, 22.0 ],
					"style" : "",
					"text" : "buffer~ R-155 R0e155a.wav"
				}

			}
, 			{
				"box" : 				{
					"id" : "obj-70",
					"maxclass" : "newobj",
					"numinlets" : 1,
					"numoutlets" : 2,
					"outlettype" : [ "float", "bang" ],
					"patching_rect" : [ 16.0, 1430.0, 156.0, 22.0 ],
					"style" : "",
					"text" : "buffer~ L-160 L0e160a.wav"
				}

			}
, 			{
				"box" : 				{
					"id" : "obj-71",
					"maxclass" : "newobj",
					"numinlets" : 1,
					"numoutlets" : 2,
					"outlettype" : [ "float", "bang" ],
					"patching_rect" : [ 16.0, 1452.0, 160.0, 22.0 ],
					"style" : "",
					"text" : "buffer~ R-160 R0e160a.wav"
				}

			}
, 			{
				"box" : 				{
					"id" : "obj-72",
					"maxclass" : "newobj",
					"numinlets" : 1,
					"numoutlets" : 2,
					"outlettype" : [ "float", "bang" ],
					"patching_rect" : [ 16.0, 1474.0, 156.0, 22.0 ],
					"style" : "",
					"text" : "buffer~ L-165 L0e165a.wav"
				}

			}
, 			{
				"box" : 				{
					"id" : "obj-73",
					"maxclass" : "newobj",
					"numinlets" : 1,
					"numoutlets" : 2,
					"outlettype" : [ "float", "bang" ],
					"patching_rect" : [ 16.0, 1496.0, 160.0, 22.0 ],
					"style" : "",
					"text" : "buffer~ R-165 R0e165a.wav"
				}

			}
, 			{
				"box" : 				{
					"id" : "obj-74",
					"maxclass" : "newobj",
					"numinlets" : 1,
					"numoutlets" : 2,
					"outlettype" : [ "float", "bang" ],
					"patching_rect" : [ 16.0, 1518.0, 156.0, 22.0 ],
					"style" : "",
					"text" : "buffer~ L-170 L0e170a.wav"
				}

			}
, 			{
				"box" : 				{
					"id" : "obj-75",
					"maxclass" : "newobj",
					"numinlets" : 1,
					"numoutlets" : 2,
					"outlettype" : [ "float", "bang" ],
					"patching_rect" : [ 16.0, 1540.0, 160.0, 22.0 ],
					"style" : "",
					"text" : "buffer~ R-170 R0e170a.wav"
				}

			}
, 			{
				"box" : 				{
					"id" : "obj-76",
					"maxclass" : "newobj",
					"numinlets" : 1,
					"numoutlets" : 2,
					"outlettype" : [ "float", "bang" ],
					"patching_rect" : [ 16.0, 1562.0, 156.0, 22.0 ],
					"style" : "",
					"text" : "buffer~ L-175 L0e175a.wav"
				}

			}
, 			{
				"box" : 				{
					"id" : "obj-77",
					"maxclass" : "newobj",
					"numinlets" : 1,
					"numoutlets" : 2,
					"outlettype" : [ "float", "bang" ],
					"patching_rect" : [ 16.0, 1584.0, 160.0, 22.0 ],
					"style" : "",
					"text" : "buffer~ R-175 R0e175a.wav"
				}

			}
, 			{
				"box" : 				{
					"id" : "obj-78",
					"maxclass" : "newobj",
					"numinlets" : 1,
					"numoutlets" : 2,
					"outlettype" : [ "float", "bang" ],
					"patching_rect" : [ 16.0, 1606.0, 156.0, 22.0 ],
					"style" : "",
					"text" : "buffer~ L-180 L0e180a.wav"
				}

			}
, 			{
				"box" : 				{
					"id" : "obj-79",
					"maxclass" : "newobj",
					"numinlets" : 1,
					"numoutlets" : 2,
					"outlettype" : [ "float", "bang" ],
					"patching_rect" : [ 16.0, 1628.0, 160.0, 22.0 ],
					"style" : "",
					"text" : "buffer~ R-180 R0e180a.wav"
				}

			}
, 			{
				"box" : 				{
					"id" : "obj-80",
					"maxclass" : "newobj",
					"numinlets" : 1,
					"numoutlets" : 2,
					"outlettype" : [ "float", "bang" ],
					"patching_rect" : [ 16.0, 1650.0, 156.0, 22.0 ],
					"style" : "",
					"text" : "buffer~ L-185 L0e185a.wav"
				}

			}
, 			{
				"box" : 				{
					"id" : "obj-81",
					"maxclass" : "newobj",
					"numinlets" : 1,
					"numoutlets" : 2,
					"outlettype" : [ "float", "bang" ],
					"patching_rect" : [ 16.0, 1672.0, 160.0, 22.0 ],
					"style" : "",
					"text" : "buffer~ R-185 R0e185a.wav"
				}

			}
, 			{
				"box" : 				{
					"id" : "obj-82",
					"maxclass" : "newobj",
					"numinlets" : 1,
					"numoutlets" : 2,
					"outlettype" : [ "float", "bang" ],
					"patching_rect" : [ 16.0, 1694.0, 156.0, 22.0 ],
					"style" : "",
					"text" : "buffer~ L-190 L0e190a.wav"
				}

			}
, 			{
				"box" : 				{
					"id" : "obj-83",
					"maxclass" : "newobj",
					"numinlets" : 1,
					"numoutlets" : 2,
					"outlettype" : [ "float", "bang" ],
					"patching_rect" : [ 16.0, 1716.0, 160.0, 22.0 ],
					"style" : "",
					"text" : "buffer~ R-190 R0e190a.wav"
				}

			}
, 			{
				"box" : 				{
					"id" : "obj-84",
					"maxclass" : "newobj",
					"numinlets" : 1,
					"numoutlets" : 2,
					"outlettype" : [ "float", "bang" ],
					"patching_rect" : [ 16.0, 1738.0, 156.0, 22.0 ],
					"style" : "",
					"text" : "buffer~ L-195 L0e195a.wav"
				}

			}
, 			{
				"box" : 				{
					"id" : "obj-85",
					"maxclass" : "newobj",
					"numinlets" : 1,
					"numoutlets" : 2,
					"outlettype" : [ "float", "bang" ],
					"patching_rect" : [ 16.0, 1760.0, 160.0, 22.0 ],
					"style" : "",
					"text" : "buffer~ R-195 R0e195a.wav"
				}

			}
, 			{
				"box" : 				{
					"id" : "obj-86",
					"maxclass" : "newobj",
					"numinlets" : 1,
					"numoutlets" : 2,
					"outlettype" : [ "float", "bang" ],
					"patching_rect" : [ 16.0, 1782.0, 156.0, 22.0 ],
					"style" : "",
					"text" : "buffer~ L-200 L0e200a.wav"
				}

			}
, 			{
				"box" : 				{
					"id" : "obj-87",
					"maxclass" : "newobj",
					"numinlets" : 1,
					"numoutlets" : 2,
					"outlettype" : [ "float", "bang" ],
					"patching_rect" : [ 16.0, 1804.0, 160.0, 22.0 ],
					"style" : "",
					"text" : "buffer~ R-200 R0e200a.wav"
				}

			}
, 			{
				"box" : 				{
					"id" : "obj-88",
					"maxclass" : "newobj",
					"numinlets" : 1,
					"numoutlets" : 2,
					"outlettype" : [ "float", "bang" ],
					"patching_rect" : [ 16.0, 1826.0, 156.0, 22.0 ],
					"style" : "",
					"text" : "buffer~ L-205 L0e205a.wav"
				}

			}
, 			{
				"box" : 				{
					"id" : "obj-89",
					"maxclass" : "newobj",
					"numinlets" : 1,
					"numoutlets" : 2,
					"outlettype" : [ "float", "bang" ],
					"patching_rect" : [ 16.0, 1848.0, 160.0, 22.0 ],
					"style" : "",
					"text" : "buffer~ R-205 R0e205a.wav"
				}

			}
, 			{
				"box" : 				{
					"id" : "obj-90",
					"maxclass" : "newobj",
					"numinlets" : 1,
					"numoutlets" : 2,
					"outlettype" : [ "float", "bang" ],
					"patching_rect" : [ 16.0, 1870.0, 156.0, 22.0 ],
					"style" : "",
					"text" : "buffer~ L-210 L0e210a.wav"
				}

			}
, 			{
				"box" : 				{
					"id" : "obj-91",
					"maxclass" : "newobj",
					"numinlets" : 1,
					"numoutlets" : 2,
					"outlettype" : [ "float", "bang" ],
					"patching_rect" : [ 16.0, 1892.0, 160.0, 22.0 ],
					"style" : "",
					"text" : "buffer~ R-210 R0e210a.wav"
				}

			}
, 			{
				"box" : 				{
					"id" : "obj-92",
					"maxclass" : "newobj",
					"numinlets" : 1,
					"numoutlets" : 2,
					"outlettype" : [ "float", "bang" ],
					"patching_rect" : [ 16.0, 1914.0, 156.0, 22.0 ],
					"style" : "",
					"text" : "buffer~ L-215 L0e215a.wav"
				}

			}
, 			{
				"box" : 				{
					"id" : "obj-93",
					"maxclass" : "newobj",
					"numinlets" : 1,
					"numoutlets" : 2,
					"outlettype" : [ "float", "bang" ],
					"patching_rect" : [ 16.0, 1936.0, 160.0, 22.0 ],
					"style" : "",
					"text" : "buffer~ R-215 R0e215a.wav"
				}

			}
, 			{
				"box" : 				{
					"id" : "obj-94",
					"maxclass" : "newobj",
					"numinlets" : 1,
					"numoutlets" : 2,
					"outlettype" : [ "float", "bang" ],
					"patching_rect" : [ 16.0, 1958.0, 156.0, 22.0 ],
					"style" : "",
					"text" : "buffer~ L-220 L0e220a.wav"
				}

			}
, 			{
				"box" : 				{
					"id" : "obj-95",
					"maxclass" : "newobj",
					"numinlets" : 1,
					"numoutlets" : 2,
					"outlettype" : [ "float", "bang" ],
					"patching_rect" : [ 16.0, 1980.0, 160.0, 22.0 ],
					"style" : "",
					"text" : "buffer~ R-220 R0e220a.wav"
				}

			}
, 			{
				"box" : 				{
					"id" : "obj-96",
					"maxclass" : "newobj",
					"numinlets" : 1,
					"numoutlets" : 2,
					"outlettype" : [ "float", "bang" ],
					"patching_rect" : [ 16.0, 2002.0, 156.0, 22.0 ],
					"style" : "",
					"text" : "buffer~ L-225 L0e225a.wav"
				}

			}
, 			{
				"box" : 				{
					"id" : "obj-97",
					"maxclass" : "newobj",
					"numinlets" : 1,
					"numoutlets" : 2,
					"outlettype" : [ "float", "bang" ],
					"patching_rect" : [ 16.0, 2024.0, 160.0, 22.0 ],
					"style" : "",
					"text" : "buffer~ R-225 R0e225a.wav"
				}

			}
, 			{
				"box" : 				{
					"id" : "obj-98",
					"maxclass" : "newobj",
					"numinlets" : 1,
					"numoutlets" : 2,
					"outlettype" : [ "float", "bang" ],
					"patching_rect" : [ 16.0, 2046.0, 156.0, 22.0 ],
					"style" : "",
					"text" : "buffer~ L-230 L0e230a.wav"
				}

			}
, 			{
				"box" : 				{
					"id" : "obj-99",
					"maxclass" : "newobj",
					"numinlets" : 1,
					"numoutlets" : 2,
					"outlettype" : [ "float", "bang" ],
					"patching_rect" : [ 16.0, 2068.0, 160.0, 22.0 ],
					"style" : "",
					"text" : "buffer~ R-230 R0e230a.wav"
				}

			}
, 			{
				"box" : 				{
					"id" : "obj-100",
					"maxclass" : "newobj",
					"numinlets" : 1,
					"numoutlets" : 2,
					"outlettype" : [ "float", "bang" ],
					"patching_rect" : [ 16.0, 2090.0, 156.0, 22.0 ],
					"style" : "",
					"text" : "buffer~ L-235 L0e235a.wav"
				}

			}
, 			{
				"box" : 				{
					"id" : "obj-101",
					"maxclass" : "newobj",
					"numinlets" : 1,
					"numoutlets" : 2,
					"outlettype" : [ "float", "bang" ],
					"patching_rect" : [ 16.0, 2112.0, 160.0, 22.0 ],
					"style" : "",
					"text" : "buffer~ R-235 R0e235a.wav"
				}

			}
, 			{
				"box" : 				{
					"id" : "obj-102",
					"maxclass" : "newobj",
					"numinlets" : 1,
					"numoutlets" : 2,
					"outlettype" : [ "float", "bang" ],
					"patching_rect" : [ 16.0, 2134.0, 156.0, 22.0 ],
					"style" : "",
					"text" : "buffer~ L-240 L0e240a.wav"
				}

			}
, 			{
				"box" : 				{
					"id" : "obj-103",
					"maxclass" : "newobj",
					"numinlets" : 1,
					"numoutlets" : 2,
					"outlettype" : [ "float", "bang" ],
					"patching_rect" : [ 16.0, 2156.0, 160.0, 22.0 ],
					"style" : "",
					"text" : "buffer~ R-240 R0e240a.wav"
				}

			}
, 			{
				"box" : 				{
					"id" : "obj-104",
					"maxclass" : "newobj",
					"numinlets" : 1,
					"numoutlets" : 2,
					"outlettype" : [ "float", "bang" ],
					"patching_rect" : [ 16.0, 2178.0, 156.0, 22.0 ],
					"style" : "",
					"text" : "buffer~ L-245 L0e245a.wav"
				}

			}
, 			{
				"box" : 				{
					"id" : "obj-105",
					"maxclass" : "newobj",
					"numinlets" : 1,
					"numoutlets" : 2,
					"outlettype" : [ "float", "bang" ],
					"patching_rect" : [ 16.0, 2200.0, 160.0, 22.0 ],
					"style" : "",
					"text" : "buffer~ R-245 R0e245a.wav"
				}

			}
, 			{
				"box" : 				{
					"id" : "obj-106",
					"maxclass" : "newobj",
					"numinlets" : 1,
					"numoutlets" : 2,
					"outlettype" : [ "float", "bang" ],
					"patching_rect" : [ 16.0, 2222.0, 156.0, 22.0 ],
					"style" : "",
					"text" : "buffer~ L-250 L0e250a.wav"
				}

			}
, 			{
				"box" : 				{
					"id" : "obj-107",
					"maxclass" : "newobj",
					"numinlets" : 1,
					"numoutlets" : 2,
					"outlettype" : [ "float", "bang" ],
					"patching_rect" : [ 16.0, 2244.0, 160.0, 22.0 ],
					"style" : "",
					"text" : "buffer~ R-250 R0e250a.wav"
				}

			}
, 			{
				"box" : 				{
					"id" : "obj-108",
					"maxclass" : "newobj",
					"numinlets" : 1,
					"numoutlets" : 2,
					"outlettype" : [ "float", "bang" ],
					"patching_rect" : [ 16.0, 2266.0, 156.0, 22.0 ],
					"style" : "",
					"text" : "buffer~ L-255 L0e255a.wav"
				}

			}
, 			{
				"box" : 				{
					"id" : "obj-109",
					"maxclass" : "newobj",
					"numinlets" : 1,
					"numoutlets" : 2,
					"outlettype" : [ "float", "bang" ],
					"patching_rect" : [ 16.0, 2288.0, 160.0, 22.0 ],
					"style" : "",
					"text" : "buffer~ R-255 R0e255a.wav"
				}

			}
, 			{
				"box" : 				{
					"id" : "obj-110",
					"maxclass" : "newobj",
					"numinlets" : 1,
					"numoutlets" : 2,
					"outlettype" : [ "float", "bang" ],
					"patching_rect" : [ 16.0, 2310.0, 156.0, 22.0 ],
					"style" : "",
					"text" : "buffer~ L-260 L0e260a.wav"
				}

			}
, 			{
				"box" : 				{
					"id" : "obj-111",
					"maxclass" : "newobj",
					"numinlets" : 1,
					"numoutlets" : 2,
					"outlettype" : [ "float", "bang" ],
					"patching_rect" : [ 16.0, 2332.0, 160.0, 22.0 ],
					"style" : "",
					"text" : "buffer~ R-260 R0e260a.wav"
				}

			}
, 			{
				"box" : 				{
					"id" : "obj-112",
					"maxclass" : "newobj",
					"numinlets" : 1,
					"numoutlets" : 2,
					"outlettype" : [ "float", "bang" ],
					"patching_rect" : [ 16.0, 2354.0, 156.0, 22.0 ],
					"style" : "",
					"text" : "buffer~ L-265 L0e265a.wav"
				}

			}
, 			{
				"box" : 				{
					"id" : "obj-113",
					"maxclass" : "newobj",
					"numinlets" : 1,
					"numoutlets" : 2,
					"outlettype" : [ "float", "bang" ],
					"patching_rect" : [ 16.0, 2376.0, 160.0, 22.0 ],
					"style" : "",
					"text" : "buffer~ R-265 R0e265a.wav"
				}

			}
, 			{
				"box" : 				{
					"id" : "obj-114",
					"maxclass" : "newobj",
					"numinlets" : 1,
					"numoutlets" : 2,
					"outlettype" : [ "float", "bang" ],
					"patching_rect" : [ 16.0, 2398.0, 156.0, 22.0 ],
					"style" : "",
					"text" : "buffer~ L-270 L0e270a.wav"
				}

			}
, 			{
				"box" : 				{
					"id" : "obj-115",
					"maxclass" : "newobj",
					"numinlets" : 1,
					"numoutlets" : 2,
					"outlettype" : [ "float", "bang" ],
					"patching_rect" : [ 16.0, 2420.0, 160.0, 22.0 ],
					"style" : "",
					"text" : "buffer~ R-270 R0e270a.wav"
				}

			}
, 			{
				"box" : 				{
					"id" : "obj-116",
					"maxclass" : "newobj",
					"numinlets" : 1,
					"numoutlets" : 2,
					"outlettype" : [ "float", "bang" ],
					"patching_rect" : [ 16.0, 2442.0, 156.0, 22.0 ],
					"style" : "",
					"text" : "buffer~ L-275 L0e275a.wav"
				}

			}
, 			{
				"box" : 				{
					"id" : "obj-117",
					"maxclass" : "newobj",
					"numinlets" : 1,
					"numoutlets" : 2,
					"outlettype" : [ "float", "bang" ],
					"patching_rect" : [ 16.0, 2464.0, 160.0, 22.0 ],
					"style" : "",
					"text" : "buffer~ R-275 R0e275a.wav"
				}

			}
, 			{
				"box" : 				{
					"id" : "obj-118",
					"maxclass" : "newobj",
					"numinlets" : 1,
					"numoutlets" : 2,
					"outlettype" : [ "float", "bang" ],
					"patching_rect" : [ 16.0, 2486.0, 156.0, 22.0 ],
					"style" : "",
					"text" : "buffer~ L-280 L0e280a.wav"
				}

			}
, 			{
				"box" : 				{
					"id" : "obj-119",
					"maxclass" : "newobj",
					"numinlets" : 1,
					"numoutlets" : 2,
					"outlettype" : [ "float", "bang" ],
					"patching_rect" : [ 16.0, 2508.0, 160.0, 22.0 ],
					"style" : "",
					"text" : "buffer~ R-280 R0e280a.wav"
				}

			}
, 			{
				"box" : 				{
					"id" : "obj-120",
					"maxclass" : "newobj",
					"numinlets" : 1,
					"numoutlets" : 2,
					"outlettype" : [ "float", "bang" ],
					"patching_rect" : [ 16.0, 2530.0, 156.0, 22.0 ],
					"style" : "",
					"text" : "buffer~ L-285 L0e285a.wav"
				}

			}
, 			{
				"box" : 				{
					"id" : "obj-121",
					"maxclass" : "newobj",
					"numinlets" : 1,
					"numoutlets" : 2,
					"outlettype" : [ "float", "bang" ],
					"patching_rect" : [ 16.0, 2552.0, 160.0, 22.0 ],
					"style" : "",
					"text" : "buffer~ R-285 R0e285a.wav"
				}

			}
, 			{
				"box" : 				{
					"id" : "obj-122",
					"maxclass" : "newobj",
					"numinlets" : 1,
					"numoutlets" : 2,
					"outlettype" : [ "float", "bang" ],
					"patching_rect" : [ 16.0, 2574.0, 156.0, 22.0 ],
					"style" : "",
					"text" : "buffer~ L-290 L0e290a.wav"
				}

			}
, 			{
				"box" : 				{
					"id" : "obj-123",
					"maxclass" : "newobj",
					"numinlets" : 1,
					"numoutlets" : 2,
					"outlettype" : [ "float", "bang" ],
					"patching_rect" : [ 16.0, 2596.0, 160.0, 22.0 ],
					"style" : "",
					"text" : "buffer~ R-290 R0e290a.wav"
				}

			}
, 			{
				"box" : 				{
					"id" : "obj-124",
					"maxclass" : "newobj",
					"numinlets" : 1,
					"numoutlets" : 2,
					"outlettype" : [ "float", "bang" ],
					"patching_rect" : [ 16.0, 2618.0, 156.0, 22.0 ],
					"style" : "",
					"text" : "buffer~ L-295 L0e295a.wav"
				}

			}
, 			{
				"box" : 				{
					"id" : "obj-125",
					"maxclass" : "newobj",
					"numinlets" : 1,
					"numoutlets" : 2,
					"outlettype" : [ "float", "bang" ],
					"patching_rect" : [ 16.0, 2640.0, 160.0, 22.0 ],
					"style" : "",
					"text" : "buffer~ R-295 R0e295a.wav"
				}

			}
, 			{
				"box" : 				{
					"id" : "obj-126",
					"maxclass" : "newobj",
					"numinlets" : 1,
					"numoutlets" : 2,
					"outlettype" : [ "float", "bang" ],
					"patching_rect" : [ 16.0, 2662.0, 156.0, 22.0 ],
					"style" : "",
					"text" : "buffer~ L-300 L0e300a.wav"
				}

			}
, 			{
				"box" : 				{
					"id" : "obj-127",
					"maxclass" : "newobj",
					"numinlets" : 1,
					"numoutlets" : 2,
					"outlettype" : [ "float", "bang" ],
					"patching_rect" : [ 16.0, 2684.0, 160.0, 22.0 ],
					"style" : "",
					"text" : "buffer~ R-300 R0e300a.wav"
				}

			}
, 			{
				"box" : 				{
					"id" : "obj-128",
					"maxclass" : "newobj",
					"numinlets" : 1,
					"numoutlets" : 2,
					"outlettype" : [ "float", "bang" ],
					"patching_rect" : [ 16.0, 2706.0, 156.0, 22.0 ],
					"style" : "",
					"text" : "buffer~ L-305 L0e305a.wav"
				}

			}
, 			{
				"box" : 				{
					"id" : "obj-129",
					"maxclass" : "newobj",
					"numinlets" : 1,
					"numoutlets" : 2,
					"outlettype" : [ "float", "bang" ],
					"patching_rect" : [ 16.0, 2728.0, 160.0, 22.0 ],
					"style" : "",
					"text" : "buffer~ R-305 R0e305a.wav"
				}

			}
, 			{
				"box" : 				{
					"id" : "obj-130",
					"maxclass" : "newobj",
					"numinlets" : 1,
					"numoutlets" : 2,
					"outlettype" : [ "float", "bang" ],
					"patching_rect" : [ 16.0, 2750.0, 156.0, 22.0 ],
					"style" : "",
					"text" : "buffer~ L-310 L0e310a.wav"
				}

			}
, 			{
				"box" : 				{
					"id" : "obj-131",
					"maxclass" : "newobj",
					"numinlets" : 1,
					"numoutlets" : 2,
					"outlettype" : [ "float", "bang" ],
					"patching_rect" : [ 16.0, 2772.0, 160.0, 22.0 ],
					"style" : "",
					"text" : "buffer~ R-310 R0e310a.wav"
				}

			}
, 			{
				"box" : 				{
					"id" : "obj-132",
					"maxclass" : "newobj",
					"numinlets" : 1,
					"numoutlets" : 2,
					"outlettype" : [ "float", "bang" ],
					"patching_rect" : [ 16.0, 2794.0, 156.0, 22.0 ],
					"style" : "",
					"text" : "buffer~ L-315 L0e315a.wav"
				}

			}
, 			{
				"box" : 				{
					"id" : "obj-133",
					"maxclass" : "newobj",
					"numinlets" : 1,
					"numoutlets" : 2,
					"outlettype" : [ "float", "bang" ],
					"patching_rect" : [ 16.0, 2816.0, 160.0, 22.0 ],
					"style" : "",
					"text" : "buffer~ R-315 R0e315a.wav"
				}

			}
, 			{
				"box" : 				{
					"id" : "obj-134",
					"maxclass" : "newobj",
					"numinlets" : 1,
					"numoutlets" : 2,
					"outlettype" : [ "float", "bang" ],
					"patching_rect" : [ 16.0, 2838.0, 156.0, 22.0 ],
					"style" : "",
					"text" : "buffer~ L-320 L0e320a.wav"
				}

			}
, 			{
				"box" : 				{
					"id" : "obj-135",
					"maxclass" : "newobj",
					"numinlets" : 1,
					"numoutlets" : 2,
					"outlettype" : [ "float", "bang" ],
					"patching_rect" : [ 16.0, 2860.0, 160.0, 22.0 ],
					"style" : "",
					"text" : "buffer~ R-320 R0e320a.wav"
				}

			}
, 			{
				"box" : 				{
					"id" : "obj-136",
					"maxclass" : "newobj",
					"numinlets" : 1,
					"numoutlets" : 2,
					"outlettype" : [ "float", "bang" ],
					"patching_rect" : [ 16.0, 2882.0, 156.0, 22.0 ],
					"style" : "",
					"text" : "buffer~ L-325 L0e325a.wav"
				}

			}
, 			{
				"box" : 				{
					"id" : "obj-137",
					"maxclass" : "newobj",
					"numinlets" : 1,
					"numoutlets" : 2,
					"outlettype" : [ "float", "bang" ],
					"patching_rect" : [ 16.0, 2904.0, 160.0, 22.0 ],
					"style" : "",
					"text" : "buffer~ R-325 R0e325a.wav"
				}

			}
, 			{
				"box" : 				{
					"id" : "obj-138",
					"maxclass" : "newobj",
					"numinlets" : 1,
					"numoutlets" : 2,
					"outlettype" : [ "float", "bang" ],
					"patching_rect" : [ 16.0, 2926.0, 156.0, 22.0 ],
					"style" : "",
					"text" : "buffer~ L-330 L0e330a.wav"
				}

			}
, 			{
				"box" : 				{
					"id" : "obj-139",
					"maxclass" : "newobj",
					"numinlets" : 1,
					"numoutlets" : 2,
					"outlettype" : [ "float", "bang" ],
					"patching_rect" : [ 16.0, 2948.0, 160.0, 22.0 ],
					"style" : "",
					"text" : "buffer~ R-330 R0e330a.wav"
				}

			}
, 			{
				"box" : 				{
					"id" : "obj-140",
					"maxclass" : "newobj",
					"numinlets" : 1,
					"numoutlets" : 2,
					"outlettype" : [ "float", "bang" ],
					"patching_rect" : [ 16.0, 2970.0, 156.0, 22.0 ],
					"style" : "",
					"text" : "buffer~ L-335 L0e335a.wav"
				}

			}
, 			{
				"box" : 				{
					"id" : "obj-141",
					"maxclass" : "newobj",
					"numinlets" : 1,
					"numoutlets" : 2,
					"outlettype" : [ "float", "bang" ],
					"patching_rect" : [ 16.0, 2992.0, 160.0, 22.0 ],
					"style" : "",
					"text" : "buffer~ R-335 R0e335a.wav"
				}

			}
, 			{
				"box" : 				{
					"id" : "obj-142",
					"maxclass" : "newobj",
					"numinlets" : 1,
					"numoutlets" : 2,
					"outlettype" : [ "float", "bang" ],
					"patching_rect" : [ 16.0, 3014.0, 156.0, 22.0 ],
					"style" : "",
					"text" : "buffer~ L-340 L0e340a.wav"
				}

			}
, 			{
				"box" : 				{
					"id" : "obj-143",
					"maxclass" : "newobj",
					"numinlets" : 1,
					"numoutlets" : 2,
					"outlettype" : [ "float", "bang" ],
					"patching_rect" : [ 16.0, 3036.0, 160.0, 22.0 ],
					"style" : "",
					"text" : "buffer~ R-340 R0e340a.wav"
				}

			}
, 			{
				"box" : 				{
					"id" : "obj-144",
					"maxclass" : "newobj",
					"numinlets" : 1,
					"numoutlets" : 2,
					"outlettype" : [ "float", "bang" ],
					"patching_rect" : [ 16.0, 3058.0, 156.0, 22.0 ],
					"style" : "",
					"text" : "buffer~ L-345 L0e345a.wav"
				}

			}
, 			{
				"box" : 				{
					"id" : "obj-145",
					"maxclass" : "newobj",
					"numinlets" : 1,
					"numoutlets" : 2,
					"outlettype" : [ "float", "bang" ],
					"patching_rect" : [ 16.0, 3080.0, 160.0, 22.0 ],
					"style" : "",
					"text" : "buffer~ R-345 R0e345a.wav"
				}

			}
, 			{
				"box" : 				{
					"id" : "obj-146",
					"maxclass" : "newobj",
					"numinlets" : 1,
					"numoutlets" : 2,
					"outlettype" : [ "float", "bang" ],
					"patching_rect" : [ 16.0, 3102.0, 156.0, 22.0 ],
					"style" : "",
					"text" : "buffer~ L-350 L0e350a.wav"
				}

			}
, 			{
				"box" : 				{
					"id" : "obj-147",
					"maxclass" : "newobj",
					"numinlets" : 1,
					"numoutlets" : 2,
					"outlettype" : [ "float", "bang" ],
					"patching_rect" : [ 16.0, 3124.0, 160.0, 22.0 ],
					"style" : "",
					"text" : "buffer~ R-350 R0e350a.wav"
				}

			}
, 			{
				"box" : 				{
					"id" : "obj-148",
					"maxclass" : "newobj",
					"numinlets" : 1,
					"numoutlets" : 2,
					"outlettype" : [ "float", "bang" ],
					"patching_rect" : [ 16.0, 3146.0, 156.0, 22.0 ],
					"style" : "",
					"text" : "buffer~ L-355 L0e355a.wav"
				}

			}
, 			{
				"box" : 				{
					"id" : "obj-149",
					"maxclass" : "newobj",
					"numinlets" : 1,
					"numoutlets" : 2,
					"outlettype" : [ "float", "bang" ],
					"patching_rect" : [ 16.0, 3168.0, 160.0, 22.0 ],
					"style" : "",
					"text" : "buffer~ R-355 R0e355a.wav"
				}

			}
 ],
		"lines" : [ 			{
				"patchline" : 				{
					"destination" : [ "obj-12", 0 ],
					"disabled" : 0,
					"hidden" : 0,
					"source" : [ "obj-10", 0 ]
				}

			}
, 			{
				"patchline" : 				{
					"destination" : [ "obj-1", 0 ],
					"disabled" : 0,
					"hidden" : 0,
					"source" : [ "obj-12", 1 ]
				}

			}
, 			{
				"patchline" : 				{
					"destination" : [ "obj-1", 0 ],
					"disabled" : 0,
					"hidden" : 0,
					"source" : [ "obj-12", 0 ]
				}

			}
, 			{
				"patchline" : 				{
					"destination" : [ "obj-8", 0 ],
					"disabled" : 0,
					"hidden" : 0,
					"source" : [ "obj-7", 0 ]
				}

			}
, 			{
				"patchline" : 				{
					"destination" : [ "obj-10", 0 ],
					"disabled" : 0,
					"hidden" : 0,
					"source" : [ "obj-8", 0 ]
				}

			}
 ]
	}

}
