{
	"patcher" : 	{
		"fileversion" : 1,
		"appversion" : 		{
			"major" : 7,
			"minor" : 3,
			"revision" : 1,
			"architecture" : "x86",
			"modernui" : 1
		}
,
		"rect" : [ 550.0, 89.0, 754.0, 688.0 ],
		"bglocked" : 0,
		"openinpresentation" : 0,
		"default_fontsize" : 12.0,
		"default_fontface" : 0,
		"default_fontname" : "Arial",
		"gridonopen" : 1,
		"gridsize" : [ 15.0, 15.0 ],
		"gridsnaponopen" : 1,
		"objectsnaponopen" : 1,
		"statusbarvisible" : 2,
		"toolbarvisible" : 1,
		"lefttoolbarpinned" : 0,
		"toptoolbarpinned" : 0,
		"righttoolbarpinned" : 0,
		"bottomtoolbarpinned" : 0,
		"toolbars_unpinned_last_save" : 0,
		"tallnewobj" : 0,
		"boxanimatetime" : 200,
		"enablehscroll" : 1,
		"enablevscroll" : 1,
		"devicewidth" : 0.0,
		"description" : "",
		"digest" : "",
		"tags" : "",
		"style" : "",
		"subpatcher_template" : "",
		"boxes" : [ 			{
				"box" : 				{
					"id" : "obj-12",
					"maxclass" : "newobj",
					"numinlets" : 1,
					"numoutlets" : 3,
					"outlettype" : [ "", "", "FullPacket" ],
					"patching_rect" : [ 207.0, 191.0, 135.0, 22.0 ],
					"style" : "",
					"text" : "o.route /resultR /resultL"
				}

			}
, 			{
				"box" : 				{
					"fontface" : 0,
					"fontsize" : 12.0,
					"id" : "obj-10",
					"linecount" : 5,
					"maxclass" : "o.expr.codebox",
					"numinlets" : 1,
					"numoutlets" : 2,
					"outlettype" : [ "FullPacket", "FullPacket" ],
					"patching_rect" : [ 207.0, 96.0, 488.0, 86.0 ],
					"text" : "/pfx = \"L0e\", /tfx = \"a.wav\",\n/pad = if(/value < 10, \"00\", if(/value < 100, \"0\")),\n/filename = /pfx + /pad + string(/value) + /tfx,\n/resultL = [\"createBuffer\", \"buffer~\", \"L-\" + /value, /filename],\n/resultR = [\"createBuffer\", \"buffer~\", \"R-\" + /value, /filename]",
					"textcolor" : [ 0.0, 0.0, 0.0, 1.0 ]
				}

			}
, 			{
				"box" : 				{
					"id" : "obj-8",
					"maxclass" : "newobj",
					"numinlets" : 1,
					"numoutlets" : 2,
					"outlettype" : [ "", "" ],
					"patching_rect" : [ 207.0, 65.0, 106.0, 22.0 ],
					"style" : "",
					"text" : "o.listenumerate /a"
				}

			}
, 			{
				"box" : 				{
					"fontface" : 0,
					"fontsize" : 12.0,
					"id" : "obj-7",
					"maxclass" : "o.expr.codebox",
					"numinlets" : 1,
					"numoutlets" : 2,
					"outlettype" : [ "FullPacket", "FullPacket" ],
					"patching_rect" : [ 207.0, 23.0, 157.0, 32.0 ],
					"text" : "/a = aseq(0, 355, 5)",
					"textcolor" : [ 0.0, 0.0, 0.0, 1.0 ]
				}

			}
, 			{
				"box" : 				{
					"id" : "obj-1",
					"maxclass" : "newobj",
					"numinlets" : 1,
					"numoutlets" : 1,
					"outlettype" : [ "" ],
					"patching_rect" : [ 207.0, 231.0, 88.0, 22.0 ],
					"saved_object_attributes" : 					{
						"filename" : "createBuffer",
						"parameter_enable" : 0
					}
,
					"style" : "",
					"text" : "js createBuffer"
				}

			}
, 			{
				"box" : 				{
					"id" : "obj-2",
					"maxclass" : "newobj",
					"numinlets" : 1,
					"numoutlets" : 2,
					"outlettype" : [ "float", "bang" ],
					"patching_rect" : [ 16.0, 23.0, 143.0, 22.0 ],
					"style" : "",
					"text" : "buffer~ L-0 L0e000a.wav"
				}

			}
, 			{
				"box" : 				{
					"id" : "obj-3",
					"maxclass" : "newobj",
					"numinlets" : 1,
					"numoutlets" : 2,
					"outlettype" : [ "float", "bang" ],
					"patching_rect" : [ 16.0, 45.0, 144.0, 22.0 ],
					"style" : "",
					"text" : "buffer~ R-0 L0e000a.wav"
				}

			}
, 			{
				"box" : 				{
					"id" : "obj-4",
					"maxclass" : "newobj",
					"numinlets" : 1,
					"numoutlets" : 2,
					"outlettype" : [ "float", "bang" ],
					"patching_rect" : [ 16.0, 67.0, 142.0, 22.0 ],
					"style" : "",
					"text" : "buffer~ L-5 L0e005a.wav"
				}

			}
, 			{
				"box" : 				{
					"id" : "obj-5",
					"maxclass" : "newobj",
					"numinlets" : 1,
					"numoutlets" : 2,
					"outlettype" : [ "float", "bang" ],
					"patching_rect" : [ 16.0, 89.0, 144.0, 22.0 ],
					"style" : "",
					"text" : "buffer~ R-5 L0e005a.wav"
				}

			}
, 			{
				"box" : 				{
					"id" : "obj-6",
					"maxclass" : "newobj",
					"numinlets" : 1,
					"numoutlets" : 2,
					"outlettype" : [ "float", "bang" ],
					"patching_rect" : [ 16.0, 111.0, 148.0, 22.0 ],
					"style" : "",
					"text" : "buffer~ L-10 L0e010a.wav"
				}

			}
, 			{
				"box" : 				{
					"id" : "obj-9",
					"maxclass" : "newobj",
					"numinlets" : 1,
					"numoutlets" : 2,
					"outlettype" : [ "float", "bang" ],
					"patching_rect" : [ 16.0, 133.0, 150.0, 22.0 ],
					"style" : "",
					"text" : "buffer~ R-10 L0e010a.wav"
				}

			}
, 			{
				"box" : 				{
					"id" : "obj-11",
					"maxclass" : "newobj",
					"numinlets" : 1,
					"numoutlets" : 2,
					"outlettype" : [ "float", "bang" ],
					"patching_rect" : [ 16.0, 155.0, 148.0, 22.0 ],
					"style" : "",
					"text" : "buffer~ L-15 L0e015a.wav"
				}

			}
, 			{
				"box" : 				{
					"id" : "obj-13",
					"maxclass" : "newobj",
					"numinlets" : 1,
					"numoutlets" : 2,
					"outlettype" : [ "float", "bang" ],
					"patching_rect" : [ 16.0, 177.0, 150.0, 22.0 ],
					"style" : "",
					"text" : "buffer~ R-15 L0e015a.wav"
				}

			}
, 			{
				"box" : 				{
					"id" : "obj-14",
					"maxclass" : "newobj",
					"numinlets" : 1,
					"numoutlets" : 2,
					"outlettype" : [ "float", "bang" ],
					"patching_rect" : [ 16.0, 199.0, 148.0, 22.0 ],
					"style" : "",
					"text" : "buffer~ L-20 L0e020a.wav"
				}

			}
, 			{
				"box" : 				{
					"id" : "obj-15",
					"maxclass" : "newobj",
					"numinlets" : 1,
					"numoutlets" : 2,
					"outlettype" : [ "float", "bang" ],
					"patching_rect" : [ 16.0, 221.0, 150.0, 22.0 ],
					"style" : "",
					"text" : "buffer~ R-20 L0e020a.wav"
				}

			}
, 			{
				"box" : 				{
					"id" : "obj-16",
					"maxclass" : "newobj",
					"numinlets" : 1,
					"numoutlets" : 2,
					"outlettype" : [ "float", "bang" ],
					"patching_rect" : [ 16.0, 243.0, 148.0, 22.0 ],
					"style" : "",
					"text" : "buffer~ L-25 L0e025a.wav"
				}

			}
, 			{
				"box" : 				{
					"id" : "obj-17",
					"maxclass" : "newobj",
					"numinlets" : 1,
					"numoutlets" : 2,
					"outlettype" : [ "float", "bang" ],
					"patching_rect" : [ 16.0, 265.0, 150.0, 22.0 ],
					"style" : "",
					"text" : "buffer~ R-25 L0e025a.wav"
				}

			}
, 			{
				"box" : 				{
					"id" : "obj-18",
					"maxclass" : "newobj",
					"numinlets" : 1,
					"numoutlets" : 2,
					"outlettype" : [ "float", "bang" ],
					"patching_rect" : [ 16.0, 287.0, 148.0, 22.0 ],
					"style" : "",
					"text" : "buffer~ L-30 L0e030a.wav"
				}

			}
, 			{
				"box" : 				{
					"id" : "obj-19",
					"maxclass" : "newobj",
					"numinlets" : 1,
					"numoutlets" : 2,
					"outlettype" : [ "float", "bang" ],
					"patching_rect" : [ 16.0, 309.0, 150.0, 22.0 ],
					"style" : "",
					"text" : "buffer~ R-30 L0e030a.wav"
				}

			}
, 			{
				"box" : 				{
					"id" : "obj-20",
					"maxclass" : "newobj",
					"numinlets" : 1,
					"numoutlets" : 2,
					"outlettype" : [ "float", "bang" ],
					"patching_rect" : [ 16.0, 331.0, 148.0, 22.0 ],
					"style" : "",
					"text" : "buffer~ L-35 L0e035a.wav"
				}

			}
, 			{
				"box" : 				{
					"id" : "obj-21",
					"maxclass" : "newobj",
					"numinlets" : 1,
					"numoutlets" : 2,
					"outlettype" : [ "float", "bang" ],
					"patching_rect" : [ 16.0, 353.0, 150.0, 22.0 ],
					"style" : "",
					"text" : "buffer~ R-35 L0e035a.wav"
				}

			}
, 			{
				"box" : 				{
					"id" : "obj-22",
					"maxclass" : "newobj",
					"numinlets" : 1,
					"numoutlets" : 2,
					"outlettype" : [ "float", "bang" ],
					"patching_rect" : [ 16.0, 375.0, 148.0, 22.0 ],
					"style" : "",
					"text" : "buffer~ L-40 L0e040a.wav"
				}

			}
, 			{
				"box" : 				{
					"id" : "obj-23",
					"maxclass" : "newobj",
					"numinlets" : 1,
					"numoutlets" : 2,
					"outlettype" : [ "float", "bang" ],
					"patching_rect" : [ 16.0, 397.0, 150.0, 22.0 ],
					"style" : "",
					"text" : "buffer~ R-40 L0e040a.wav"
				}

			}
, 			{
				"box" : 				{
					"id" : "obj-24",
					"maxclass" : "newobj",
					"numinlets" : 1,
					"numoutlets" : 2,
					"outlettype" : [ "float", "bang" ],
					"patching_rect" : [ 16.0, 419.0, 148.0, 22.0 ],
					"style" : "",
					"text" : "buffer~ L-45 L0e045a.wav"
				}

			}
, 			{
				"box" : 				{
					"id" : "obj-25",
					"maxclass" : "newobj",
					"numinlets" : 1,
					"numoutlets" : 2,
					"outlettype" : [ "float", "bang" ],
					"patching_rect" : [ 16.0, 441.0, 150.0, 22.0 ],
					"style" : "",
					"text" : "buffer~ R-45 L0e045a.wav"
				}

			}
, 			{
				"box" : 				{
					"id" : "obj-26",
					"maxclass" : "newobj",
					"numinlets" : 1,
					"numoutlets" : 2,
					"outlettype" : [ "float", "bang" ],
					"patching_rect" : [ 16.0, 463.0, 148.0, 22.0 ],
					"style" : "",
					"text" : "buffer~ L-50 L0e050a.wav"
				}

			}
, 			{
				"box" : 				{
					"id" : "obj-27",
					"maxclass" : "newobj",
					"numinlets" : 1,
					"numoutlets" : 2,
					"outlettype" : [ "float", "bang" ],
					"patching_rect" : [ 16.0, 485.0, 150.0, 22.0 ],
					"style" : "",
					"text" : "buffer~ R-50 L0e050a.wav"
				}

			}
, 			{
				"box" : 				{
					"id" : "obj-28",
					"maxclass" : "newobj",
					"numinlets" : 1,
					"numoutlets" : 2,
					"outlettype" : [ "float", "bang" ],
					"patching_rect" : [ 16.0, 507.0, 148.0, 22.0 ],
					"style" : "",
					"text" : "buffer~ L-55 L0e055a.wav"
				}

			}
, 			{
				"box" : 				{
					"id" : "obj-29",
					"maxclass" : "newobj",
					"numinlets" : 1,
					"numoutlets" : 2,
					"outlettype" : [ "float", "bang" ],
					"patching_rect" : [ 16.0, 529.0, 150.0, 22.0 ],
					"style" : "",
					"text" : "buffer~ R-55 L0e055a.wav"
				}

			}
, 			{
				"box" : 				{
					"id" : "obj-30",
					"maxclass" : "newobj",
					"numinlets" : 1,
					"numoutlets" : 2,
					"outlettype" : [ "float", "bang" ],
					"patching_rect" : [ 16.0, 551.0, 148.0, 22.0 ],
					"style" : "",
					"text" : "buffer~ L-60 L0e060a.wav"
				}

			}
, 			{
				"box" : 				{
					"id" : "obj-31",
					"maxclass" : "newobj",
					"numinlets" : 1,
					"numoutlets" : 2,
					"outlettype" : [ "float", "bang" ],
					"patching_rect" : [ 16.0, 573.0, 150.0, 22.0 ],
					"style" : "",
					"text" : "buffer~ R-60 L0e060a.wav"
				}

			}
, 			{
				"box" : 				{
					"id" : "obj-32",
					"maxclass" : "newobj",
					"numinlets" : 1,
					"numoutlets" : 2,
					"outlettype" : [ "float", "bang" ],
					"patching_rect" : [ 16.0, 595.0, 148.0, 22.0 ],
					"style" : "",
					"text" : "buffer~ L-65 L0e065a.wav"
				}

			}
, 			{
				"box" : 				{
					"id" : "obj-33",
					"maxclass" : "newobj",
					"numinlets" : 1,
					"numoutlets" : 2,
					"outlettype" : [ "float", "bang" ],
					"patching_rect" : [ 16.0, 617.0, 150.0, 22.0 ],
					"style" : "",
					"text" : "buffer~ R-65 L0e065a.wav"
				}

			}
, 			{
				"box" : 				{
					"id" : "obj-34",
					"maxclass" : "newobj",
					"numinlets" : 1,
					"numoutlets" : 2,
					"outlettype" : [ "float", "bang" ],
					"patching_rect" : [ 16.0, 639.0, 148.0, 22.0 ],
					"style" : "",
					"text" : "buffer~ L-70 L0e070a.wav"
				}

			}
, 			{
				"box" : 				{
					"id" : "obj-35",
					"maxclass" : "newobj",
					"numinlets" : 1,
					"numoutlets" : 2,
					"outlettype" : [ "float", "bang" ],
					"patching_rect" : [ 16.0, 661.0, 150.0, 22.0 ],
					"style" : "",
					"text" : "buffer~ R-70 L0e070a.wav"
				}

			}
, 			{
				"box" : 				{
					"id" : "obj-36",
					"maxclass" : "newobj",
					"numinlets" : 1,
					"numoutlets" : 2,
					"outlettype" : [ "float", "bang" ],
					"patching_rect" : [ 16.0, 683.0, 148.0, 22.0 ],
					"style" : "",
					"text" : "buffer~ L-75 L0e075a.wav"
				}

			}
, 			{
				"box" : 				{
					"id" : "obj-37",
					"maxclass" : "newobj",
					"numinlets" : 1,
					"numoutlets" : 2,
					"outlettype" : [ "float", "bang" ],
					"patching_rect" : [ 16.0, 705.0, 150.0, 22.0 ],
					"style" : "",
					"text" : "buffer~ R-75 L0e075a.wav"
				}

			}
, 			{
				"box" : 				{
					"id" : "obj-38",
					"maxclass" : "newobj",
					"numinlets" : 1,
					"numoutlets" : 2,
					"outlettype" : [ "float", "bang" ],
					"patching_rect" : [ 16.0, 727.0, 148.0, 22.0 ],
					"style" : "",
					"text" : "buffer~ L-80 L0e080a.wav"
				}

			}
, 			{
				"box" : 				{
					"id" : "obj-39",
					"maxclass" : "newobj",
					"numinlets" : 1,
					"numoutlets" : 2,
					"outlettype" : [ "float", "bang" ],
					"patching_rect" : [ 16.0, 749.0, 150.0, 22.0 ],
					"style" : "",
					"text" : "buffer~ R-80 L0e080a.wav"
				}

			}
, 			{
				"box" : 				{
					"id" : "obj-40",
					"maxclass" : "newobj",
					"numinlets" : 1,
					"numoutlets" : 2,
					"outlettype" : [ "float", "bang" ],
					"patching_rect" : [ 16.0, 771.0, 148.0, 22.0 ],
					"style" : "",
					"text" : "buffer~ L-85 L0e085a.wav"
				}

			}
, 			{
				"box" : 				{
					"id" : "obj-41",
					"maxclass" : "newobj",
					"numinlets" : 1,
					"numoutlets" : 2,
					"outlettype" : [ "float", "bang" ],
					"patching_rect" : [ 16.0, 793.0, 150.0, 22.0 ],
					"style" : "",
					"text" : "buffer~ R-85 L0e085a.wav"
				}

			}
, 			{
				"box" : 				{
					"id" : "obj-42",
					"maxclass" : "newobj",
					"numinlets" : 1,
					"numoutlets" : 2,
					"outlettype" : [ "float", "bang" ],
					"patching_rect" : [ 16.0, 815.0, 148.0, 22.0 ],
					"style" : "",
					"text" : "buffer~ L-90 L0e090a.wav"
				}

			}
, 			{
				"box" : 				{
					"id" : "obj-43",
					"maxclass" : "newobj",
					"numinlets" : 1,
					"numoutlets" : 2,
					"outlettype" : [ "float", "bang" ],
					"patching_rect" : [ 16.0, 837.0, 150.0, 22.0 ],
					"style" : "",
					"text" : "buffer~ R-90 L0e090a.wav"
				}

			}
, 			{
				"box" : 				{
					"id" : "obj-44",
					"maxclass" : "newobj",
					"numinlets" : 1,
					"numoutlets" : 2,
					"outlettype" : [ "float", "bang" ],
					"patching_rect" : [ 16.0, 859.0, 148.0, 22.0 ],
					"style" : "",
					"text" : "buffer~ L-95 L0e095a.wav"
				}

			}
, 			{
				"box" : 				{
					"id" : "obj-45",
					"maxclass" : "newobj",
					"numinlets" : 1,
					"numoutlets" : 2,
					"outlettype" : [ "float", "bang" ],
					"patching_rect" : [ 16.0, 881.0, 150.0, 22.0 ],
					"style" : "",
					"text" : "buffer~ R-95 L0e095a.wav"
				}

			}
, 			{
				"box" : 				{
					"id" : "obj-46",
					"maxclass" : "newobj",
					"numinlets" : 1,
					"numoutlets" : 2,
					"outlettype" : [ "float", "bang" ],
					"patching_rect" : [ 16.0, 903.0, 156.0, 22.0 ],
					"style" : "",
					"text" : "buffer~ L-100 L0e100a.wav"
				}

			}
, 			{
				"box" : 				{
					"id" : "obj-47",
					"maxclass" : "newobj",
					"numinlets" : 1,
					"numoutlets" : 2,
					"outlettype" : [ "float", "bang" ],
					"patching_rect" : [ 16.0, 925.0, 158.0, 22.0 ],
					"style" : "",
					"text" : "buffer~ R-100 L0e100a.wav"
				}

			}
, 			{
				"box" : 				{
					"id" : "obj-48",
					"maxclass" : "newobj",
					"numinlets" : 1,
					"numoutlets" : 2,
					"outlettype" : [ "float", "bang" ],
					"patching_rect" : [ 16.0, 947.0, 156.0, 22.0 ],
					"style" : "",
					"text" : "buffer~ L-105 L0e105a.wav"
				}

			}
, 			{
				"box" : 				{
					"id" : "obj-49",
					"maxclass" : "newobj",
					"numinlets" : 1,
					"numoutlets" : 2,
					"outlettype" : [ "float", "bang" ],
					"patching_rect" : [ 16.0, 969.0, 158.0, 22.0 ],
					"style" : "",
					"text" : "buffer~ R-105 L0e105a.wav"
				}

			}
, 			{
				"box" : 				{
					"id" : "obj-50",
					"maxclass" : "newobj",
					"numinlets" : 1,
					"numoutlets" : 2,
					"outlettype" : [ "float", "bang" ],
					"patching_rect" : [ 16.0, 991.0, 154.0, 22.0 ],
					"style" : "",
					"text" : "buffer~ L-110 L0e110a.wav"
				}

			}
, 			{
				"box" : 				{
					"id" : "obj-51",
					"maxclass" : "newobj",
					"numinlets" : 1,
					"numoutlets" : 2,
					"outlettype" : [ "float", "bang" ],
					"patching_rect" : [ 16.0, 1013.0, 156.0, 22.0 ],
					"style" : "",
					"text" : "buffer~ R-110 L0e110a.wav"
				}

			}
, 			{
				"box" : 				{
					"id" : "obj-52",
					"maxclass" : "newobj",
					"numinlets" : 1,
					"numoutlets" : 2,
					"outlettype" : [ "float", "bang" ],
					"patching_rect" : [ 16.0, 1035.0, 154.0, 22.0 ],
					"style" : "",
					"text" : "buffer~ L-115 L0e115a.wav"
				}

			}
, 			{
				"box" : 				{
					"id" : "obj-53",
					"maxclass" : "newobj",
					"numinlets" : 1,
					"numoutlets" : 2,
					"outlettype" : [ "float", "bang" ],
					"patching_rect" : [ 16.0, 1057.0, 156.0, 22.0 ],
					"style" : "",
					"text" : "buffer~ R-115 L0e115a.wav"
				}

			}
, 			{
				"box" : 				{
					"id" : "obj-54",
					"maxclass" : "newobj",
					"numinlets" : 1,
					"numoutlets" : 2,
					"outlettype" : [ "float", "bang" ],
					"patching_rect" : [ 16.0, 1079.0, 156.0, 22.0 ],
					"style" : "",
					"text" : "buffer~ L-120 L0e120a.wav"
				}

			}
, 			{
				"box" : 				{
					"id" : "obj-55",
					"maxclass" : "newobj",
					"numinlets" : 1,
					"numoutlets" : 2,
					"outlettype" : [ "float", "bang" ],
					"patching_rect" : [ 16.0, 1101.0, 158.0, 22.0 ],
					"style" : "",
					"text" : "buffer~ R-120 L0e120a.wav"
				}

			}
, 			{
				"box" : 				{
					"id" : "obj-56",
					"maxclass" : "newobj",
					"numinlets" : 1,
					"numoutlets" : 2,
					"outlettype" : [ "float", "bang" ],
					"patching_rect" : [ 16.0, 1123.0, 156.0, 22.0 ],
					"style" : "",
					"text" : "buffer~ L-125 L0e125a.wav"
				}

			}
, 			{
				"box" : 				{
					"id" : "obj-57",
					"maxclass" : "newobj",
					"numinlets" : 1,
					"numoutlets" : 2,
					"outlettype" : [ "float", "bang" ],
					"patching_rect" : [ 16.0, 1145.0, 158.0, 22.0 ],
					"style" : "",
					"text" : "buffer~ R-125 L0e125a.wav"
				}

			}
, 			{
				"box" : 				{
					"id" : "obj-58",
					"maxclass" : "newobj",
					"numinlets" : 1,
					"numoutlets" : 2,
					"outlettype" : [ "float", "bang" ],
					"patching_rect" : [ 16.0, 1167.0, 156.0, 22.0 ],
					"style" : "",
					"text" : "buffer~ L-130 L0e130a.wav"
				}

			}
, 			{
				"box" : 				{
					"id" : "obj-59",
					"maxclass" : "newobj",
					"numinlets" : 1,
					"numoutlets" : 2,
					"outlettype" : [ "float", "bang" ],
					"patching_rect" : [ 16.0, 1189.0, 158.0, 22.0 ],
					"style" : "",
					"text" : "buffer~ R-130 L0e130a.wav"
				}

			}
, 			{
				"box" : 				{
					"id" : "obj-60",
					"maxclass" : "newobj",
					"numinlets" : 1,
					"numoutlets" : 2,
					"outlettype" : [ "float", "bang" ],
					"patching_rect" : [ 16.0, 1211.0, 156.0, 22.0 ],
					"style" : "",
					"text" : "buffer~ L-135 L0e135a.wav"
				}

			}
, 			{
				"box" : 				{
					"id" : "obj-61",
					"maxclass" : "newobj",
					"numinlets" : 1,
					"numoutlets" : 2,
					"outlettype" : [ "float", "bang" ],
					"patching_rect" : [ 16.0, 1233.0, 158.0, 22.0 ],
					"style" : "",
					"text" : "buffer~ R-135 L0e135a.wav"
				}

			}
, 			{
				"box" : 				{
					"id" : "obj-62",
					"maxclass" : "newobj",
					"numinlets" : 1,
					"numoutlets" : 2,
					"outlettype" : [ "float", "bang" ],
					"patching_rect" : [ 16.0, 1255.0, 156.0, 22.0 ],
					"style" : "",
					"text" : "buffer~ L-140 L0e140a.wav"
				}

			}
, 			{
				"box" : 				{
					"id" : "obj-63",
					"maxclass" : "newobj",
					"numinlets" : 1,
					"numoutlets" : 2,
					"outlettype" : [ "float", "bang" ],
					"patching_rect" : [ 16.0, 1277.0, 158.0, 22.0 ],
					"style" : "",
					"text" : "buffer~ R-140 L0e140a.wav"
				}

			}
, 			{
				"box" : 				{
					"id" : "obj-64",
					"maxclass" : "newobj",
					"numinlets" : 1,
					"numoutlets" : 2,
					"outlettype" : [ "float", "bang" ],
					"patching_rect" : [ 16.0, 1299.0, 156.0, 22.0 ],
					"style" : "",
					"text" : "buffer~ L-145 L0e145a.wav"
				}

			}
, 			{
				"box" : 				{
					"id" : "obj-65",
					"maxclass" : "newobj",
					"numinlets" : 1,
					"numoutlets" : 2,
					"outlettype" : [ "float", "bang" ],
					"patching_rect" : [ 16.0, 1321.0, 158.0, 22.0 ],
					"style" : "",
					"text" : "buffer~ R-145 L0e145a.wav"
				}

			}
, 			{
				"box" : 				{
					"id" : "obj-66",
					"maxclass" : "newobj",
					"numinlets" : 1,
					"numoutlets" : 2,
					"outlettype" : [ "float", "bang" ],
					"patching_rect" : [ 16.0, 1343.0, 156.0, 22.0 ],
					"style" : "",
					"text" : "buffer~ L-150 L0e150a.wav"
				}

			}
, 			{
				"box" : 				{
					"id" : "obj-67",
					"maxclass" : "newobj",
					"numinlets" : 1,
					"numoutlets" : 2,
					"outlettype" : [ "float", "bang" ],
					"patching_rect" : [ 16.0, 1365.0, 158.0, 22.0 ],
					"style" : "",
					"text" : "buffer~ R-150 L0e150a.wav"
				}

			}
, 			{
				"box" : 				{
					"id" : "obj-68",
					"maxclass" : "newobj",
					"numinlets" : 1,
					"numoutlets" : 2,
					"outlettype" : [ "float", "bang" ],
					"patching_rect" : [ 16.0, 1387.0, 156.0, 22.0 ],
					"style" : "",
					"text" : "buffer~ L-155 L0e155a.wav"
				}

			}
, 			{
				"box" : 				{
					"id" : "obj-69",
					"maxclass" : "newobj",
					"numinlets" : 1,
					"numoutlets" : 2,
					"outlettype" : [ "float", "bang" ],
					"patching_rect" : [ 16.0, 1409.0, 158.0, 22.0 ],
					"style" : "",
					"text" : "buffer~ R-155 L0e155a.wav"
				}

			}
, 			{
				"box" : 				{
					"id" : "obj-70",
					"maxclass" : "newobj",
					"numinlets" : 1,
					"numoutlets" : 2,
					"outlettype" : [ "float", "bang" ],
					"patching_rect" : [ 16.0, 1431.0, 156.0, 22.0 ],
					"style" : "",
					"text" : "buffer~ L-160 L0e160a.wav"
				}

			}
, 			{
				"box" : 				{
					"id" : "obj-71",
					"maxclass" : "newobj",
					"numinlets" : 1,
					"numoutlets" : 2,
					"outlettype" : [ "float", "bang" ],
					"patching_rect" : [ 16.0, 1453.0, 158.0, 22.0 ],
					"style" : "",
					"text" : "buffer~ R-160 L0e160a.wav"
				}

			}
, 			{
				"box" : 				{
					"id" : "obj-72",
					"maxclass" : "newobj",
					"numinlets" : 1,
					"numoutlets" : 2,
					"outlettype" : [ "float", "bang" ],
					"patching_rect" : [ 16.0, 1475.0, 156.0, 22.0 ],
					"style" : "",
					"text" : "buffer~ L-165 L0e165a.wav"
				}

			}
, 			{
				"box" : 				{
					"id" : "obj-73",
					"maxclass" : "newobj",
					"numinlets" : 1,
					"numoutlets" : 2,
					"outlettype" : [ "float", "bang" ],
					"patching_rect" : [ 16.0, 1497.0, 158.0, 22.0 ],
					"style" : "",
					"text" : "buffer~ R-165 L0e165a.wav"
				}

			}
, 			{
				"box" : 				{
					"id" : "obj-74",
					"maxclass" : "newobj",
					"numinlets" : 1,
					"numoutlets" : 2,
					"outlettype" : [ "float", "bang" ],
					"patching_rect" : [ 16.0, 1519.0, 156.0, 22.0 ],
					"style" : "",
					"text" : "buffer~ L-170 L0e170a.wav"
				}

			}
, 			{
				"box" : 				{
					"id" : "obj-75",
					"maxclass" : "newobj",
					"numinlets" : 1,
					"numoutlets" : 2,
					"outlettype" : [ "float", "bang" ],
					"patching_rect" : [ 16.0, 1541.0, 158.0, 22.0 ],
					"style" : "",
					"text" : "buffer~ R-170 L0e170a.wav"
				}

			}
, 			{
				"box" : 				{
					"id" : "obj-76",
					"maxclass" : "newobj",
					"numinlets" : 1,
					"numoutlets" : 2,
					"outlettype" : [ "float", "bang" ],
					"patching_rect" : [ 16.0, 1563.0, 156.0, 22.0 ],
					"style" : "",
					"text" : "buffer~ L-175 L0e175a.wav"
				}

			}
, 			{
				"box" : 				{
					"id" : "obj-77",
					"maxclass" : "newobj",
					"numinlets" : 1,
					"numoutlets" : 2,
					"outlettype" : [ "float", "bang" ],
					"patching_rect" : [ 16.0, 1585.0, 158.0, 22.0 ],
					"style" : "",
					"text" : "buffer~ R-175 L0e175a.wav"
				}

			}
, 			{
				"box" : 				{
					"id" : "obj-78",
					"maxclass" : "newobj",
					"numinlets" : 1,
					"numoutlets" : 2,
					"outlettype" : [ "float", "bang" ],
					"patching_rect" : [ 16.0, 1607.0, 156.0, 22.0 ],
					"style" : "",
					"text" : "buffer~ L-180 L0e180a.wav"
				}

			}
, 			{
				"box" : 				{
					"id" : "obj-79",
					"maxclass" : "newobj",
					"numinlets" : 1,
					"numoutlets" : 2,
					"outlettype" : [ "float", "bang" ],
					"patching_rect" : [ 16.0, 1629.0, 158.0, 22.0 ],
					"style" : "",
					"text" : "buffer~ R-180 L0e180a.wav"
				}

			}
, 			{
				"box" : 				{
					"id" : "obj-80",
					"maxclass" : "newobj",
					"numinlets" : 1,
					"numoutlets" : 2,
					"outlettype" : [ "float", "bang" ],
					"patching_rect" : [ 16.0, 1651.0, 156.0, 22.0 ],
					"style" : "",
					"text" : "buffer~ L-185 L0e185a.wav"
				}

			}
, 			{
				"box" : 				{
					"id" : "obj-81",
					"maxclass" : "newobj",
					"numinlets" : 1,
					"numoutlets" : 2,
					"outlettype" : [ "float", "bang" ],
					"patching_rect" : [ 16.0, 1673.0, 158.0, 22.0 ],
					"style" : "",
					"text" : "buffer~ R-185 L0e185a.wav"
				}

			}
, 			{
				"box" : 				{
					"id" : "obj-82",
					"maxclass" : "newobj",
					"numinlets" : 1,
					"numoutlets" : 2,
					"outlettype" : [ "float", "bang" ],
					"patching_rect" : [ 16.0, 1695.0, 156.0, 22.0 ],
					"style" : "",
					"text" : "buffer~ L-190 L0e190a.wav"
				}

			}
, 			{
				"box" : 				{
					"id" : "obj-83",
					"maxclass" : "newobj",
					"numinlets" : 1,
					"numoutlets" : 2,
					"outlettype" : [ "float", "bang" ],
					"patching_rect" : [ 16.0, 1717.0, 158.0, 22.0 ],
					"style" : "",
					"text" : "buffer~ R-190 L0e190a.wav"
				}

			}
, 			{
				"box" : 				{
					"id" : "obj-84",
					"maxclass" : "newobj",
					"numinlets" : 1,
					"numoutlets" : 2,
					"outlettype" : [ "float", "bang" ],
					"patching_rect" : [ 16.0, 1739.0, 156.0, 22.0 ],
					"style" : "",
					"text" : "buffer~ L-195 L0e195a.wav"
				}

			}
, 			{
				"box" : 				{
					"id" : "obj-85",
					"maxclass" : "newobj",
					"numinlets" : 1,
					"numoutlets" : 2,
					"outlettype" : [ "float", "bang" ],
					"patching_rect" : [ 16.0, 1761.0, 158.0, 22.0 ],
					"style" : "",
					"text" : "buffer~ R-195 L0e195a.wav"
				}

			}
, 			{
				"box" : 				{
					"id" : "obj-86",
					"maxclass" : "newobj",
					"numinlets" : 1,
					"numoutlets" : 2,
					"outlettype" : [ "float", "bang" ],
					"patching_rect" : [ 16.0, 1783.0, 156.0, 22.0 ],
					"style" : "",
					"text" : "buffer~ L-200 L0e200a.wav"
				}

			}
, 			{
				"box" : 				{
					"id" : "obj-87",
					"maxclass" : "newobj",
					"numinlets" : 1,
					"numoutlets" : 2,
					"outlettype" : [ "float", "bang" ],
					"patching_rect" : [ 16.0, 1805.0, 158.0, 22.0 ],
					"style" : "",
					"text" : "buffer~ R-200 L0e200a.wav"
				}

			}
, 			{
				"box" : 				{
					"id" : "obj-88",
					"maxclass" : "newobj",
					"numinlets" : 1,
					"numoutlets" : 2,
					"outlettype" : [ "float", "bang" ],
					"patching_rect" : [ 16.0, 1827.0, 156.0, 22.0 ],
					"style" : "",
					"text" : "buffer~ L-205 L0e205a.wav"
				}

			}
, 			{
				"box" : 				{
					"id" : "obj-89",
					"maxclass" : "newobj",
					"numinlets" : 1,
					"numoutlets" : 2,
					"outlettype" : [ "float", "bang" ],
					"patching_rect" : [ 16.0, 1849.0, 158.0, 22.0 ],
					"style" : "",
					"text" : "buffer~ R-205 L0e205a.wav"
				}

			}
, 			{
				"box" : 				{
					"id" : "obj-90",
					"maxclass" : "newobj",
					"numinlets" : 1,
					"numoutlets" : 2,
					"outlettype" : [ "float", "bang" ],
					"patching_rect" : [ 16.0, 1871.0, 156.0, 22.0 ],
					"style" : "",
					"text" : "buffer~ L-210 L0e210a.wav"
				}

			}
, 			{
				"box" : 				{
					"id" : "obj-91",
					"maxclass" : "newobj",
					"numinlets" : 1,
					"numoutlets" : 2,
					"outlettype" : [ "float", "bang" ],
					"patching_rect" : [ 16.0, 1893.0, 158.0, 22.0 ],
					"style" : "",
					"text" : "buffer~ R-210 L0e210a.wav"
				}

			}
, 			{
				"box" : 				{
					"id" : "obj-92",
					"maxclass" : "newobj",
					"numinlets" : 1,
					"numoutlets" : 2,
					"outlettype" : [ "float", "bang" ],
					"patching_rect" : [ 16.0, 1915.0, 156.0, 22.0 ],
					"style" : "",
					"text" : "buffer~ L-215 L0e215a.wav"
				}

			}
, 			{
				"box" : 				{
					"id" : "obj-93",
					"maxclass" : "newobj",
					"numinlets" : 1,
					"numoutlets" : 2,
					"outlettype" : [ "float", "bang" ],
					"patching_rect" : [ 16.0, 1937.0, 158.0, 22.0 ],
					"style" : "",
					"text" : "buffer~ R-215 L0e215a.wav"
				}

			}
, 			{
				"box" : 				{
					"id" : "obj-94",
					"maxclass" : "newobj",
					"numinlets" : 1,
					"numoutlets" : 2,
					"outlettype" : [ "float", "bang" ],
					"patching_rect" : [ 16.0, 1959.0, 156.0, 22.0 ],
					"style" : "",
					"text" : "buffer~ L-220 L0e220a.wav"
				}

			}
, 			{
				"box" : 				{
					"id" : "obj-95",
					"maxclass" : "newobj",
					"numinlets" : 1,
					"numoutlets" : 2,
					"outlettype" : [ "float", "bang" ],
					"patching_rect" : [ 16.0, 1981.0, 158.0, 22.0 ],
					"style" : "",
					"text" : "buffer~ R-220 L0e220a.wav"
				}

			}
, 			{
				"box" : 				{
					"id" : "obj-96",
					"maxclass" : "newobj",
					"numinlets" : 1,
					"numoutlets" : 2,
					"outlettype" : [ "float", "bang" ],
					"patching_rect" : [ 16.0, 2003.0, 156.0, 22.0 ],
					"style" : "",
					"text" : "buffer~ L-225 L0e225a.wav"
				}

			}
, 			{
				"box" : 				{
					"id" : "obj-97",
					"maxclass" : "newobj",
					"numinlets" : 1,
					"numoutlets" : 2,
					"outlettype" : [ "float", "bang" ],
					"patching_rect" : [ 16.0, 2025.0, 158.0, 22.0 ],
					"style" : "",
					"text" : "buffer~ R-225 L0e225a.wav"
				}

			}
, 			{
				"box" : 				{
					"id" : "obj-98",
					"maxclass" : "newobj",
					"numinlets" : 1,
					"numoutlets" : 2,
					"outlettype" : [ "float", "bang" ],
					"patching_rect" : [ 16.0, 2047.0, 156.0, 22.0 ],
					"style" : "",
					"text" : "buffer~ L-230 L0e230a.wav"
				}

			}
, 			{
				"box" : 				{
					"id" : "obj-99",
					"maxclass" : "newobj",
					"numinlets" : 1,
					"numoutlets" : 2,
					"outlettype" : [ "float", "bang" ],
					"patching_rect" : [ 16.0, 2069.0, 158.0, 22.0 ],
					"style" : "",
					"text" : "buffer~ R-230 L0e230a.wav"
				}

			}
, 			{
				"box" : 				{
					"id" : "obj-100",
					"maxclass" : "newobj",
					"numinlets" : 1,
					"numoutlets" : 2,
					"outlettype" : [ "float", "bang" ],
					"patching_rect" : [ 16.0, 2091.0, 156.0, 22.0 ],
					"style" : "",
					"text" : "buffer~ L-235 L0e235a.wav"
				}

			}
, 			{
				"box" : 				{
					"id" : "obj-101",
					"maxclass" : "newobj",
					"numinlets" : 1,
					"numoutlets" : 2,
					"outlettype" : [ "float", "bang" ],
					"patching_rect" : [ 16.0, 2113.0, 158.0, 22.0 ],
					"style" : "",
					"text" : "buffer~ R-235 L0e235a.wav"
				}

			}
, 			{
				"box" : 				{
					"id" : "obj-102",
					"maxclass" : "newobj",
					"numinlets" : 1,
					"numoutlets" : 2,
					"outlettype" : [ "float", "bang" ],
					"patching_rect" : [ 16.0, 2135.0, 156.0, 22.0 ],
					"style" : "",
					"text" : "buffer~ L-240 L0e240a.wav"
				}

			}
, 			{
				"box" : 				{
					"id" : "obj-103",
					"maxclass" : "newobj",
					"numinlets" : 1,
					"numoutlets" : 2,
					"outlettype" : [ "float", "bang" ],
					"patching_rect" : [ 16.0, 2157.0, 158.0, 22.0 ],
					"style" : "",
					"text" : "buffer~ R-240 L0e240a.wav"
				}

			}
, 			{
				"box" : 				{
					"id" : "obj-104",
					"maxclass" : "newobj",
					"numinlets" : 1,
					"numoutlets" : 2,
					"outlettype" : [ "float", "bang" ],
					"patching_rect" : [ 16.0, 2179.0, 156.0, 22.0 ],
					"style" : "",
					"text" : "buffer~ L-245 L0e245a.wav"
				}

			}
, 			{
				"box" : 				{
					"id" : "obj-105",
					"maxclass" : "newobj",
					"numinlets" : 1,
					"numoutlets" : 2,
					"outlettype" : [ "float", "bang" ],
					"patching_rect" : [ 16.0, 2201.0, 158.0, 22.0 ],
					"style" : "",
					"text" : "buffer~ R-245 L0e245a.wav"
				}

			}
, 			{
				"box" : 				{
					"id" : "obj-106",
					"maxclass" : "newobj",
					"numinlets" : 1,
					"numoutlets" : 2,
					"outlettype" : [ "float", "bang" ],
					"patching_rect" : [ 16.0, 2223.0, 156.0, 22.0 ],
					"style" : "",
					"text" : "buffer~ L-250 L0e250a.wav"
				}

			}
, 			{
				"box" : 				{
					"id" : "obj-107",
					"maxclass" : "newobj",
					"numinlets" : 1,
					"numoutlets" : 2,
					"outlettype" : [ "float", "bang" ],
					"patching_rect" : [ 16.0, 2245.0, 158.0, 22.0 ],
					"style" : "",
					"text" : "buffer~ R-250 L0e250a.wav"
				}

			}
, 			{
				"box" : 				{
					"id" : "obj-108",
					"maxclass" : "newobj",
					"numinlets" : 1,
					"numoutlets" : 2,
					"outlettype" : [ "float", "bang" ],
					"patching_rect" : [ 16.0, 2267.0, 156.0, 22.0 ],
					"style" : "",
					"text" : "buffer~ L-255 L0e255a.wav"
				}

			}
, 			{
				"box" : 				{
					"id" : "obj-109",
					"maxclass" : "newobj",
					"numinlets" : 1,
					"numoutlets" : 2,
					"outlettype" : [ "float", "bang" ],
					"patching_rect" : [ 16.0, 2289.0, 158.0, 22.0 ],
					"style" : "",
					"text" : "buffer~ R-255 L0e255a.wav"
				}

			}
, 			{
				"box" : 				{
					"id" : "obj-110",
					"maxclass" : "newobj",
					"numinlets" : 1,
					"numoutlets" : 2,
					"outlettype" : [ "float", "bang" ],
					"patching_rect" : [ 16.0, 2311.0, 156.0, 22.0 ],
					"style" : "",
					"text" : "buffer~ L-260 L0e260a.wav"
				}

			}
, 			{
				"box" : 				{
					"id" : "obj-111",
					"maxclass" : "newobj",
					"numinlets" : 1,
					"numoutlets" : 2,
					"outlettype" : [ "float", "bang" ],
					"patching_rect" : [ 16.0, 2333.0, 158.0, 22.0 ],
					"style" : "",
					"text" : "buffer~ R-260 L0e260a.wav"
				}

			}
, 			{
				"box" : 				{
					"id" : "obj-112",
					"maxclass" : "newobj",
					"numinlets" : 1,
					"numoutlets" : 2,
					"outlettype" : [ "float", "bang" ],
					"patching_rect" : [ 16.0, 2355.0, 156.0, 22.0 ],
					"style" : "",
					"text" : "buffer~ L-265 L0e265a.wav"
				}

			}
, 			{
				"box" : 				{
					"id" : "obj-113",
					"maxclass" : "newobj",
					"numinlets" : 1,
					"numoutlets" : 2,
					"outlettype" : [ "float", "bang" ],
					"patching_rect" : [ 16.0, 2377.0, 158.0, 22.0 ],
					"style" : "",
					"text" : "buffer~ R-265 L0e265a.wav"
				}

			}
, 			{
				"box" : 				{
					"id" : "obj-114",
					"maxclass" : "newobj",
					"numinlets" : 1,
					"numoutlets" : 2,
					"outlettype" : [ "float", "bang" ],
					"patching_rect" : [ 16.0, 2399.0, 156.0, 22.0 ],
					"style" : "",
					"text" : "buffer~ L-270 L0e270a.wav"
				}

			}
, 			{
				"box" : 				{
					"id" : "obj-115",
					"maxclass" : "newobj",
					"numinlets" : 1,
					"numoutlets" : 2,
					"outlettype" : [ "float", "bang" ],
					"patching_rect" : [ 16.0, 2421.0, 158.0, 22.0 ],
					"style" : "",
					"text" : "buffer~ R-270 L0e270a.wav"
				}

			}
, 			{
				"box" : 				{
					"id" : "obj-116",
					"maxclass" : "newobj",
					"numinlets" : 1,
					"numoutlets" : 2,
					"outlettype" : [ "float", "bang" ],
					"patching_rect" : [ 16.0, 2443.0, 156.0, 22.0 ],
					"style" : "",
					"text" : "buffer~ L-275 L0e275a.wav"
				}

			}
, 			{
				"box" : 				{
					"id" : "obj-117",
					"maxclass" : "newobj",
					"numinlets" : 1,
					"numoutlets" : 2,
					"outlettype" : [ "float", "bang" ],
					"patching_rect" : [ 16.0, 2465.0, 158.0, 22.0 ],
					"style" : "",
					"text" : "buffer~ R-275 L0e275a.wav"
				}

			}
, 			{
				"box" : 				{
					"id" : "obj-118",
					"maxclass" : "newobj",
					"numinlets" : 1,
					"numoutlets" : 2,
					"outlettype" : [ "float", "bang" ],
					"patching_rect" : [ 16.0, 2487.0, 156.0, 22.0 ],
					"style" : "",
					"text" : "buffer~ L-280 L0e280a.wav"
				}

			}
, 			{
				"box" : 				{
					"id" : "obj-119",
					"maxclass" : "newobj",
					"numinlets" : 1,
					"numoutlets" : 2,
					"outlettype" : [ "float", "bang" ],
					"patching_rect" : [ 16.0, 2509.0, 158.0, 22.0 ],
					"style" : "",
					"text" : "buffer~ R-280 L0e280a.wav"
				}

			}
, 			{
				"box" : 				{
					"id" : "obj-120",
					"maxclass" : "newobj",
					"numinlets" : 1,
					"numoutlets" : 2,
					"outlettype" : [ "float", "bang" ],
					"patching_rect" : [ 16.0, 2531.0, 156.0, 22.0 ],
					"style" : "",
					"text" : "buffer~ L-285 L0e285a.wav"
				}

			}
, 			{
				"box" : 				{
					"id" : "obj-121",
					"maxclass" : "newobj",
					"numinlets" : 1,
					"numoutlets" : 2,
					"outlettype" : [ "float", "bang" ],
					"patching_rect" : [ 16.0, 2553.0, 158.0, 22.0 ],
					"style" : "",
					"text" : "buffer~ R-285 L0e285a.wav"
				}

			}
, 			{
				"box" : 				{
					"id" : "obj-122",
					"maxclass" : "newobj",
					"numinlets" : 1,
					"numoutlets" : 2,
					"outlettype" : [ "float", "bang" ],
					"patching_rect" : [ 16.0, 2575.0, 156.0, 22.0 ],
					"style" : "",
					"text" : "buffer~ L-290 L0e290a.wav"
				}

			}
, 			{
				"box" : 				{
					"id" : "obj-123",
					"maxclass" : "newobj",
					"numinlets" : 1,
					"numoutlets" : 2,
					"outlettype" : [ "float", "bang" ],
					"patching_rect" : [ 16.0, 2597.0, 158.0, 22.0 ],
					"style" : "",
					"text" : "buffer~ R-290 L0e290a.wav"
				}

			}
, 			{
				"box" : 				{
					"id" : "obj-124",
					"maxclass" : "newobj",
					"numinlets" : 1,
					"numoutlets" : 2,
					"outlettype" : [ "float", "bang" ],
					"patching_rect" : [ 16.0, 2619.0, 156.0, 22.0 ],
					"style" : "",
					"text" : "buffer~ L-295 L0e295a.wav"
				}

			}
, 			{
				"box" : 				{
					"id" : "obj-125",
					"maxclass" : "newobj",
					"numinlets" : 1,
					"numoutlets" : 2,
					"outlettype" : [ "float", "bang" ],
					"patching_rect" : [ 16.0, 2641.0, 158.0, 22.0 ],
					"style" : "",
					"text" : "buffer~ R-295 L0e295a.wav"
				}

			}
, 			{
				"box" : 				{
					"id" : "obj-126",
					"maxclass" : "newobj",
					"numinlets" : 1,
					"numoutlets" : 2,
					"outlettype" : [ "float", "bang" ],
					"patching_rect" : [ 16.0, 2663.0, 156.0, 22.0 ],
					"style" : "",
					"text" : "buffer~ L-300 L0e300a.wav"
				}

			}
, 			{
				"box" : 				{
					"id" : "obj-127",
					"maxclass" : "newobj",
					"numinlets" : 1,
					"numoutlets" : 2,
					"outlettype" : [ "float", "bang" ],
					"patching_rect" : [ 16.0, 2685.0, 158.0, 22.0 ],
					"style" : "",
					"text" : "buffer~ R-300 L0e300a.wav"
				}

			}
, 			{
				"box" : 				{
					"id" : "obj-128",
					"maxclass" : "newobj",
					"numinlets" : 1,
					"numoutlets" : 2,
					"outlettype" : [ "float", "bang" ],
					"patching_rect" : [ 16.0, 2707.0, 156.0, 22.0 ],
					"style" : "",
					"text" : "buffer~ L-305 L0e305a.wav"
				}

			}
, 			{
				"box" : 				{
					"id" : "obj-129",
					"maxclass" : "newobj",
					"numinlets" : 1,
					"numoutlets" : 2,
					"outlettype" : [ "float", "bang" ],
					"patching_rect" : [ 16.0, 2729.0, 158.0, 22.0 ],
					"style" : "",
					"text" : "buffer~ R-305 L0e305a.wav"
				}

			}
, 			{
				"box" : 				{
					"id" : "obj-130",
					"maxclass" : "newobj",
					"numinlets" : 1,
					"numoutlets" : 2,
					"outlettype" : [ "float", "bang" ],
					"patching_rect" : [ 16.0, 2751.0, 156.0, 22.0 ],
					"style" : "",
					"text" : "buffer~ L-310 L0e310a.wav"
				}

			}
, 			{
				"box" : 				{
					"id" : "obj-131",
					"maxclass" : "newobj",
					"numinlets" : 1,
					"numoutlets" : 2,
					"outlettype" : [ "float", "bang" ],
					"patching_rect" : [ 16.0, 2773.0, 158.0, 22.0 ],
					"style" : "",
					"text" : "buffer~ R-310 L0e310a.wav"
				}

			}
, 			{
				"box" : 				{
					"id" : "obj-132",
					"maxclass" : "newobj",
					"numinlets" : 1,
					"numoutlets" : 2,
					"outlettype" : [ "float", "bang" ],
					"patching_rect" : [ 16.0, 2795.0, 156.0, 22.0 ],
					"style" : "",
					"text" : "buffer~ L-315 L0e315a.wav"
				}

			}
, 			{
				"box" : 				{
					"id" : "obj-133",
					"maxclass" : "newobj",
					"numinlets" : 1,
					"numoutlets" : 2,
					"outlettype" : [ "float", "bang" ],
					"patching_rect" : [ 16.0, 2817.0, 158.0, 22.0 ],
					"style" : "",
					"text" : "buffer~ R-315 L0e315a.wav"
				}

			}
, 			{
				"box" : 				{
					"id" : "obj-134",
					"maxclass" : "newobj",
					"numinlets" : 1,
					"numoutlets" : 2,
					"outlettype" : [ "float", "bang" ],
					"patching_rect" : [ 16.0, 2839.0, 156.0, 22.0 ],
					"style" : "",
					"text" : "buffer~ L-320 L0e320a.wav"
				}

			}
, 			{
				"box" : 				{
					"id" : "obj-135",
					"maxclass" : "newobj",
					"numinlets" : 1,
					"numoutlets" : 2,
					"outlettype" : [ "float", "bang" ],
					"patching_rect" : [ 16.0, 2861.0, 158.0, 22.0 ],
					"style" : "",
					"text" : "buffer~ R-320 L0e320a.wav"
				}

			}
, 			{
				"box" : 				{
					"id" : "obj-136",
					"maxclass" : "newobj",
					"numinlets" : 1,
					"numoutlets" : 2,
					"outlettype" : [ "float", "bang" ],
					"patching_rect" : [ 16.0, 2883.0, 156.0, 22.0 ],
					"style" : "",
					"text" : "buffer~ L-325 L0e325a.wav"
				}

			}
, 			{
				"box" : 				{
					"id" : "obj-137",
					"maxclass" : "newobj",
					"numinlets" : 1,
					"numoutlets" : 2,
					"outlettype" : [ "float", "bang" ],
					"patching_rect" : [ 16.0, 2905.0, 158.0, 22.0 ],
					"style" : "",
					"text" : "buffer~ R-325 L0e325a.wav"
				}

			}
, 			{
				"box" : 				{
					"id" : "obj-138",
					"maxclass" : "newobj",
					"numinlets" : 1,
					"numoutlets" : 2,
					"outlettype" : [ "float", "bang" ],
					"patching_rect" : [ 16.0, 2927.0, 156.0, 22.0 ],
					"style" : "",
					"text" : "buffer~ L-330 L0e330a.wav"
				}

			}
, 			{
				"box" : 				{
					"id" : "obj-139",
					"maxclass" : "newobj",
					"numinlets" : 1,
					"numoutlets" : 2,
					"outlettype" : [ "float", "bang" ],
					"patching_rect" : [ 16.0, 2949.0, 158.0, 22.0 ],
					"style" : "",
					"text" : "buffer~ R-330 L0e330a.wav"
				}

			}
, 			{
				"box" : 				{
					"id" : "obj-140",
					"maxclass" : "newobj",
					"numinlets" : 1,
					"numoutlets" : 2,
					"outlettype" : [ "float", "bang" ],
					"patching_rect" : [ 16.0, 2971.0, 156.0, 22.0 ],
					"style" : "",
					"text" : "buffer~ L-335 L0e335a.wav"
				}

			}
, 			{
				"box" : 				{
					"id" : "obj-141",
					"maxclass" : "newobj",
					"numinlets" : 1,
					"numoutlets" : 2,
					"outlettype" : [ "float", "bang" ],
					"patching_rect" : [ 16.0, 2993.0, 158.0, 22.0 ],
					"style" : "",
					"text" : "buffer~ R-335 L0e335a.wav"
				}

			}
, 			{
				"box" : 				{
					"id" : "obj-142",
					"maxclass" : "newobj",
					"numinlets" : 1,
					"numoutlets" : 2,
					"outlettype" : [ "float", "bang" ],
					"patching_rect" : [ 16.0, 3015.0, 156.0, 22.0 ],
					"style" : "",
					"text" : "buffer~ L-340 L0e340a.wav"
				}

			}
, 			{
				"box" : 				{
					"id" : "obj-143",
					"maxclass" : "newobj",
					"numinlets" : 1,
					"numoutlets" : 2,
					"outlettype" : [ "float", "bang" ],
					"patching_rect" : [ 16.0, 3037.0, 158.0, 22.0 ],
					"style" : "",
					"text" : "buffer~ R-340 L0e340a.wav"
				}

			}
, 			{
				"box" : 				{
					"id" : "obj-144",
					"maxclass" : "newobj",
					"numinlets" : 1,
					"numoutlets" : 2,
					"outlettype" : [ "float", "bang" ],
					"patching_rect" : [ 16.0, 3059.0, 156.0, 22.0 ],
					"style" : "",
					"text" : "buffer~ L-345 L0e345a.wav"
				}

			}
, 			{
				"box" : 				{
					"id" : "obj-145",
					"maxclass" : "newobj",
					"numinlets" : 1,
					"numoutlets" : 2,
					"outlettype" : [ "float", "bang" ],
					"patching_rect" : [ 16.0, 3081.0, 158.0, 22.0 ],
					"style" : "",
					"text" : "buffer~ R-345 L0e345a.wav"
				}

			}
, 			{
				"box" : 				{
					"id" : "obj-146",
					"maxclass" : "newobj",
					"numinlets" : 1,
					"numoutlets" : 2,
					"outlettype" : [ "float", "bang" ],
					"patching_rect" : [ 16.0, 3103.0, 156.0, 22.0 ],
					"style" : "",
					"text" : "buffer~ L-350 L0e350a.wav"
				}

			}
, 			{
				"box" : 				{
					"id" : "obj-147",
					"maxclass" : "newobj",
					"numinlets" : 1,
					"numoutlets" : 2,
					"outlettype" : [ "float", "bang" ],
					"patching_rect" : [ 16.0, 3125.0, 158.0, 22.0 ],
					"style" : "",
					"text" : "buffer~ R-350 L0e350a.wav"
				}

			}
, 			{
				"box" : 				{
					"id" : "obj-148",
					"maxclass" : "newobj",
					"numinlets" : 1,
					"numoutlets" : 2,
					"outlettype" : [ "float", "bang" ],
					"patching_rect" : [ 16.0, 3147.0, 156.0, 22.0 ],
					"style" : "",
					"text" : "buffer~ L-355 L0e355a.wav"
				}

			}
, 			{
				"box" : 				{
					"id" : "obj-149",
					"maxclass" : "newobj",
					"numinlets" : 1,
					"numoutlets" : 2,
					"outlettype" : [ "float", "bang" ],
					"patching_rect" : [ 16.0, 3169.0, 158.0, 22.0 ],
					"style" : "",
					"text" : "buffer~ R-355 L0e355a.wav"
				}

			}
 ],
		"lines" : [ 			{
				"patchline" : 				{
					"destination" : [ "obj-12", 0 ],
					"disabled" : 0,
					"hidden" : 0,
					"source" : [ "obj-10", 0 ]
				}

			}
, 			{
				"patchline" : 				{
					"destination" : [ "obj-1", 0 ],
					"disabled" : 0,
					"hidden" : 0,
					"source" : [ "obj-12", 1 ]
				}

			}
, 			{
				"patchline" : 				{
					"destination" : [ "obj-1", 0 ],
					"disabled" : 0,
					"hidden" : 0,
					"source" : [ "obj-12", 0 ]
				}

			}
, 			{
				"patchline" : 				{
					"destination" : [ "obj-8", 0 ],
					"disabled" : 0,
					"hidden" : 0,
					"source" : [ "obj-7", 0 ]
				}

			}
, 			{
				"patchline" : 				{
					"destination" : [ "obj-10", 0 ],
					"disabled" : 0,
					"hidden" : 0,
					"source" : [ "obj-8", 0 ]
				}

			}
 ],
		"dependency_cache" : [ 			{
				"name" : "createBuffer.js",
				"bootpath" : "~/Documents/code/trajectories/max/elev0",
				"type" : "TEXT",
				"implicit" : 1
			}
, 			{
				"name" : "o.expr.codebox.mxo",
				"type" : "iLaX"
			}
, 			{
				"name" : "o.listenumerate.mxo",
				"type" : "iLaX"
			}
, 			{
				"name" : "o.route.mxo",
				"type" : "iLaX"
			}
 ],
		"autosave" : 0
	}

}
