{
	"patcher" : 	{
		"fileversion" : 1,
		"appversion" : 		{
			"major" : 7,
			"minor" : 3,
			"revision" : 1,
			"architecture" : "x86",
			"modernui" : 1
		}
,
		"rect" : [ 372.0, 122.0, 640.0, 480.0 ],
		"bglocked" : 0,
		"openinpresentation" : 0,
		"default_fontsize" : 12.0,
		"default_fontface" : 0,
		"default_fontname" : "Arial",
		"gridonopen" : 1,
		"gridsize" : [ 15.0, 15.0 ],
		"gridsnaponopen" : 1,
		"objectsnaponopen" : 1,
		"statusbarvisible" : 2,
		"toolbarvisible" : 1,
		"lefttoolbarpinned" : 0,
		"toptoolbarpinned" : 0,
		"righttoolbarpinned" : 0,
		"bottomtoolbarpinned" : 0,
		"toolbars_unpinned_last_save" : 0,
		"tallnewobj" : 0,
		"boxanimatetime" : 200,
		"enablehscroll" : 1,
		"enablevscroll" : 1,
		"devicewidth" : 0.0,
		"description" : "",
		"digest" : "",
		"tags" : "",
		"style" : "",
		"subpatcher_template" : "",
		"boxes" : [ 			{
				"box" : 				{
					"id" : "obj-7",
					"maxclass" : "newobj",
					"numinlets" : 1,
					"numoutlets" : 0,
					"patching_rect" : [ 31.0, 225.0, 34.0, 22.0 ],
					"style" : "",
					"text" : "print"
				}

			}
, 			{
				"box" : 				{
					"id" : "obj-2",
					"maxclass" : "newobj",
					"numinlets" : 1,
					"numoutlets" : 1,
					"outlettype" : [ "bang" ],
					"patching_rect" : [ 31.0, 44.0, 60.0, 22.0 ],
					"style" : "",
					"text" : "loadbang"
				}

			}
, 			{
				"box" : 				{
					"id" : "obj-42",
					"maxclass" : "newobj",
					"numinlets" : 1,
					"numoutlets" : 3,
					"outlettype" : [ "", "", "FullPacket" ],
					"patching_rect" : [ 31.0, 201.0, 174.0, 22.0 ],
					"style" : "",
					"text" : "o.route /messageR /messageL"
				}

			}
, 			{
				"box" : 				{
					"id" : "obj-43",
					"maxclass" : "newobj",
					"numinlets" : 1,
					"numoutlets" : 2,
					"outlettype" : [ "", "" ],
					"patching_rect" : [ 31.0, 102.0, 135.0, 22.0 ],
					"style" : "",
					"text" : "o.listenumerate /angles"
				}

			}
, 			{
				"box" : 				{
					"fontface" : 0,
					"fontsize" : 12.0,
					"id" : "obj-6",
					"linecount" : 4,
					"maxclass" : "o.expr.codebox",
					"numinlets" : 1,
					"numoutlets" : 2,
					"outlettype" : [ "FullPacket", "FullPacket" ],
					"patching_rect" : [ 31.0, 126.0, 416.0, 73.0 ],
					"text" : "/angle = /value,\n/buf = \"lr\" + /angle,\n/messageL = [\"set\", /index + 1, 1, /buf, 1],\n/messageR = [\"set\", /index + 1, 2, /buf, 2]",
					"textcolor" : [ 0.0, 0.0, 0.0, 1.0 ]
				}

			}
, 			{
				"box" : 				{
					"fontface" : 0,
					"fontsize" : 12.0,
					"id" : "obj-4",
					"maxclass" : "o.expr.codebox",
					"numinlets" : 1,
					"numoutlets" : 2,
					"outlettype" : [ "FullPacket", "FullPacket" ],
					"patching_rect" : [ 31.0, 68.0, 344.0, 32.0 ],
					"text" : "/angles = aseq(0,350,10)",
					"textcolor" : [ 0.0, 0.0, 0.0, 1.0 ]
				}

			}
, 			{
				"box" : 				{
					"id" : "obj-3",
					"maxclass" : "newobj",
					"numinlets" : 36,
					"numoutlets" : 2,
					"outlettype" : [ "signal", "signal" ],
					"patching_rect" : [ 51.0, 338.0, 386.5, 22.0 ],
					"style" : "",
					"text" : "multiconvolve~ 36 2 zero"
				}

			}
, 			{
				"box" : 				{
					"id" : "obj-1",
					"maxclass" : "newobj",
					"numinlets" : 0,
					"numoutlets" : 0,
					"patcher" : 					{
						"fileversion" : 1,
						"appversion" : 						{
							"major" : 7,
							"minor" : 3,
							"revision" : 1,
							"architecture" : "x86",
							"modernui" : 1
						}
,
						"rect" : [ 210.0, 528.0, 1322.0, 688.0 ],
						"bglocked" : 0,
						"openinpresentation" : 0,
						"default_fontsize" : 12.0,
						"default_fontface" : 0,
						"default_fontname" : "Arial",
						"gridonopen" : 1,
						"gridsize" : [ 15.0, 15.0 ],
						"gridsnaponopen" : 1,
						"objectsnaponopen" : 1,
						"statusbarvisible" : 2,
						"toolbarvisible" : 1,
						"lefttoolbarpinned" : 0,
						"toptoolbarpinned" : 0,
						"righttoolbarpinned" : 0,
						"bottomtoolbarpinned" : 0,
						"toolbars_unpinned_last_save" : 0,
						"tallnewobj" : 0,
						"boxanimatetime" : 200,
						"enablehscroll" : 1,
						"enablevscroll" : 1,
						"devicewidth" : 0.0,
						"description" : "",
						"digest" : "",
						"tags" : "",
						"style" : "",
						"subpatcher_template" : "",
						"visible" : 1,
						"boxes" : [ 							{
								"box" : 								{
									"id" : "obj-12",
									"maxclass" : "newobj",
									"numinlets" : 1,
									"numoutlets" : 3,
									"outlettype" : [ "", "", "FullPacket" ],
									"patching_rect" : [ 200.0, 211.0, 135.0, 22.0 ],
									"style" : "",
									"text" : "o.route /resultR /resultL"
								}

							}
, 							{
								"box" : 								{
									"fontface" : 0,
									"fontsize" : 12.0,
									"id" : "obj-10",
									"linecount" : 7,
									"maxclass" : "o.expr.codebox",
									"numinlets" : 1,
									"numoutlets" : 2,
									"outlettype" : [ "FullPacket", "FullPacket" ],
									"patching_rect" : [ 200.0, 87.0, 424.0, 114.0 ],
									"text" : "/pfx = \"L0e\", /tfx = \"a.wav\",\n/pad = if(/value < 10, \"00\", if(/value < 100, \"0\")),\n/filename = /pfx + /pad + string(/value) + /tfx,\n/resultL = [\"createBuffer\", \"buffer~\", \"L-\" + /value, /filename],\n/resultR = [\"createBuffer\", \"buffer~\", \"R-\" + /value, /filename]",
									"textcolor" : [ 0.0, 0.0, 0.0, 1.0 ]
								}

							}
, 							{
								"box" : 								{
									"id" : "obj-8",
									"maxclass" : "newobj",
									"numinlets" : 1,
									"numoutlets" : 2,
									"outlettype" : [ "", "" ],
									"patching_rect" : [ 200.0, 54.0, 106.0, 22.0 ],
									"style" : "",
									"text" : "o.listenumerate /a"
								}

							}
, 							{
								"box" : 								{
									"fontface" : 0,
									"fontsize" : 12.0,
									"id" : "obj-7",
									"maxclass" : "o.expr.codebox",
									"numinlets" : 1,
									"numoutlets" : 2,
									"outlettype" : [ "FullPacket", "FullPacket" ],
									"patching_rect" : [ 200.0, 14.0, 157.0, 32.0 ],
									"text" : "/a = aseq(0, 355, 5)",
									"textcolor" : [ 0.0, 0.0, 0.0, 1.0 ]
								}

							}
, 							{
								"box" : 								{
									"id" : "obj-1",
									"maxclass" : "newobj",
									"numinlets" : 1,
									"numoutlets" : 1,
									"outlettype" : [ "" ],
									"patching_rect" : [ 200.0, 256.0, 88.0, 22.0 ],
									"saved_object_attributes" : 									{
										"filename" : "createBuffer.js",
										"parameter_enable" : 0
									}
,
									"style" : "",
									"text" : "js createBuffer"
								}

							}
, 							{
								"box" : 								{
									"id" : "obj-301",
									"maxclass" : "newobj",
									"numinlets" : 1,
									"numoutlets" : 2,
									"outlettype" : [ "float", "bang" ],
									"patching_rect" : [ 11.0, 14.0, 142.0, 22.0 ],
									"style" : "",
									"text" : "buffer~ L-0 L0e000a.wav"
								}

							}
, 							{
								"box" : 								{
									"id" : "obj-302",
									"maxclass" : "newobj",
									"numinlets" : 1,
									"numoutlets" : 2,
									"outlettype" : [ "float", "bang" ],
									"patching_rect" : [ 11.0, 36.0, 144.0, 22.0 ],
									"style" : "",
									"text" : "buffer~ R-0 L0e000a.wav"
								}

							}
, 							{
								"box" : 								{
									"id" : "obj-303",
									"maxclass" : "newobj",
									"numinlets" : 1,
									"numoutlets" : 2,
									"outlettype" : [ "float", "bang" ],
									"patching_rect" : [ 11.0, 58.0, 142.0, 22.0 ],
									"style" : "",
									"text" : "buffer~ L-5 L0e005a.wav"
								}

							}
, 							{
								"box" : 								{
									"id" : "obj-304",
									"maxclass" : "newobj",
									"numinlets" : 1,
									"numoutlets" : 2,
									"outlettype" : [ "float", "bang" ],
									"patching_rect" : [ 11.0, 80.0, 144.0, 22.0 ],
									"style" : "",
									"text" : "buffer~ R-5 L0e005a.wav"
								}

							}
, 							{
								"box" : 								{
									"id" : "obj-305",
									"maxclass" : "newobj",
									"numinlets" : 1,
									"numoutlets" : 2,
									"outlettype" : [ "float", "bang" ],
									"patching_rect" : [ 11.0, 102.0, 148.0, 22.0 ],
									"style" : "",
									"text" : "buffer~ L-10 L0e010a.wav"
								}

							}
, 							{
								"box" : 								{
									"id" : "obj-306",
									"maxclass" : "newobj",
									"numinlets" : 1,
									"numoutlets" : 2,
									"outlettype" : [ "float", "bang" ],
									"patching_rect" : [ 11.0, 124.0, 150.0, 22.0 ],
									"style" : "",
									"text" : "buffer~ R-10 L0e010a.wav"
								}

							}
, 							{
								"box" : 								{
									"id" : "obj-307",
									"maxclass" : "newobj",
									"numinlets" : 1,
									"numoutlets" : 2,
									"outlettype" : [ "float", "bang" ],
									"patching_rect" : [ 11.0, 146.0, 148.0, 22.0 ],
									"style" : "",
									"text" : "buffer~ L-15 L0e015a.wav"
								}

							}
, 							{
								"box" : 								{
									"id" : "obj-308",
									"maxclass" : "newobj",
									"numinlets" : 1,
									"numoutlets" : 2,
									"outlettype" : [ "float", "bang" ],
									"patching_rect" : [ 11.0, 168.0, 150.0, 22.0 ],
									"style" : "",
									"text" : "buffer~ R-15 L0e015a.wav"
								}

							}
, 							{
								"box" : 								{
									"id" : "obj-309",
									"maxclass" : "newobj",
									"numinlets" : 1,
									"numoutlets" : 2,
									"outlettype" : [ "float", "bang" ],
									"patching_rect" : [ 11.0, 190.0, 148.0, 22.0 ],
									"style" : "",
									"text" : "buffer~ L-20 L0e020a.wav"
								}

							}
, 							{
								"box" : 								{
									"id" : "obj-310",
									"maxclass" : "newobj",
									"numinlets" : 1,
									"numoutlets" : 2,
									"outlettype" : [ "float", "bang" ],
									"patching_rect" : [ 11.0, 212.0, 150.0, 22.0 ],
									"style" : "",
									"text" : "buffer~ R-20 L0e020a.wav"
								}

							}
, 							{
								"box" : 								{
									"id" : "obj-311",
									"maxclass" : "newobj",
									"numinlets" : 1,
									"numoutlets" : 2,
									"outlettype" : [ "float", "bang" ],
									"patching_rect" : [ 11.0, 234.0, 148.0, 22.0 ],
									"style" : "",
									"text" : "buffer~ L-25 L0e025a.wav"
								}

							}
, 							{
								"box" : 								{
									"id" : "obj-312",
									"maxclass" : "newobj",
									"numinlets" : 1,
									"numoutlets" : 2,
									"outlettype" : [ "float", "bang" ],
									"patching_rect" : [ 11.0, 256.0, 150.0, 22.0 ],
									"style" : "",
									"text" : "buffer~ R-25 L0e025a.wav"
								}

							}
, 							{
								"box" : 								{
									"id" : "obj-313",
									"maxclass" : "newobj",
									"numinlets" : 1,
									"numoutlets" : 2,
									"outlettype" : [ "float", "bang" ],
									"patching_rect" : [ 11.0, 278.0, 148.0, 22.0 ],
									"style" : "",
									"text" : "buffer~ L-30 L0e030a.wav"
								}

							}
, 							{
								"box" : 								{
									"id" : "obj-314",
									"maxclass" : "newobj",
									"numinlets" : 1,
									"numoutlets" : 2,
									"outlettype" : [ "float", "bang" ],
									"patching_rect" : [ 11.0, 300.0, 150.0, 22.0 ],
									"style" : "",
									"text" : "buffer~ R-30 L0e030a.wav"
								}

							}
, 							{
								"box" : 								{
									"id" : "obj-315",
									"maxclass" : "newobj",
									"numinlets" : 1,
									"numoutlets" : 2,
									"outlettype" : [ "float", "bang" ],
									"patching_rect" : [ 11.0, 322.0, 148.0, 22.0 ],
									"style" : "",
									"text" : "buffer~ L-35 L0e035a.wav"
								}

							}
, 							{
								"box" : 								{
									"id" : "obj-316",
									"maxclass" : "newobj",
									"numinlets" : 1,
									"numoutlets" : 2,
									"outlettype" : [ "float", "bang" ],
									"patching_rect" : [ 11.0, 344.0, 150.0, 22.0 ],
									"style" : "",
									"text" : "buffer~ R-35 L0e035a.wav"
								}

							}
, 							{
								"box" : 								{
									"id" : "obj-317",
									"maxclass" : "newobj",
									"numinlets" : 1,
									"numoutlets" : 2,
									"outlettype" : [ "float", "bang" ],
									"patching_rect" : [ 11.0, 366.0, 148.0, 22.0 ],
									"style" : "",
									"text" : "buffer~ L-40 L0e040a.wav"
								}

							}
, 							{
								"box" : 								{
									"id" : "obj-318",
									"maxclass" : "newobj",
									"numinlets" : 1,
									"numoutlets" : 2,
									"outlettype" : [ "float", "bang" ],
									"patching_rect" : [ 11.0, 388.0, 150.0, 22.0 ],
									"style" : "",
									"text" : "buffer~ R-40 L0e040a.wav"
								}

							}
, 							{
								"box" : 								{
									"id" : "obj-319",
									"maxclass" : "newobj",
									"numinlets" : 1,
									"numoutlets" : 2,
									"outlettype" : [ "float", "bang" ],
									"patching_rect" : [ 11.0, 410.0, 148.0, 22.0 ],
									"style" : "",
									"text" : "buffer~ L-45 L0e045a.wav"
								}

							}
, 							{
								"box" : 								{
									"id" : "obj-320",
									"maxclass" : "newobj",
									"numinlets" : 1,
									"numoutlets" : 2,
									"outlettype" : [ "float", "bang" ],
									"patching_rect" : [ 11.0, 432.0, 150.0, 22.0 ],
									"style" : "",
									"text" : "buffer~ R-45 L0e045a.wav"
								}

							}
, 							{
								"box" : 								{
									"id" : "obj-321",
									"maxclass" : "newobj",
									"numinlets" : 1,
									"numoutlets" : 2,
									"outlettype" : [ "float", "bang" ],
									"patching_rect" : [ 11.0, 454.0, 148.0, 22.0 ],
									"style" : "",
									"text" : "buffer~ L-50 L0e050a.wav"
								}

							}
, 							{
								"box" : 								{
									"id" : "obj-322",
									"maxclass" : "newobj",
									"numinlets" : 1,
									"numoutlets" : 2,
									"outlettype" : [ "float", "bang" ],
									"patching_rect" : [ 11.0, 476.0, 150.0, 22.0 ],
									"style" : "",
									"text" : "buffer~ R-50 L0e050a.wav"
								}

							}
, 							{
								"box" : 								{
									"id" : "obj-323",
									"maxclass" : "newobj",
									"numinlets" : 1,
									"numoutlets" : 2,
									"outlettype" : [ "float", "bang" ],
									"patching_rect" : [ 11.0, 498.0, 148.0, 22.0 ],
									"style" : "",
									"text" : "buffer~ L-55 L0e055a.wav"
								}

							}
, 							{
								"box" : 								{
									"id" : "obj-324",
									"maxclass" : "newobj",
									"numinlets" : 1,
									"numoutlets" : 2,
									"outlettype" : [ "float", "bang" ],
									"patching_rect" : [ 11.0, 520.0, 150.0, 22.0 ],
									"style" : "",
									"text" : "buffer~ R-55 L0e055a.wav"
								}

							}
, 							{
								"box" : 								{
									"id" : "obj-325",
									"maxclass" : "newobj",
									"numinlets" : 1,
									"numoutlets" : 2,
									"outlettype" : [ "float", "bang" ],
									"patching_rect" : [ 11.0, 542.0, 148.0, 22.0 ],
									"style" : "",
									"text" : "buffer~ L-60 L0e060a.wav"
								}

							}
, 							{
								"box" : 								{
									"id" : "obj-326",
									"maxclass" : "newobj",
									"numinlets" : 1,
									"numoutlets" : 2,
									"outlettype" : [ "float", "bang" ],
									"patching_rect" : [ 11.0, 564.0, 150.0, 22.0 ],
									"style" : "",
									"text" : "buffer~ R-60 L0e060a.wav"
								}

							}
, 							{
								"box" : 								{
									"id" : "obj-327",
									"maxclass" : "newobj",
									"numinlets" : 1,
									"numoutlets" : 2,
									"outlettype" : [ "float", "bang" ],
									"patching_rect" : [ 11.0, 586.0, 148.0, 22.0 ],
									"style" : "",
									"text" : "buffer~ L-65 L0e065a.wav"
								}

							}
, 							{
								"box" : 								{
									"id" : "obj-328",
									"maxclass" : "newobj",
									"numinlets" : 1,
									"numoutlets" : 2,
									"outlettype" : [ "float", "bang" ],
									"patching_rect" : [ 11.0, 608.0, 150.0, 22.0 ],
									"style" : "",
									"text" : "buffer~ R-65 L0e065a.wav"
								}

							}
, 							{
								"box" : 								{
									"id" : "obj-329",
									"maxclass" : "newobj",
									"numinlets" : 1,
									"numoutlets" : 2,
									"outlettype" : [ "float", "bang" ],
									"patching_rect" : [ 11.0, 630.0, 148.0, 22.0 ],
									"style" : "",
									"text" : "buffer~ L-70 L0e070a.wav"
								}

							}
, 							{
								"box" : 								{
									"id" : "obj-330",
									"maxclass" : "newobj",
									"numinlets" : 1,
									"numoutlets" : 2,
									"outlettype" : [ "float", "bang" ],
									"patching_rect" : [ 11.0, 652.0, 150.0, 22.0 ],
									"style" : "",
									"text" : "buffer~ R-70 L0e070a.wav"
								}

							}
, 							{
								"box" : 								{
									"id" : "obj-331",
									"maxclass" : "newobj",
									"numinlets" : 1,
									"numoutlets" : 2,
									"outlettype" : [ "float", "bang" ],
									"patching_rect" : [ 11.0, 674.0, 148.0, 22.0 ],
									"style" : "",
									"text" : "buffer~ L-75 L0e075a.wav"
								}

							}
, 							{
								"box" : 								{
									"id" : "obj-332",
									"maxclass" : "newobj",
									"numinlets" : 1,
									"numoutlets" : 2,
									"outlettype" : [ "float", "bang" ],
									"patching_rect" : [ 11.0, 696.0, 150.0, 22.0 ],
									"style" : "",
									"text" : "buffer~ R-75 L0e075a.wav"
								}

							}
, 							{
								"box" : 								{
									"id" : "obj-333",
									"maxclass" : "newobj",
									"numinlets" : 1,
									"numoutlets" : 2,
									"outlettype" : [ "float", "bang" ],
									"patching_rect" : [ 11.0, 718.0, 148.0, 22.0 ],
									"style" : "",
									"text" : "buffer~ L-80 L0e080a.wav"
								}

							}
, 							{
								"box" : 								{
									"id" : "obj-334",
									"maxclass" : "newobj",
									"numinlets" : 1,
									"numoutlets" : 2,
									"outlettype" : [ "float", "bang" ],
									"patching_rect" : [ 11.0, 740.0, 150.0, 22.0 ],
									"style" : "",
									"text" : "buffer~ R-80 L0e080a.wav"
								}

							}
, 							{
								"box" : 								{
									"id" : "obj-335",
									"maxclass" : "newobj",
									"numinlets" : 1,
									"numoutlets" : 2,
									"outlettype" : [ "float", "bang" ],
									"patching_rect" : [ 11.0, 762.0, 148.0, 22.0 ],
									"style" : "",
									"text" : "buffer~ L-85 L0e085a.wav"
								}

							}
, 							{
								"box" : 								{
									"id" : "obj-336",
									"maxclass" : "newobj",
									"numinlets" : 1,
									"numoutlets" : 2,
									"outlettype" : [ "float", "bang" ],
									"patching_rect" : [ 11.0, 784.0, 150.0, 22.0 ],
									"style" : "",
									"text" : "buffer~ R-85 L0e085a.wav"
								}

							}
, 							{
								"box" : 								{
									"id" : "obj-337",
									"maxclass" : "newobj",
									"numinlets" : 1,
									"numoutlets" : 2,
									"outlettype" : [ "float", "bang" ],
									"patching_rect" : [ 11.0, 806.0, 148.0, 22.0 ],
									"style" : "",
									"text" : "buffer~ L-90 L0e090a.wav"
								}

							}
, 							{
								"box" : 								{
									"id" : "obj-338",
									"maxclass" : "newobj",
									"numinlets" : 1,
									"numoutlets" : 2,
									"outlettype" : [ "float", "bang" ],
									"patching_rect" : [ 11.0, 828.0, 150.0, 22.0 ],
									"style" : "",
									"text" : "buffer~ R-90 L0e090a.wav"
								}

							}
, 							{
								"box" : 								{
									"id" : "obj-339",
									"maxclass" : "newobj",
									"numinlets" : 1,
									"numoutlets" : 2,
									"outlettype" : [ "float", "bang" ],
									"patching_rect" : [ 11.0, 850.0, 148.0, 22.0 ],
									"style" : "",
									"text" : "buffer~ L-95 L0e095a.wav"
								}

							}
, 							{
								"box" : 								{
									"id" : "obj-340",
									"maxclass" : "newobj",
									"numinlets" : 1,
									"numoutlets" : 2,
									"outlettype" : [ "float", "bang" ],
									"patching_rect" : [ 11.0, 872.0, 150.0, 22.0 ],
									"style" : "",
									"text" : "buffer~ R-95 L0e095a.wav"
								}

							}
, 							{
								"box" : 								{
									"id" : "obj-341",
									"maxclass" : "newobj",
									"numinlets" : 1,
									"numoutlets" : 2,
									"outlettype" : [ "float", "bang" ],
									"patching_rect" : [ 11.0, 894.0, 156.0, 22.0 ],
									"style" : "",
									"text" : "buffer~ L-100 L0e100a.wav"
								}

							}
, 							{
								"box" : 								{
									"id" : "obj-342",
									"maxclass" : "newobj",
									"numinlets" : 1,
									"numoutlets" : 2,
									"outlettype" : [ "float", "bang" ],
									"patching_rect" : [ 11.0, 916.0, 158.0, 22.0 ],
									"style" : "",
									"text" : "buffer~ R-100 L0e100a.wav"
								}

							}
, 							{
								"box" : 								{
									"id" : "obj-343",
									"maxclass" : "newobj",
									"numinlets" : 1,
									"numoutlets" : 2,
									"outlettype" : [ "float", "bang" ],
									"patching_rect" : [ 11.0, 938.0, 156.0, 22.0 ],
									"style" : "",
									"text" : "buffer~ L-105 L0e105a.wav"
								}

							}
, 							{
								"box" : 								{
									"id" : "obj-344",
									"maxclass" : "newobj",
									"numinlets" : 1,
									"numoutlets" : 2,
									"outlettype" : [ "float", "bang" ],
									"patching_rect" : [ 11.0, 960.0, 158.0, 22.0 ],
									"style" : "",
									"text" : "buffer~ R-105 L0e105a.wav"
								}

							}
, 							{
								"box" : 								{
									"id" : "obj-345",
									"maxclass" : "newobj",
									"numinlets" : 1,
									"numoutlets" : 2,
									"outlettype" : [ "float", "bang" ],
									"patching_rect" : [ 11.0, 982.0, 154.0, 22.0 ],
									"style" : "",
									"text" : "buffer~ L-110 L0e110a.wav"
								}

							}
, 							{
								"box" : 								{
									"id" : "obj-346",
									"maxclass" : "newobj",
									"numinlets" : 1,
									"numoutlets" : 2,
									"outlettype" : [ "float", "bang" ],
									"patching_rect" : [ 11.0, 1004.0, 156.0, 22.0 ],
									"style" : "",
									"text" : "buffer~ R-110 L0e110a.wav"
								}

							}
, 							{
								"box" : 								{
									"id" : "obj-347",
									"maxclass" : "newobj",
									"numinlets" : 1,
									"numoutlets" : 2,
									"outlettype" : [ "float", "bang" ],
									"patching_rect" : [ 11.0, 1026.0, 154.0, 22.0 ],
									"style" : "",
									"text" : "buffer~ L-115 L0e115a.wav"
								}

							}
, 							{
								"box" : 								{
									"id" : "obj-348",
									"maxclass" : "newobj",
									"numinlets" : 1,
									"numoutlets" : 2,
									"outlettype" : [ "float", "bang" ],
									"patching_rect" : [ 11.0, 1048.0, 156.0, 22.0 ],
									"style" : "",
									"text" : "buffer~ R-115 L0e115a.wav"
								}

							}
, 							{
								"box" : 								{
									"id" : "obj-349",
									"maxclass" : "newobj",
									"numinlets" : 1,
									"numoutlets" : 2,
									"outlettype" : [ "float", "bang" ],
									"patching_rect" : [ 11.0, 1070.0, 156.0, 22.0 ],
									"style" : "",
									"text" : "buffer~ L-120 L0e120a.wav"
								}

							}
, 							{
								"box" : 								{
									"id" : "obj-350",
									"maxclass" : "newobj",
									"numinlets" : 1,
									"numoutlets" : 2,
									"outlettype" : [ "float", "bang" ],
									"patching_rect" : [ 11.0, 1092.0, 158.0, 22.0 ],
									"style" : "",
									"text" : "buffer~ R-120 L0e120a.wav"
								}

							}
, 							{
								"box" : 								{
									"id" : "obj-351",
									"maxclass" : "newobj",
									"numinlets" : 1,
									"numoutlets" : 2,
									"outlettype" : [ "float", "bang" ],
									"patching_rect" : [ 11.0, 1114.0, 156.0, 22.0 ],
									"style" : "",
									"text" : "buffer~ L-125 L0e125a.wav"
								}

							}
, 							{
								"box" : 								{
									"id" : "obj-352",
									"maxclass" : "newobj",
									"numinlets" : 1,
									"numoutlets" : 2,
									"outlettype" : [ "float", "bang" ],
									"patching_rect" : [ 11.0, 1136.0, 158.0, 22.0 ],
									"style" : "",
									"text" : "buffer~ R-125 L0e125a.wav"
								}

							}
, 							{
								"box" : 								{
									"id" : "obj-353",
									"maxclass" : "newobj",
									"numinlets" : 1,
									"numoutlets" : 2,
									"outlettype" : [ "float", "bang" ],
									"patching_rect" : [ 11.0, 1158.0, 156.0, 22.0 ],
									"style" : "",
									"text" : "buffer~ L-130 L0e130a.wav"
								}

							}
, 							{
								"box" : 								{
									"id" : "obj-354",
									"maxclass" : "newobj",
									"numinlets" : 1,
									"numoutlets" : 2,
									"outlettype" : [ "float", "bang" ],
									"patching_rect" : [ 11.0, 1180.0, 158.0, 22.0 ],
									"style" : "",
									"text" : "buffer~ R-130 L0e130a.wav"
								}

							}
, 							{
								"box" : 								{
									"id" : "obj-355",
									"maxclass" : "newobj",
									"numinlets" : 1,
									"numoutlets" : 2,
									"outlettype" : [ "float", "bang" ],
									"patching_rect" : [ 11.0, 1202.0, 156.0, 22.0 ],
									"style" : "",
									"text" : "buffer~ L-135 L0e135a.wav"
								}

							}
, 							{
								"box" : 								{
									"id" : "obj-356",
									"maxclass" : "newobj",
									"numinlets" : 1,
									"numoutlets" : 2,
									"outlettype" : [ "float", "bang" ],
									"patching_rect" : [ 11.0, 1224.0, 158.0, 22.0 ],
									"style" : "",
									"text" : "buffer~ R-135 L0e135a.wav"
								}

							}
, 							{
								"box" : 								{
									"id" : "obj-357",
									"maxclass" : "newobj",
									"numinlets" : 1,
									"numoutlets" : 2,
									"outlettype" : [ "float", "bang" ],
									"patching_rect" : [ 11.0, 1246.0, 156.0, 22.0 ],
									"style" : "",
									"text" : "buffer~ L-140 L0e140a.wav"
								}

							}
, 							{
								"box" : 								{
									"id" : "obj-358",
									"maxclass" : "newobj",
									"numinlets" : 1,
									"numoutlets" : 2,
									"outlettype" : [ "float", "bang" ],
									"patching_rect" : [ 11.0, 1268.0, 158.0, 22.0 ],
									"style" : "",
									"text" : "buffer~ R-140 L0e140a.wav"
								}

							}
, 							{
								"box" : 								{
									"id" : "obj-359",
									"maxclass" : "newobj",
									"numinlets" : 1,
									"numoutlets" : 2,
									"outlettype" : [ "float", "bang" ],
									"patching_rect" : [ 11.0, 1290.0, 156.0, 22.0 ],
									"style" : "",
									"text" : "buffer~ L-145 L0e145a.wav"
								}

							}
, 							{
								"box" : 								{
									"id" : "obj-360",
									"maxclass" : "newobj",
									"numinlets" : 1,
									"numoutlets" : 2,
									"outlettype" : [ "float", "bang" ],
									"patching_rect" : [ 11.0, 1312.0, 158.0, 22.0 ],
									"style" : "",
									"text" : "buffer~ R-145 L0e145a.wav"
								}

							}
, 							{
								"box" : 								{
									"id" : "obj-361",
									"maxclass" : "newobj",
									"numinlets" : 1,
									"numoutlets" : 2,
									"outlettype" : [ "float", "bang" ],
									"patching_rect" : [ 11.0, 1334.0, 156.0, 22.0 ],
									"style" : "",
									"text" : "buffer~ L-150 L0e150a.wav"
								}

							}
, 							{
								"box" : 								{
									"id" : "obj-362",
									"maxclass" : "newobj",
									"numinlets" : 1,
									"numoutlets" : 2,
									"outlettype" : [ "float", "bang" ],
									"patching_rect" : [ 11.0, 1356.0, 158.0, 22.0 ],
									"style" : "",
									"text" : "buffer~ R-150 L0e150a.wav"
								}

							}
, 							{
								"box" : 								{
									"id" : "obj-363",
									"maxclass" : "newobj",
									"numinlets" : 1,
									"numoutlets" : 2,
									"outlettype" : [ "float", "bang" ],
									"patching_rect" : [ 11.0, 1378.0, 156.0, 22.0 ],
									"style" : "",
									"text" : "buffer~ L-155 L0e155a.wav"
								}

							}
, 							{
								"box" : 								{
									"id" : "obj-364",
									"maxclass" : "newobj",
									"numinlets" : 1,
									"numoutlets" : 2,
									"outlettype" : [ "float", "bang" ],
									"patching_rect" : [ 11.0, 1400.0, 158.0, 22.0 ],
									"style" : "",
									"text" : "buffer~ R-155 L0e155a.wav"
								}

							}
, 							{
								"box" : 								{
									"id" : "obj-365",
									"maxclass" : "newobj",
									"numinlets" : 1,
									"numoutlets" : 2,
									"outlettype" : [ "float", "bang" ],
									"patching_rect" : [ 11.0, 1422.0, 156.0, 22.0 ],
									"style" : "",
									"text" : "buffer~ L-160 L0e160a.wav"
								}

							}
, 							{
								"box" : 								{
									"id" : "obj-366",
									"maxclass" : "newobj",
									"numinlets" : 1,
									"numoutlets" : 2,
									"outlettype" : [ "float", "bang" ],
									"patching_rect" : [ 11.0, 1444.0, 158.0, 22.0 ],
									"style" : "",
									"text" : "buffer~ R-160 L0e160a.wav"
								}

							}
, 							{
								"box" : 								{
									"id" : "obj-367",
									"maxclass" : "newobj",
									"numinlets" : 1,
									"numoutlets" : 2,
									"outlettype" : [ "float", "bang" ],
									"patching_rect" : [ 11.0, 1466.0, 156.0, 22.0 ],
									"style" : "",
									"text" : "buffer~ L-165 L0e165a.wav"
								}

							}
, 							{
								"box" : 								{
									"id" : "obj-368",
									"maxclass" : "newobj",
									"numinlets" : 1,
									"numoutlets" : 2,
									"outlettype" : [ "float", "bang" ],
									"patching_rect" : [ 11.0, 1488.0, 158.0, 22.0 ],
									"style" : "",
									"text" : "buffer~ R-165 L0e165a.wav"
								}

							}
, 							{
								"box" : 								{
									"id" : "obj-369",
									"maxclass" : "newobj",
									"numinlets" : 1,
									"numoutlets" : 2,
									"outlettype" : [ "float", "bang" ],
									"patching_rect" : [ 11.0, 1510.0, 156.0, 22.0 ],
									"style" : "",
									"text" : "buffer~ L-170 L0e170a.wav"
								}

							}
, 							{
								"box" : 								{
									"id" : "obj-370",
									"maxclass" : "newobj",
									"numinlets" : 1,
									"numoutlets" : 2,
									"outlettype" : [ "float", "bang" ],
									"patching_rect" : [ 11.0, 1532.0, 158.0, 22.0 ],
									"style" : "",
									"text" : "buffer~ R-170 L0e170a.wav"
								}

							}
, 							{
								"box" : 								{
									"id" : "obj-371",
									"maxclass" : "newobj",
									"numinlets" : 1,
									"numoutlets" : 2,
									"outlettype" : [ "float", "bang" ],
									"patching_rect" : [ 11.0, 1554.0, 156.0, 22.0 ],
									"style" : "",
									"text" : "buffer~ L-175 L0e175a.wav"
								}

							}
, 							{
								"box" : 								{
									"id" : "obj-372",
									"maxclass" : "newobj",
									"numinlets" : 1,
									"numoutlets" : 2,
									"outlettype" : [ "float", "bang" ],
									"patching_rect" : [ 11.0, 1576.0, 158.0, 22.0 ],
									"style" : "",
									"text" : "buffer~ R-175 L0e175a.wav"
								}

							}
, 							{
								"box" : 								{
									"id" : "obj-373",
									"maxclass" : "newobj",
									"numinlets" : 1,
									"numoutlets" : 2,
									"outlettype" : [ "float", "bang" ],
									"patching_rect" : [ 11.0, 1598.0, 156.0, 22.0 ],
									"style" : "",
									"text" : "buffer~ L-180 L0e180a.wav"
								}

							}
, 							{
								"box" : 								{
									"id" : "obj-374",
									"maxclass" : "newobj",
									"numinlets" : 1,
									"numoutlets" : 2,
									"outlettype" : [ "float", "bang" ],
									"patching_rect" : [ 11.0, 1620.0, 158.0, 22.0 ],
									"style" : "",
									"text" : "buffer~ R-180 L0e180a.wav"
								}

							}
, 							{
								"box" : 								{
									"id" : "obj-375",
									"maxclass" : "newobj",
									"numinlets" : 1,
									"numoutlets" : 2,
									"outlettype" : [ "float", "bang" ],
									"patching_rect" : [ 11.0, 1642.0, 156.0, 22.0 ],
									"style" : "",
									"text" : "buffer~ L-185 L0e185a.wav"
								}

							}
, 							{
								"box" : 								{
									"id" : "obj-376",
									"maxclass" : "newobj",
									"numinlets" : 1,
									"numoutlets" : 2,
									"outlettype" : [ "float", "bang" ],
									"patching_rect" : [ 11.0, 1664.0, 158.0, 22.0 ],
									"style" : "",
									"text" : "buffer~ R-185 L0e185a.wav"
								}

							}
, 							{
								"box" : 								{
									"id" : "obj-377",
									"maxclass" : "newobj",
									"numinlets" : 1,
									"numoutlets" : 2,
									"outlettype" : [ "float", "bang" ],
									"patching_rect" : [ 11.0, 1686.0, 156.0, 22.0 ],
									"style" : "",
									"text" : "buffer~ L-190 L0e190a.wav"
								}

							}
, 							{
								"box" : 								{
									"id" : "obj-378",
									"maxclass" : "newobj",
									"numinlets" : 1,
									"numoutlets" : 2,
									"outlettype" : [ "float", "bang" ],
									"patching_rect" : [ 11.0, 1708.0, 158.0, 22.0 ],
									"style" : "",
									"text" : "buffer~ R-190 L0e190a.wav"
								}

							}
, 							{
								"box" : 								{
									"id" : "obj-379",
									"maxclass" : "newobj",
									"numinlets" : 1,
									"numoutlets" : 2,
									"outlettype" : [ "float", "bang" ],
									"patching_rect" : [ 11.0, 1730.0, 156.0, 22.0 ],
									"style" : "",
									"text" : "buffer~ L-195 L0e195a.wav"
								}

							}
, 							{
								"box" : 								{
									"id" : "obj-380",
									"maxclass" : "newobj",
									"numinlets" : 1,
									"numoutlets" : 2,
									"outlettype" : [ "float", "bang" ],
									"patching_rect" : [ 11.0, 1752.0, 158.0, 22.0 ],
									"style" : "",
									"text" : "buffer~ R-195 L0e195a.wav"
								}

							}
, 							{
								"box" : 								{
									"id" : "obj-381",
									"maxclass" : "newobj",
									"numinlets" : 1,
									"numoutlets" : 2,
									"outlettype" : [ "float", "bang" ],
									"patching_rect" : [ 11.0, 1774.0, 156.0, 22.0 ],
									"style" : "",
									"text" : "buffer~ L-200 L0e200a.wav"
								}

							}
, 							{
								"box" : 								{
									"id" : "obj-382",
									"maxclass" : "newobj",
									"numinlets" : 1,
									"numoutlets" : 2,
									"outlettype" : [ "float", "bang" ],
									"patching_rect" : [ 11.0, 1796.0, 158.0, 22.0 ],
									"style" : "",
									"text" : "buffer~ R-200 L0e200a.wav"
								}

							}
, 							{
								"box" : 								{
									"id" : "obj-383",
									"maxclass" : "newobj",
									"numinlets" : 1,
									"numoutlets" : 2,
									"outlettype" : [ "float", "bang" ],
									"patching_rect" : [ 11.0, 1818.0, 156.0, 22.0 ],
									"style" : "",
									"text" : "buffer~ L-205 L0e205a.wav"
								}

							}
, 							{
								"box" : 								{
									"id" : "obj-384",
									"maxclass" : "newobj",
									"numinlets" : 1,
									"numoutlets" : 2,
									"outlettype" : [ "float", "bang" ],
									"patching_rect" : [ 11.0, 1840.0, 158.0, 22.0 ],
									"style" : "",
									"text" : "buffer~ R-205 L0e205a.wav"
								}

							}
, 							{
								"box" : 								{
									"id" : "obj-385",
									"maxclass" : "newobj",
									"numinlets" : 1,
									"numoutlets" : 2,
									"outlettype" : [ "float", "bang" ],
									"patching_rect" : [ 11.0, 1862.0, 156.0, 22.0 ],
									"style" : "",
									"text" : "buffer~ L-210 L0e210a.wav"
								}

							}
, 							{
								"box" : 								{
									"id" : "obj-386",
									"maxclass" : "newobj",
									"numinlets" : 1,
									"numoutlets" : 2,
									"outlettype" : [ "float", "bang" ],
									"patching_rect" : [ 11.0, 1884.0, 158.0, 22.0 ],
									"style" : "",
									"text" : "buffer~ R-210 L0e210a.wav"
								}

							}
, 							{
								"box" : 								{
									"id" : "obj-387",
									"maxclass" : "newobj",
									"numinlets" : 1,
									"numoutlets" : 2,
									"outlettype" : [ "float", "bang" ],
									"patching_rect" : [ 11.0, 1906.0, 156.0, 22.0 ],
									"style" : "",
									"text" : "buffer~ L-215 L0e215a.wav"
								}

							}
, 							{
								"box" : 								{
									"id" : "obj-388",
									"maxclass" : "newobj",
									"numinlets" : 1,
									"numoutlets" : 2,
									"outlettype" : [ "float", "bang" ],
									"patching_rect" : [ 11.0, 1928.0, 158.0, 22.0 ],
									"style" : "",
									"text" : "buffer~ R-215 L0e215a.wav"
								}

							}
, 							{
								"box" : 								{
									"id" : "obj-389",
									"maxclass" : "newobj",
									"numinlets" : 1,
									"numoutlets" : 2,
									"outlettype" : [ "float", "bang" ],
									"patching_rect" : [ 11.0, 1950.0, 156.0, 22.0 ],
									"style" : "",
									"text" : "buffer~ L-220 L0e220a.wav"
								}

							}
, 							{
								"box" : 								{
									"id" : "obj-390",
									"maxclass" : "newobj",
									"numinlets" : 1,
									"numoutlets" : 2,
									"outlettype" : [ "float", "bang" ],
									"patching_rect" : [ 11.0, 1972.0, 158.0, 22.0 ],
									"style" : "",
									"text" : "buffer~ R-220 L0e220a.wav"
								}

							}
, 							{
								"box" : 								{
									"id" : "obj-391",
									"maxclass" : "newobj",
									"numinlets" : 1,
									"numoutlets" : 2,
									"outlettype" : [ "float", "bang" ],
									"patching_rect" : [ 11.0, 1994.0, 156.0, 22.0 ],
									"style" : "",
									"text" : "buffer~ L-225 L0e225a.wav"
								}

							}
, 							{
								"box" : 								{
									"id" : "obj-392",
									"maxclass" : "newobj",
									"numinlets" : 1,
									"numoutlets" : 2,
									"outlettype" : [ "float", "bang" ],
									"patching_rect" : [ 11.0, 2016.0, 158.0, 22.0 ],
									"style" : "",
									"text" : "buffer~ R-225 L0e225a.wav"
								}

							}
, 							{
								"box" : 								{
									"id" : "obj-393",
									"maxclass" : "newobj",
									"numinlets" : 1,
									"numoutlets" : 2,
									"outlettype" : [ "float", "bang" ],
									"patching_rect" : [ 11.0, 2038.0, 156.0, 22.0 ],
									"style" : "",
									"text" : "buffer~ L-230 L0e230a.wav"
								}

							}
, 							{
								"box" : 								{
									"id" : "obj-394",
									"maxclass" : "newobj",
									"numinlets" : 1,
									"numoutlets" : 2,
									"outlettype" : [ "float", "bang" ],
									"patching_rect" : [ 11.0, 2060.0, 158.0, 22.0 ],
									"style" : "",
									"text" : "buffer~ R-230 L0e230a.wav"
								}

							}
, 							{
								"box" : 								{
									"id" : "obj-395",
									"maxclass" : "newobj",
									"numinlets" : 1,
									"numoutlets" : 2,
									"outlettype" : [ "float", "bang" ],
									"patching_rect" : [ 11.0, 2082.0, 156.0, 22.0 ],
									"style" : "",
									"text" : "buffer~ L-235 L0e235a.wav"
								}

							}
, 							{
								"box" : 								{
									"id" : "obj-396",
									"maxclass" : "newobj",
									"numinlets" : 1,
									"numoutlets" : 2,
									"outlettype" : [ "float", "bang" ],
									"patching_rect" : [ 11.0, 2104.0, 158.0, 22.0 ],
									"style" : "",
									"text" : "buffer~ R-235 L0e235a.wav"
								}

							}
, 							{
								"box" : 								{
									"id" : "obj-397",
									"maxclass" : "newobj",
									"numinlets" : 1,
									"numoutlets" : 2,
									"outlettype" : [ "float", "bang" ],
									"patching_rect" : [ 11.0, 2126.0, 156.0, 22.0 ],
									"style" : "",
									"text" : "buffer~ L-240 L0e240a.wav"
								}

							}
, 							{
								"box" : 								{
									"id" : "obj-398",
									"maxclass" : "newobj",
									"numinlets" : 1,
									"numoutlets" : 2,
									"outlettype" : [ "float", "bang" ],
									"patching_rect" : [ 11.0, 2148.0, 158.0, 22.0 ],
									"style" : "",
									"text" : "buffer~ R-240 L0e240a.wav"
								}

							}
, 							{
								"box" : 								{
									"id" : "obj-399",
									"maxclass" : "newobj",
									"numinlets" : 1,
									"numoutlets" : 2,
									"outlettype" : [ "float", "bang" ],
									"patching_rect" : [ 11.0, 2170.0, 156.0, 22.0 ],
									"style" : "",
									"text" : "buffer~ L-245 L0e245a.wav"
								}

							}
, 							{
								"box" : 								{
									"id" : "obj-400",
									"maxclass" : "newobj",
									"numinlets" : 1,
									"numoutlets" : 2,
									"outlettype" : [ "float", "bang" ],
									"patching_rect" : [ 11.0, 2192.0, 158.0, 22.0 ],
									"style" : "",
									"text" : "buffer~ R-245 L0e245a.wav"
								}

							}
, 							{
								"box" : 								{
									"id" : "obj-401",
									"maxclass" : "newobj",
									"numinlets" : 1,
									"numoutlets" : 2,
									"outlettype" : [ "float", "bang" ],
									"patching_rect" : [ 11.0, 2214.0, 156.0, 22.0 ],
									"style" : "",
									"text" : "buffer~ L-250 L0e250a.wav"
								}

							}
, 							{
								"box" : 								{
									"id" : "obj-402",
									"maxclass" : "newobj",
									"numinlets" : 1,
									"numoutlets" : 2,
									"outlettype" : [ "float", "bang" ],
									"patching_rect" : [ 11.0, 2236.0, 158.0, 22.0 ],
									"style" : "",
									"text" : "buffer~ R-250 L0e250a.wav"
								}

							}
, 							{
								"box" : 								{
									"id" : "obj-403",
									"maxclass" : "newobj",
									"numinlets" : 1,
									"numoutlets" : 2,
									"outlettype" : [ "float", "bang" ],
									"patching_rect" : [ 11.0, 2258.0, 156.0, 22.0 ],
									"style" : "",
									"text" : "buffer~ L-255 L0e255a.wav"
								}

							}
, 							{
								"box" : 								{
									"id" : "obj-404",
									"maxclass" : "newobj",
									"numinlets" : 1,
									"numoutlets" : 2,
									"outlettype" : [ "float", "bang" ],
									"patching_rect" : [ 11.0, 2280.0, 158.0, 22.0 ],
									"style" : "",
									"text" : "buffer~ R-255 L0e255a.wav"
								}

							}
, 							{
								"box" : 								{
									"id" : "obj-405",
									"maxclass" : "newobj",
									"numinlets" : 1,
									"numoutlets" : 2,
									"outlettype" : [ "float", "bang" ],
									"patching_rect" : [ 11.0, 2302.0, 156.0, 22.0 ],
									"style" : "",
									"text" : "buffer~ L-260 L0e260a.wav"
								}

							}
, 							{
								"box" : 								{
									"id" : "obj-406",
									"maxclass" : "newobj",
									"numinlets" : 1,
									"numoutlets" : 2,
									"outlettype" : [ "float", "bang" ],
									"patching_rect" : [ 11.0, 2324.0, 158.0, 22.0 ],
									"style" : "",
									"text" : "buffer~ R-260 L0e260a.wav"
								}

							}
, 							{
								"box" : 								{
									"id" : "obj-407",
									"maxclass" : "newobj",
									"numinlets" : 1,
									"numoutlets" : 2,
									"outlettype" : [ "float", "bang" ],
									"patching_rect" : [ 11.0, 2346.0, 156.0, 22.0 ],
									"style" : "",
									"text" : "buffer~ L-265 L0e265a.wav"
								}

							}
, 							{
								"box" : 								{
									"id" : "obj-408",
									"maxclass" : "newobj",
									"numinlets" : 1,
									"numoutlets" : 2,
									"outlettype" : [ "float", "bang" ],
									"patching_rect" : [ 11.0, 2368.0, 158.0, 22.0 ],
									"style" : "",
									"text" : "buffer~ R-265 L0e265a.wav"
								}

							}
, 							{
								"box" : 								{
									"id" : "obj-409",
									"maxclass" : "newobj",
									"numinlets" : 1,
									"numoutlets" : 2,
									"outlettype" : [ "float", "bang" ],
									"patching_rect" : [ 11.0, 2390.0, 156.0, 22.0 ],
									"style" : "",
									"text" : "buffer~ L-270 L0e270a.wav"
								}

							}
, 							{
								"box" : 								{
									"id" : "obj-410",
									"maxclass" : "newobj",
									"numinlets" : 1,
									"numoutlets" : 2,
									"outlettype" : [ "float", "bang" ],
									"patching_rect" : [ 11.0, 2412.0, 158.0, 22.0 ],
									"style" : "",
									"text" : "buffer~ R-270 L0e270a.wav"
								}

							}
, 							{
								"box" : 								{
									"id" : "obj-411",
									"maxclass" : "newobj",
									"numinlets" : 1,
									"numoutlets" : 2,
									"outlettype" : [ "float", "bang" ],
									"patching_rect" : [ 11.0, 2434.0, 156.0, 22.0 ],
									"style" : "",
									"text" : "buffer~ L-275 L0e275a.wav"
								}

							}
, 							{
								"box" : 								{
									"id" : "obj-412",
									"maxclass" : "newobj",
									"numinlets" : 1,
									"numoutlets" : 2,
									"outlettype" : [ "float", "bang" ],
									"patching_rect" : [ 11.0, 2456.0, 158.0, 22.0 ],
									"style" : "",
									"text" : "buffer~ R-275 L0e275a.wav"
								}

							}
, 							{
								"box" : 								{
									"id" : "obj-413",
									"maxclass" : "newobj",
									"numinlets" : 1,
									"numoutlets" : 2,
									"outlettype" : [ "float", "bang" ],
									"patching_rect" : [ 11.0, 2478.0, 156.0, 22.0 ],
									"style" : "",
									"text" : "buffer~ L-280 L0e280a.wav"
								}

							}
, 							{
								"box" : 								{
									"id" : "obj-414",
									"maxclass" : "newobj",
									"numinlets" : 1,
									"numoutlets" : 2,
									"outlettype" : [ "float", "bang" ],
									"patching_rect" : [ 11.0, 2500.0, 158.0, 22.0 ],
									"style" : "",
									"text" : "buffer~ R-280 L0e280a.wav"
								}

							}
, 							{
								"box" : 								{
									"id" : "obj-415",
									"maxclass" : "newobj",
									"numinlets" : 1,
									"numoutlets" : 2,
									"outlettype" : [ "float", "bang" ],
									"patching_rect" : [ 11.0, 2522.0, 156.0, 22.0 ],
									"style" : "",
									"text" : "buffer~ L-285 L0e285a.wav"
								}

							}
, 							{
								"box" : 								{
									"id" : "obj-416",
									"maxclass" : "newobj",
									"numinlets" : 1,
									"numoutlets" : 2,
									"outlettype" : [ "float", "bang" ],
									"patching_rect" : [ 11.0, 2544.0, 158.0, 22.0 ],
									"style" : "",
									"text" : "buffer~ R-285 L0e285a.wav"
								}

							}
, 							{
								"box" : 								{
									"id" : "obj-417",
									"maxclass" : "newobj",
									"numinlets" : 1,
									"numoutlets" : 2,
									"outlettype" : [ "float", "bang" ],
									"patching_rect" : [ 11.0, 2566.0, 156.0, 22.0 ],
									"style" : "",
									"text" : "buffer~ L-290 L0e290a.wav"
								}

							}
, 							{
								"box" : 								{
									"id" : "obj-418",
									"maxclass" : "newobj",
									"numinlets" : 1,
									"numoutlets" : 2,
									"outlettype" : [ "float", "bang" ],
									"patching_rect" : [ 11.0, 2588.0, 158.0, 22.0 ],
									"style" : "",
									"text" : "buffer~ R-290 L0e290a.wav"
								}

							}
, 							{
								"box" : 								{
									"id" : "obj-419",
									"maxclass" : "newobj",
									"numinlets" : 1,
									"numoutlets" : 2,
									"outlettype" : [ "float", "bang" ],
									"patching_rect" : [ 11.0, 2610.0, 156.0, 22.0 ],
									"style" : "",
									"text" : "buffer~ L-295 L0e295a.wav"
								}

							}
, 							{
								"box" : 								{
									"id" : "obj-420",
									"maxclass" : "newobj",
									"numinlets" : 1,
									"numoutlets" : 2,
									"outlettype" : [ "float", "bang" ],
									"patching_rect" : [ 11.0, 2632.0, 158.0, 22.0 ],
									"style" : "",
									"text" : "buffer~ R-295 L0e295a.wav"
								}

							}
, 							{
								"box" : 								{
									"id" : "obj-421",
									"maxclass" : "newobj",
									"numinlets" : 1,
									"numoutlets" : 2,
									"outlettype" : [ "float", "bang" ],
									"patching_rect" : [ 11.0, 2654.0, 156.0, 22.0 ],
									"style" : "",
									"text" : "buffer~ L-300 L0e300a.wav"
								}

							}
, 							{
								"box" : 								{
									"id" : "obj-422",
									"maxclass" : "newobj",
									"numinlets" : 1,
									"numoutlets" : 2,
									"outlettype" : [ "float", "bang" ],
									"patching_rect" : [ 11.0, 2676.0, 158.0, 22.0 ],
									"style" : "",
									"text" : "buffer~ R-300 L0e300a.wav"
								}

							}
, 							{
								"box" : 								{
									"id" : "obj-423",
									"maxclass" : "newobj",
									"numinlets" : 1,
									"numoutlets" : 2,
									"outlettype" : [ "float", "bang" ],
									"patching_rect" : [ 11.0, 2698.0, 156.0, 22.0 ],
									"style" : "",
									"text" : "buffer~ L-305 L0e305a.wav"
								}

							}
, 							{
								"box" : 								{
									"id" : "obj-424",
									"maxclass" : "newobj",
									"numinlets" : 1,
									"numoutlets" : 2,
									"outlettype" : [ "float", "bang" ],
									"patching_rect" : [ 11.0, 2720.0, 158.0, 22.0 ],
									"style" : "",
									"text" : "buffer~ R-305 L0e305a.wav"
								}

							}
, 							{
								"box" : 								{
									"id" : "obj-425",
									"maxclass" : "newobj",
									"numinlets" : 1,
									"numoutlets" : 2,
									"outlettype" : [ "float", "bang" ],
									"patching_rect" : [ 11.0, 2742.0, 156.0, 22.0 ],
									"style" : "",
									"text" : "buffer~ L-310 L0e310a.wav"
								}

							}
, 							{
								"box" : 								{
									"id" : "obj-426",
									"maxclass" : "newobj",
									"numinlets" : 1,
									"numoutlets" : 2,
									"outlettype" : [ "float", "bang" ],
									"patching_rect" : [ 11.0, 2764.0, 158.0, 22.0 ],
									"style" : "",
									"text" : "buffer~ R-310 L0e310a.wav"
								}

							}
, 							{
								"box" : 								{
									"id" : "obj-427",
									"maxclass" : "newobj",
									"numinlets" : 1,
									"numoutlets" : 2,
									"outlettype" : [ "float", "bang" ],
									"patching_rect" : [ 11.0, 2786.0, 156.0, 22.0 ],
									"style" : "",
									"text" : "buffer~ L-315 L0e315a.wav"
								}

							}
, 							{
								"box" : 								{
									"id" : "obj-428",
									"maxclass" : "newobj",
									"numinlets" : 1,
									"numoutlets" : 2,
									"outlettype" : [ "float", "bang" ],
									"patching_rect" : [ 11.0, 2808.0, 158.0, 22.0 ],
									"style" : "",
									"text" : "buffer~ R-315 L0e315a.wav"
								}

							}
, 							{
								"box" : 								{
									"id" : "obj-429",
									"maxclass" : "newobj",
									"numinlets" : 1,
									"numoutlets" : 2,
									"outlettype" : [ "float", "bang" ],
									"patching_rect" : [ 11.0, 2830.0, 156.0, 22.0 ],
									"style" : "",
									"text" : "buffer~ L-320 L0e320a.wav"
								}

							}
, 							{
								"box" : 								{
									"id" : "obj-430",
									"maxclass" : "newobj",
									"numinlets" : 1,
									"numoutlets" : 2,
									"outlettype" : [ "float", "bang" ],
									"patching_rect" : [ 11.0, 2852.0, 158.0, 22.0 ],
									"style" : "",
									"text" : "buffer~ R-320 L0e320a.wav"
								}

							}
, 							{
								"box" : 								{
									"id" : "obj-431",
									"maxclass" : "newobj",
									"numinlets" : 1,
									"numoutlets" : 2,
									"outlettype" : [ "float", "bang" ],
									"patching_rect" : [ 11.0, 2874.0, 156.0, 22.0 ],
									"style" : "",
									"text" : "buffer~ L-325 L0e325a.wav"
								}

							}
, 							{
								"box" : 								{
									"id" : "obj-432",
									"maxclass" : "newobj",
									"numinlets" : 1,
									"numoutlets" : 2,
									"outlettype" : [ "float", "bang" ],
									"patching_rect" : [ 11.0, 2896.0, 158.0, 22.0 ],
									"style" : "",
									"text" : "buffer~ R-325 L0e325a.wav"
								}

							}
, 							{
								"box" : 								{
									"id" : "obj-433",
									"maxclass" : "newobj",
									"numinlets" : 1,
									"numoutlets" : 2,
									"outlettype" : [ "float", "bang" ],
									"patching_rect" : [ 11.0, 2918.0, 156.0, 22.0 ],
									"style" : "",
									"text" : "buffer~ L-330 L0e330a.wav"
								}

							}
, 							{
								"box" : 								{
									"id" : "obj-434",
									"maxclass" : "newobj",
									"numinlets" : 1,
									"numoutlets" : 2,
									"outlettype" : [ "float", "bang" ],
									"patching_rect" : [ 11.0, 2940.0, 158.0, 22.0 ],
									"style" : "",
									"text" : "buffer~ R-330 L0e330a.wav"
								}

							}
, 							{
								"box" : 								{
									"id" : "obj-435",
									"maxclass" : "newobj",
									"numinlets" : 1,
									"numoutlets" : 2,
									"outlettype" : [ "float", "bang" ],
									"patching_rect" : [ 11.0, 2962.0, 156.0, 22.0 ],
									"style" : "",
									"text" : "buffer~ L-335 L0e335a.wav"
								}

							}
, 							{
								"box" : 								{
									"id" : "obj-436",
									"maxclass" : "newobj",
									"numinlets" : 1,
									"numoutlets" : 2,
									"outlettype" : [ "float", "bang" ],
									"patching_rect" : [ 11.0, 2984.0, 158.0, 22.0 ],
									"style" : "",
									"text" : "buffer~ R-335 L0e335a.wav"
								}

							}
, 							{
								"box" : 								{
									"id" : "obj-437",
									"maxclass" : "newobj",
									"numinlets" : 1,
									"numoutlets" : 2,
									"outlettype" : [ "float", "bang" ],
									"patching_rect" : [ 11.0, 3006.0, 156.0, 22.0 ],
									"style" : "",
									"text" : "buffer~ L-340 L0e340a.wav"
								}

							}
, 							{
								"box" : 								{
									"id" : "obj-438",
									"maxclass" : "newobj",
									"numinlets" : 1,
									"numoutlets" : 2,
									"outlettype" : [ "float", "bang" ],
									"patching_rect" : [ 11.0, 3028.0, 158.0, 22.0 ],
									"style" : "",
									"text" : "buffer~ R-340 L0e340a.wav"
								}

							}
, 							{
								"box" : 								{
									"id" : "obj-439",
									"maxclass" : "newobj",
									"numinlets" : 1,
									"numoutlets" : 2,
									"outlettype" : [ "float", "bang" ],
									"patching_rect" : [ 11.0, 3050.0, 156.0, 22.0 ],
									"style" : "",
									"text" : "buffer~ L-345 L0e345a.wav"
								}

							}
, 							{
								"box" : 								{
									"id" : "obj-440",
									"maxclass" : "newobj",
									"numinlets" : 1,
									"numoutlets" : 2,
									"outlettype" : [ "float", "bang" ],
									"patching_rect" : [ 11.0, 3072.0, 158.0, 22.0 ],
									"style" : "",
									"text" : "buffer~ R-345 L0e345a.wav"
								}

							}
, 							{
								"box" : 								{
									"id" : "obj-441",
									"maxclass" : "newobj",
									"numinlets" : 1,
									"numoutlets" : 2,
									"outlettype" : [ "float", "bang" ],
									"patching_rect" : [ 11.0, 3094.0, 156.0, 22.0 ],
									"style" : "",
									"text" : "buffer~ L-350 L0e350a.wav"
								}

							}
, 							{
								"box" : 								{
									"id" : "obj-442",
									"maxclass" : "newobj",
									"numinlets" : 1,
									"numoutlets" : 2,
									"outlettype" : [ "float", "bang" ],
									"patching_rect" : [ 11.0, 3116.0, 158.0, 22.0 ],
									"style" : "",
									"text" : "buffer~ R-350 L0e350a.wav"
								}

							}
, 							{
								"box" : 								{
									"id" : "obj-443",
									"maxclass" : "newobj",
									"numinlets" : 1,
									"numoutlets" : 2,
									"outlettype" : [ "float", "bang" ],
									"patching_rect" : [ 11.0, 3138.0, 156.0, 22.0 ],
									"style" : "",
									"text" : "buffer~ L-355 L0e355a.wav"
								}

							}
, 							{
								"box" : 								{
									"id" : "obj-444",
									"maxclass" : "newobj",
									"numinlets" : 1,
									"numoutlets" : 2,
									"outlettype" : [ "float", "bang" ],
									"patching_rect" : [ 11.0, 3160.0, 158.0, 22.0 ],
									"style" : "",
									"text" : "buffer~ R-355 L0e355a.wav"
								}

							}
 ],
						"lines" : [ 							{
								"patchline" : 								{
									"destination" : [ "obj-12", 0 ],
									"disabled" : 0,
									"hidden" : 0,
									"source" : [ "obj-10", 0 ]
								}

							}
, 							{
								"patchline" : 								{
									"destination" : [ "obj-1", 0 ],
									"disabled" : 0,
									"hidden" : 0,
									"source" : [ "obj-12", 1 ]
								}

							}
, 							{
								"patchline" : 								{
									"destination" : [ "obj-1", 0 ],
									"disabled" : 0,
									"hidden" : 0,
									"source" : [ "obj-12", 0 ]
								}

							}
, 							{
								"patchline" : 								{
									"destination" : [ "obj-8", 0 ],
									"disabled" : 0,
									"hidden" : 0,
									"source" : [ "obj-7", 0 ]
								}

							}
, 							{
								"patchline" : 								{
									"destination" : [ "obj-10", 0 ],
									"disabled" : 0,
									"hidden" : 0,
									"source" : [ "obj-8", 0 ]
								}

							}
 ]
					}
,
					"patching_rect" : [ 31.0, 20.0, 57.0, 22.0 ],
					"saved_object_attributes" : 					{
						"description" : "",
						"digest" : "",
						"globalpatchername" : "",
						"style" : "",
						"tags" : ""
					}
,
					"style" : "",
					"text" : "p buffers"
				}

			}
 ],
		"lines" : [ 			{
				"patchline" : 				{
					"destination" : [ "obj-4", 0 ],
					"disabled" : 0,
					"hidden" : 0,
					"source" : [ "obj-2", 0 ]
				}

			}
, 			{
				"patchline" : 				{
					"destination" : [ "obj-43", 0 ],
					"disabled" : 0,
					"hidden" : 0,
					"source" : [ "obj-4", 0 ]
				}

			}
, 			{
				"patchline" : 				{
					"destination" : [ "obj-7", 0 ],
					"disabled" : 0,
					"hidden" : 0,
					"source" : [ "obj-42", 0 ]
				}

			}
, 			{
				"patchline" : 				{
					"destination" : [ "obj-6", 0 ],
					"disabled" : 0,
					"hidden" : 0,
					"source" : [ "obj-43", 0 ]
				}

			}
, 			{
				"patchline" : 				{
					"destination" : [ "obj-42", 0 ],
					"disabled" : 0,
					"hidden" : 0,
					"source" : [ "obj-6", 0 ]
				}

			}
 ],
		"dependency_cache" : [ 			{
				"name" : "createBuffer.js",
				"bootpath" : "~/Documents/code/trajectories/max/elev0",
				"type" : "TEXT",
				"implicit" : 1
			}
, 			{
				"name" : "o.expr.codebox.mxo",
				"type" : "iLaX"
			}
, 			{
				"name" : "o.listenumerate.mxo",
				"type" : "iLaX"
			}
, 			{
				"name" : "o.route.mxo",
				"type" : "iLaX"
			}
, 			{
				"name" : "multiconvolve~.mxo",
				"type" : "iLaX"
			}
 ],
		"autosave" : 0
	}

}
