{
	"patcher" : 	{
		"fileversion" : 1,
		"appversion" : 		{
			"major" : 7,
			"minor" : 3,
			"revision" : 1,
			"architecture" : "x86",
			"modernui" : 1
		}
,
		"rect" : [ 136.0, 119.0, 1034.0, 677.0 ],
		"bglocked" : 0,
		"openinpresentation" : 0,
		"default_fontsize" : 12.0,
		"default_fontface" : 0,
		"default_fontname" : "Arial",
		"gridonopen" : 1,
		"gridsize" : [ 15.0, 15.0 ],
		"gridsnaponopen" : 1,
		"objectsnaponopen" : 1,
		"statusbarvisible" : 2,
		"toolbarvisible" : 1,
		"lefttoolbarpinned" : 0,
		"toptoolbarpinned" : 0,
		"righttoolbarpinned" : 0,
		"bottomtoolbarpinned" : 0,
		"toolbars_unpinned_last_save" : 0,
		"tallnewobj" : 0,
		"boxanimatetime" : 200,
		"enablehscroll" : 1,
		"enablevscroll" : 1,
		"devicewidth" : 0.0,
		"description" : "",
		"digest" : "",
		"tags" : "",
		"style" : "",
		"subpatcher_template" : "",
		"boxes" : [ 			{
				"box" : 				{
					"id" : "obj-85",
					"maxclass" : "newobj",
					"numinlets" : 3,
					"numoutlets" : 2,
					"outlettype" : [ "signal", "signal" ],
					"patching_rect" : [ 455.25, 394.0, 48.0, 22.0 ],
					"style" : "",
					"text" : "panner"
				}

			}
, 			{
				"box" : 				{
					"id" : "obj-76",
					"maxclass" : "scope~",
					"numinlets" : 2,
					"numoutlets" : 0,
					"patching_rect" : [ 43.0, 82.0, 130.0, 130.0 ],
					"style" : ""
				}

			}
, 			{
				"box" : 				{
					"id" : "obj-72",
					"maxclass" : "newobj",
					"numinlets" : 1,
					"numoutlets" : 0,
					"patching_rect" : [ 33.0, 352.0, 34.0, 22.0 ],
					"style" : "",
					"text" : "print"
				}

			}
, 			{
				"box" : 				{
					"id" : "obj-46",
					"maxclass" : "newobj",
					"numinlets" : 2,
					"numoutlets" : 1,
					"outlettype" : [ "signal" ],
					"patching_rect" : [ 275.200012, 189.0, 38.0, 22.0 ],
					"style" : "",
					"text" : "+~ 1."
				}

			}
, 			{
				"box" : 				{
					"id" : "obj-30",
					"maxclass" : "newobj",
					"numinlets" : 2,
					"numoutlets" : 1,
					"outlettype" : [ "signal" ],
					"patching_rect" : [ 400.700012, 260.0, 29.5, 22.0 ],
					"style" : "",
					"text" : "*~"
				}

			}
, 			{
				"box" : 				{
					"id" : "obj-28",
					"maxclass" : "message",
					"numinlets" : 2,
					"numoutlets" : 1,
					"outlettype" : [ "" ],
					"patching_rect" : [ 290.200012, 82.0, 29.5, 22.0 ],
					"style" : "",
					"text" : "0"
				}

			}
, 			{
				"box" : 				{
					"id" : "obj-13",
					"maxclass" : "message",
					"numinlets" : 2,
					"numoutlets" : 1,
					"outlettype" : [ "" ],
					"patching_rect" : [ 621.219971, 22.0, 50.0, 22.0 ],
					"style" : "",
					"text" : "replace"
				}

			}
, 			{
				"box" : 				{
					"id" : "obj-11",
					"maxclass" : "newobj",
					"numinlets" : 1,
					"numoutlets" : 2,
					"outlettype" : [ "float", "bang" ],
					"patching_rect" : [ 621.219971, 50.0, 117.0, 22.0 ],
					"style" : "",
					"text" : "buffer~ control_data"
				}

			}
, 			{
				"box" : 				{
					"id" : "obj-9",
					"maxclass" : "newobj",
					"numinlets" : 3,
					"numoutlets" : 4,
					"outlettype" : [ "signal", "signal", "signal", "signal" ],
					"patching_rect" : [ 275.200012, 158.0, 134.0, 22.0 ],
					"saved_object_attributes" : 					{
						"basictuning" : 440,
						"followglobaltempo" : 0,
						"formantcorrection" : 0,
						"loopend" : [ 0.0, "ms" ],
						"loopstart" : [ 0.0, "ms" ],
						"mode" : "basic",
						"originallength" : [ 0.0, "ticks" ],
						"originaltempo" : 120.000008,
						"phase" : [ 0.0, "ticks" ],
						"pitchcorrection" : 0,
						"quality" : "basic",
						"timestretch" : [ 0 ]
					}
,
					"style" : "",
					"text" : "groove~ control_data 3"
				}

			}
, 			{
				"box" : 				{
					"id" : "obj-17",
					"maxclass" : "toggle",
					"numinlets" : 1,
					"numoutlets" : 1,
					"outlettype" : [ "int" ],
					"parameter_enable" : 0,
					"patching_rect" : [ 274.200012, 22.0, 24.0, 24.0 ],
					"style" : ""
				}

			}
, 			{
				"box" : 				{
					"id" : "obj-15",
					"maxclass" : "newobj",
					"numinlets" : 1,
					"numoutlets" : 1,
					"outlettype" : [ "signal" ],
					"patching_rect" : [ 274.200012, 50.0, 33.0, 22.0 ],
					"style" : "",
					"text" : "sig~"
				}

			}
, 			{
				"box" : 				{
					"buffername" : "static_ring",
					"chanoffset" : 0,
					"id" : "obj-6",
					"maxclass" : "waveform~",
					"numinlets" : 5,
					"numoutlets" : 6,
					"outlettype" : [ "float", "float", "float", "float", "list", "" ],
					"patching_rect" : [ 336.220001, 82.0, 395.633331, 57.0 ],
					"setmode" : 1,
					"style" : ""
				}

			}
, 			{
				"box" : 				{
					"id" : "obj-4",
					"maxclass" : "newobj",
					"numinlets" : 1,
					"numoutlets" : 2,
					"outlettype" : [ "float", "bang" ],
					"patching_rect" : [ 511.220001, 50.0, 106.0, 22.0 ],
					"style" : "",
					"text" : "buffer~ static_ring"
				}

			}
, 			{
				"box" : 				{
					"id" : "obj-2",
					"maxclass" : "message",
					"numinlets" : 2,
					"numoutlets" : 1,
					"outlettype" : [ "" ],
					"patching_rect" : [ 411.200012, 158.0, 65.0, 22.0 ],
					"style" : "",
					"text" : "static_ring"
				}

			}
, 			{
				"box" : 				{
					"id" : "obj-68",
					"maxclass" : "newobj",
					"numinlets" : 3,
					"numoutlets" : 2,
					"outlettype" : [ "signal", "signal" ],
					"patching_rect" : [ 411.200012, 230.0, 170.0, 22.0 ],
					"saved_object_attributes" : 					{
						"basictuning" : 440,
						"followglobaltempo" : 0,
						"formantcorrection" : 0,
						"loopend" : [ 10978.15625, "ms" ],
						"loopstart" : [ 894.885437, "ms" ],
						"mode" : "basic",
						"originallength" : [ 0.0, "ticks" ],
						"originaltempo" : 119.999992,
						"phase" : [ 0.0, "ticks" ],
						"pitchcorrection" : 0,
						"quality" : "basic",
						"timestretch" : [ 0 ]
					}
,
					"style" : "",
					"text" : "groove~ static_ring 1 @loop 1"
				}

			}
, 			{
				"box" : 				{
					"id" : "obj-69",
					"maxclass" : "message",
					"numinlets" : 2,
					"numoutlets" : 1,
					"outlettype" : [ "" ],
					"patching_rect" : [ 411.200012, 189.0, 50.0, 22.0 ],
					"style" : "",
					"text" : "set $1"
				}

			}
, 			{
				"box" : 				{
					"id" : "obj-70",
					"maxclass" : "message",
					"numinlets" : 2,
					"numoutlets" : 1,
					"outlettype" : [ "" ],
					"patching_rect" : [ 511.220001, 22.0, 50.0, 22.0 ],
					"style" : "",
					"text" : "replace"
				}

			}
, 			{
				"box" : 				{
					"attr" : "buffername",
					"id" : "obj-7",
					"maxclass" : "attrui",
					"numinlets" : 1,
					"numoutlets" : 1,
					"outlettype" : [ "" ],
					"patching_rect" : [ 356.220001, 50.0, 153.0, 22.0 ],
					"style" : "",
					"text_width" : 82.0
				}

			}
, 			{
				"box" : 				{
					"attr" : "setmode",
					"id" : "obj-71",
					"maxclass" : "attrui",
					"numinlets" : 1,
					"numoutlets" : 1,
					"outlettype" : [ "" ],
					"patching_rect" : [ 336.220001, 22.0, 173.0, 22.0 ],
					"style" : "",
					"text_width" : 101.779999
				}

			}
, 			{
				"box" : 				{
					"id" : "obj-65",
					"maxclass" : "button",
					"numinlets" : 1,
					"numoutlets" : 1,
					"outlettype" : [ "bang" ],
					"patching_rect" : [ 33.0, 267.0, 24.0, 24.0 ],
					"style" : ""
				}

			}
, 			{
				"box" : 				{
					"id" : "obj-63",
					"maxclass" : "newobj",
					"numinlets" : 1,
					"numoutlets" : 2,
					"outlettype" : [ "", "" ],
					"patcher" : 					{
						"fileversion" : 1,
						"appversion" : 						{
							"major" : 7,
							"minor" : 3,
							"revision" : 1,
							"architecture" : "x86",
							"modernui" : 1
						}
,
						"rect" : [ 84.0, 104.0, 640.0, 480.0 ],
						"bglocked" : 0,
						"openinpresentation" : 0,
						"default_fontsize" : 12.0,
						"default_fontface" : 0,
						"default_fontname" : "Arial",
						"gridonopen" : 1,
						"gridsize" : [ 15.0, 15.0 ],
						"gridsnaponopen" : 1,
						"objectsnaponopen" : 1,
						"statusbarvisible" : 2,
						"toolbarvisible" : 1,
						"lefttoolbarpinned" : 0,
						"toptoolbarpinned" : 0,
						"righttoolbarpinned" : 0,
						"bottomtoolbarpinned" : 0,
						"toolbars_unpinned_last_save" : 0,
						"tallnewobj" : 0,
						"boxanimatetime" : 200,
						"enablehscroll" : 1,
						"enablevscroll" : 1,
						"devicewidth" : 0.0,
						"description" : "",
						"digest" : "",
						"tags" : "",
						"style" : "",
						"subpatcher_template" : "",
						"boxes" : [ 							{
								"box" : 								{
									"comment" : "",
									"id" : "obj-1",
									"maxclass" : "inlet",
									"numinlets" : 0,
									"numoutlets" : 1,
									"outlettype" : [ "bang" ],
									"patching_rect" : [ 50.0, 49.0, 30.0, 30.0 ],
									"style" : ""
								}

							}
, 							{
								"box" : 								{
									"id" : "obj-50",
									"maxclass" : "newobj",
									"numinlets" : 1,
									"numoutlets" : 3,
									"outlettype" : [ "", "", "FullPacket" ],
									"patching_rect" : [ 468.0, 257.0, 174.0, 22.0 ],
									"style" : "",
									"text" : "o.route /messageR /messageL"
								}

							}
, 							{
								"box" : 								{
									"id" : "obj-49",
									"maxclass" : "newobj",
									"numinlets" : 1,
									"numoutlets" : 2,
									"outlettype" : [ "", "" ],
									"patching_rect" : [ 468.0, 158.0, 135.0, 22.0 ],
									"style" : "",
									"text" : "o.listenumerate /angles"
								}

							}
, 							{
								"box" : 								{
									"fontface" : 0,
									"fontsize" : 12.0,
									"id" : "obj-48",
									"linecount" : 4,
									"maxclass" : "o.expr.codebox",
									"numinlets" : 1,
									"numoutlets" : 2,
									"outlettype" : [ "FullPacket", "FullPacket" ],
									"patching_rect" : [ 468.0, 182.0, 416.0, 73.0 ],
									"text" : "/angle = /value,\n/buf = [\"L-\" + /angle, \"R-\" + /angle],\n/messageL = [\"set\", /index + 1, 1, /buf[[0]], 1],\n/messageR = [\"set\", /index + 1, 2, /buf[[1]], 1]",
									"textcolor" : [ 0.0, 0.0, 0.0, 1.0 ]
								}

							}
, 							{
								"box" : 								{
									"fontface" : 0,
									"fontsize" : 12.0,
									"id" : "obj-47",
									"maxclass" : "o.expr.codebox",
									"numinlets" : 1,
									"numoutlets" : 2,
									"outlettype" : [ "FullPacket", "FullPacket" ],
									"patching_rect" : [ 468.0, 124.0, 207.0, 32.0 ],
									"text" : "/angles = aseq(180, 355, 5)",
									"textcolor" : [ 0.0, 0.0, 0.0, 1.0 ]
								}

							}
, 							{
								"box" : 								{
									"id" : "obj-2",
									"maxclass" : "newobj",
									"numinlets" : 1,
									"numoutlets" : 1,
									"outlettype" : [ "bang" ],
									"patching_rect" : [ 50.0, 100.0, 60.0, 22.0 ],
									"style" : "",
									"text" : "loadbang"
								}

							}
, 							{
								"box" : 								{
									"id" : "obj-42",
									"maxclass" : "newobj",
									"numinlets" : 1,
									"numoutlets" : 3,
									"outlettype" : [ "", "", "FullPacket" ],
									"patching_rect" : [ 50.0, 257.0, 174.0, 22.0 ],
									"style" : "",
									"text" : "o.route /messageR /messageL"
								}

							}
, 							{
								"box" : 								{
									"id" : "obj-43",
									"maxclass" : "newobj",
									"numinlets" : 1,
									"numoutlets" : 2,
									"outlettype" : [ "", "" ],
									"patching_rect" : [ 50.0, 158.0, 135.0, 22.0 ],
									"style" : "",
									"text" : "o.listenumerate /angles"
								}

							}
, 							{
								"box" : 								{
									"fontface" : 0,
									"fontsize" : 12.0,
									"id" : "obj-6",
									"linecount" : 4,
									"maxclass" : "o.expr.codebox",
									"numinlets" : 1,
									"numoutlets" : 2,
									"outlettype" : [ "FullPacket", "FullPacket" ],
									"patching_rect" : [ 50.0, 182.0, 416.0, 73.0 ],
									"text" : "/angle = /value,\n/buf = [\"L-\" + /angle, \"R-\" + /angle],\n/messageL = [\"set\", /index + 1, 1, /buf[[0]], 1],\n/messageR = [\"set\", /index + 1, 2, /buf[[1]], 1]",
									"textcolor" : [ 0.0, 0.0, 0.0, 1.0 ]
								}

							}
, 							{
								"box" : 								{
									"fontface" : 0,
									"fontsize" : 12.0,
									"id" : "obj-4",
									"maxclass" : "o.expr.codebox",
									"numinlets" : 1,
									"numoutlets" : 2,
									"outlettype" : [ "FullPacket", "FullPacket" ],
									"patching_rect" : [ 50.0, 124.0, 344.0, 32.0 ],
									"text" : "/angles = aseq(0,355 / 2,5)",
									"textcolor" : [ 0.0, 0.0, 0.0, 1.0 ]
								}

							}
, 							{
								"box" : 								{
									"comment" : "",
									"id" : "obj-61",
									"maxclass" : "outlet",
									"numinlets" : 1,
									"numoutlets" : 0,
									"patching_rect" : [ 44.0, 339.0, 30.0, 30.0 ],
									"style" : ""
								}

							}
, 							{
								"box" : 								{
									"comment" : "",
									"id" : "obj-62",
									"maxclass" : "outlet",
									"numinlets" : 1,
									"numoutlets" : 0,
									"patching_rect" : [ 462.0, 339.0, 30.0, 30.0 ],
									"style" : ""
								}

							}
 ],
						"lines" : [ 							{
								"patchline" : 								{
									"destination" : [ "obj-4", 0 ],
									"disabled" : 0,
									"hidden" : 0,
									"source" : [ "obj-1", 0 ]
								}

							}
, 							{
								"patchline" : 								{
									"destination" : [ "obj-47", 0 ],
									"disabled" : 0,
									"hidden" : 0,
									"source" : [ "obj-1", 0 ]
								}

							}
, 							{
								"patchline" : 								{
									"destination" : [ "obj-4", 0 ],
									"disabled" : 0,
									"hidden" : 0,
									"source" : [ "obj-2", 0 ]
								}

							}
, 							{
								"patchline" : 								{
									"destination" : [ "obj-47", 0 ],
									"disabled" : 0,
									"hidden" : 0,
									"midpoints" : [ 59.5, 122.5, 477.5, 122.5 ],
									"source" : [ "obj-2", 0 ]
								}

							}
, 							{
								"patchline" : 								{
									"destination" : [ "obj-43", 0 ],
									"disabled" : 0,
									"hidden" : 0,
									"source" : [ "obj-4", 0 ]
								}

							}
, 							{
								"patchline" : 								{
									"destination" : [ "obj-61", 0 ],
									"disabled" : 0,
									"hidden" : 0,
									"source" : [ "obj-42", 1 ]
								}

							}
, 							{
								"patchline" : 								{
									"destination" : [ "obj-61", 0 ],
									"disabled" : 0,
									"hidden" : 0,
									"source" : [ "obj-42", 0 ]
								}

							}
, 							{
								"patchline" : 								{
									"destination" : [ "obj-6", 0 ],
									"disabled" : 0,
									"hidden" : 0,
									"source" : [ "obj-43", 0 ]
								}

							}
, 							{
								"patchline" : 								{
									"destination" : [ "obj-49", 0 ],
									"disabled" : 0,
									"hidden" : 0,
									"source" : [ "obj-47", 0 ]
								}

							}
, 							{
								"patchline" : 								{
									"destination" : [ "obj-50", 0 ],
									"disabled" : 0,
									"hidden" : 0,
									"source" : [ "obj-48", 0 ]
								}

							}
, 							{
								"patchline" : 								{
									"destination" : [ "obj-48", 0 ],
									"disabled" : 0,
									"hidden" : 0,
									"source" : [ "obj-49", 0 ]
								}

							}
, 							{
								"patchline" : 								{
									"destination" : [ "obj-62", 0 ],
									"disabled" : 0,
									"hidden" : 0,
									"source" : [ "obj-50", 1 ]
								}

							}
, 							{
								"patchline" : 								{
									"destination" : [ "obj-62", 0 ],
									"disabled" : 0,
									"hidden" : 0,
									"source" : [ "obj-50", 0 ]
								}

							}
, 							{
								"patchline" : 								{
									"destination" : [ "obj-42", 0 ],
									"disabled" : 0,
									"hidden" : 0,
									"source" : [ "obj-6", 0 ]
								}

							}
 ]
					}
,
					"patching_rect" : [ 33.0, 298.0, 50.0, 22.0 ],
					"saved_object_attributes" : 					{
						"description" : "",
						"digest" : "",
						"globalpatchername" : "",
						"style" : "",
						"tags" : ""
					}
,
					"style" : "",
					"text" : "p setup"
				}

			}
, 			{
				"box" : 				{
					"id" : "obj-60",
					"maxclass" : "live.gain~",
					"numinlets" : 2,
					"numoutlets" : 5,
					"outlettype" : [ "signal", "signal", "", "float", "list" ],
					"parameter_enable" : 1,
					"patching_rect" : [ 89.0, 466.0, 48.0, 136.0 ],
					"saved_attribute_attributes" : 					{
						"valueof" : 						{
							"parameter_longname" : "live.gain~",
							"parameter_shortname" : "live.gain~",
							"parameter_type" : 0,
							"parameter_mmin" : -70.0,
							"parameter_mmax" : 6.0,
							"parameter_initial" : [ 0.0 ],
							"parameter_unitstyle" : 4
						}

					}
,
					"varname" : "live.gain~"
				}

			}
, 			{
				"box" : 				{
					"id" : "obj-58",
					"maxclass" : "ezdac~",
					"numinlets" : 2,
					"numoutlets" : 0,
					"patching_rect" : [ 89.0, 612.0, 45.0, 45.0 ],
					"style" : ""
				}

			}
, 			{
				"box" : 				{
					"id" : "obj-8",
					"maxclass" : "newobj",
					"numinlets" : 2,
					"numoutlets" : 72,
					"outlettype" : [ "signal", "signal", "signal", "signal", "signal", "signal", "signal", "signal", "signal", "signal", "signal", "signal", "signal", "signal", "signal", "signal", "signal", "signal", "signal", "signal", "signal", "signal", "signal", "signal", "signal", "signal", "signal", "signal", "signal", "signal", "signal", "signal", "signal", "signal", "signal", "signal", "signal", "signal", "signal", "signal", "signal", "signal", "signal", "signal", "signal", "signal", "signal", "signal", "signal", "signal", "signal", "signal", "signal", "signal", "signal", "signal", "signal", "signal", "signal", "signal", "signal", "signal", "signal", "signal", "signal", "signal", "signal", "signal", "signal", "signal", "signal", "signal" ],
					"patching_rect" : [ 89.0, 298.0, 764.5, 22.0 ],
					"style" : "",
					"text" : "azi2speakers"
				}

			}
, 			{
				"box" : 				{
					"id" : "obj-5",
					"maxclass" : "newobj",
					"numinlets" : 36,
					"numoutlets" : 2,
					"outlettype" : [ "signal", "signal" ],
					"patching_rect" : [ 467.0, 331.0, 386.5, 22.0 ],
					"presentation_rect" : [ 142.0, 394.0, 0.0, 0.0 ],
					"style" : "",
					"text" : "multiconvolve~ 36 2 zero"
				}

			}
, 			{
				"box" : 				{
					"id" : "obj-3",
					"maxclass" : "newobj",
					"numinlets" : 36,
					"numoutlets" : 2,
					"outlettype" : [ "signal", "signal" ],
					"patching_rect" : [ 89.0, 331.0, 386.5, 22.0 ],
					"style" : "",
					"text" : "multiconvolve~ 36 2 zero"
				}

			}
, 			{
				"box" : 				{
					"id" : "obj-1",
					"maxclass" : "newobj",
					"numinlets" : 0,
					"numoutlets" : 0,
					"patching_rect" : [ 834.5, 234.0, 47.0, 22.0 ],
					"style" : "",
					"text" : "buffers"
				}

			}
 ],
		"lines" : [ 			{
				"patchline" : 				{
					"destination" : [ "obj-11", 0 ],
					"disabled" : 0,
					"hidden" : 0,
					"source" : [ "obj-13", 0 ]
				}

			}
, 			{
				"patchline" : 				{
					"destination" : [ "obj-9", 0 ],
					"disabled" : 0,
					"hidden" : 0,
					"source" : [ "obj-15", 0 ]
				}

			}
, 			{
				"patchline" : 				{
					"destination" : [ "obj-15", 0 ],
					"disabled" : 0,
					"hidden" : 0,
					"source" : [ "obj-17", 0 ]
				}

			}
, 			{
				"patchline" : 				{
					"destination" : [ "obj-69", 0 ],
					"disabled" : 0,
					"hidden" : 0,
					"source" : [ "obj-2", 0 ]
				}

			}
, 			{
				"patchline" : 				{
					"destination" : [ "obj-68", 0 ],
					"disabled" : 0,
					"hidden" : 0,
					"midpoints" : [ 299.700012, 217.5, 420.700012, 217.5 ],
					"source" : [ "obj-28", 0 ]
				}

			}
, 			{
				"patchline" : 				{
					"destination" : [ "obj-9", 0 ],
					"disabled" : 0,
					"hidden" : 0,
					"source" : [ "obj-28", 0 ]
				}

			}
, 			{
				"patchline" : 				{
					"destination" : [ "obj-85", 1 ],
					"disabled" : 0,
					"hidden" : 0,
					"source" : [ "obj-3", 1 ]
				}

			}
, 			{
				"patchline" : 				{
					"destination" : [ "obj-85", 0 ],
					"disabled" : 0,
					"hidden" : 0,
					"source" : [ "obj-3", 0 ]
				}

			}
, 			{
				"patchline" : 				{
					"destination" : [ "obj-8", 1 ],
					"disabled" : 0,
					"hidden" : 0,
					"midpoints" : [ 410.200012, 289.5, 844.0, 289.5 ],
					"source" : [ "obj-30", 0 ]
				}

			}
, 			{
				"patchline" : 				{
					"destination" : [ "obj-68", 0 ],
					"disabled" : 0,
					"hidden" : 0,
					"midpoints" : [ 284.700012, 224.0, 420.700012, 224.0 ],
					"source" : [ "obj-46", 0 ]
				}

			}
, 			{
				"patchline" : 				{
					"destination" : [ "obj-85", 1 ],
					"disabled" : 0,
					"hidden" : 0,
					"source" : [ "obj-5", 1 ]
				}

			}
, 			{
				"patchline" : 				{
					"destination" : [ "obj-85", 0 ],
					"disabled" : 0,
					"hidden" : 0,
					"source" : [ "obj-5", 0 ]
				}

			}
, 			{
				"patchline" : 				{
					"destination" : [ "obj-68", 2 ],
					"disabled" : 0,
					"hidden" : 0,
					"source" : [ "obj-6", 3 ]
				}

			}
, 			{
				"patchline" : 				{
					"destination" : [ "obj-68", 1 ],
					"disabled" : 0,
					"hidden" : 0,
					"source" : [ "obj-6", 2 ]
				}

			}
, 			{
				"patchline" : 				{
					"destination" : [ "obj-58", 1 ],
					"disabled" : 0,
					"hidden" : 0,
					"source" : [ "obj-60", 1 ]
				}

			}
, 			{
				"patchline" : 				{
					"destination" : [ "obj-58", 0 ],
					"disabled" : 0,
					"hidden" : 0,
					"source" : [ "obj-60", 0 ]
				}

			}
, 			{
				"patchline" : 				{
					"destination" : [ "obj-3", 0 ],
					"disabled" : 0,
					"hidden" : 0,
					"midpoints" : [ 42.5, 325.0, 98.5, 325.0 ],
					"source" : [ "obj-63", 0 ]
				}

			}
, 			{
				"patchline" : 				{
					"destination" : [ "obj-5", 0 ],
					"disabled" : 0,
					"hidden" : 0,
					"midpoints" : [ 73.5, 325.0, 476.5, 325.0 ],
					"source" : [ "obj-63", 1 ]
				}

			}
, 			{
				"patchline" : 				{
					"destination" : [ "obj-72", 0 ],
					"disabled" : 0,
					"hidden" : 0,
					"source" : [ "obj-63", 1 ]
				}

			}
, 			{
				"patchline" : 				{
					"destination" : [ "obj-72", 0 ],
					"disabled" : 0,
					"hidden" : 0,
					"source" : [ "obj-63", 0 ]
				}

			}
, 			{
				"patchline" : 				{
					"destination" : [ "obj-63", 0 ],
					"disabled" : 0,
					"hidden" : 0,
					"source" : [ "obj-65", 0 ]
				}

			}
, 			{
				"patchline" : 				{
					"destination" : [ "obj-30", 1 ],
					"disabled" : 0,
					"hidden" : 0,
					"source" : [ "obj-68", 0 ]
				}

			}
, 			{
				"patchline" : 				{
					"destination" : [ "obj-68", 0 ],
					"disabled" : 0,
					"hidden" : 0,
					"source" : [ "obj-69", 0 ]
				}

			}
, 			{
				"patchline" : 				{
					"destination" : [ "obj-6", 0 ],
					"disabled" : 0,
					"hidden" : 0,
					"source" : [ "obj-7", 0 ]
				}

			}
, 			{
				"patchline" : 				{
					"destination" : [ "obj-4", 0 ],
					"disabled" : 0,
					"hidden" : 0,
					"source" : [ "obj-70", 0 ]
				}

			}
, 			{
				"patchline" : 				{
					"destination" : [ "obj-6", 0 ],
					"disabled" : 0,
					"hidden" : 0,
					"source" : [ "obj-71", 0 ]
				}

			}
, 			{
				"patchline" : 				{
					"destination" : [ "obj-3", 35 ],
					"disabled" : 0,
					"hidden" : 0,
					"source" : [ "obj-8", 35 ]
				}

			}
, 			{
				"patchline" : 				{
					"destination" : [ "obj-3", 34 ],
					"disabled" : 0,
					"hidden" : 0,
					"source" : [ "obj-8", 34 ]
				}

			}
, 			{
				"patchline" : 				{
					"destination" : [ "obj-3", 33 ],
					"disabled" : 0,
					"hidden" : 0,
					"source" : [ "obj-8", 33 ]
				}

			}
, 			{
				"patchline" : 				{
					"destination" : [ "obj-3", 32 ],
					"disabled" : 0,
					"hidden" : 0,
					"source" : [ "obj-8", 32 ]
				}

			}
, 			{
				"patchline" : 				{
					"destination" : [ "obj-3", 31 ],
					"disabled" : 0,
					"hidden" : 0,
					"source" : [ "obj-8", 31 ]
				}

			}
, 			{
				"patchline" : 				{
					"destination" : [ "obj-3", 30 ],
					"disabled" : 0,
					"hidden" : 0,
					"source" : [ "obj-8", 30 ]
				}

			}
, 			{
				"patchline" : 				{
					"destination" : [ "obj-3", 29 ],
					"disabled" : 0,
					"hidden" : 0,
					"source" : [ "obj-8", 29 ]
				}

			}
, 			{
				"patchline" : 				{
					"destination" : [ "obj-3", 28 ],
					"disabled" : 0,
					"hidden" : 0,
					"source" : [ "obj-8", 28 ]
				}

			}
, 			{
				"patchline" : 				{
					"destination" : [ "obj-3", 27 ],
					"disabled" : 0,
					"hidden" : 0,
					"source" : [ "obj-8", 27 ]
				}

			}
, 			{
				"patchline" : 				{
					"destination" : [ "obj-3", 26 ],
					"disabled" : 0,
					"hidden" : 0,
					"source" : [ "obj-8", 26 ]
				}

			}
, 			{
				"patchline" : 				{
					"destination" : [ "obj-3", 25 ],
					"disabled" : 0,
					"hidden" : 0,
					"source" : [ "obj-8", 25 ]
				}

			}
, 			{
				"patchline" : 				{
					"destination" : [ "obj-3", 24 ],
					"disabled" : 0,
					"hidden" : 0,
					"source" : [ "obj-8", 24 ]
				}

			}
, 			{
				"patchline" : 				{
					"destination" : [ "obj-3", 23 ],
					"disabled" : 0,
					"hidden" : 0,
					"source" : [ "obj-8", 23 ]
				}

			}
, 			{
				"patchline" : 				{
					"destination" : [ "obj-3", 22 ],
					"disabled" : 0,
					"hidden" : 0,
					"source" : [ "obj-8", 22 ]
				}

			}
, 			{
				"patchline" : 				{
					"destination" : [ "obj-3", 21 ],
					"disabled" : 0,
					"hidden" : 0,
					"source" : [ "obj-8", 21 ]
				}

			}
, 			{
				"patchline" : 				{
					"destination" : [ "obj-3", 20 ],
					"disabled" : 0,
					"hidden" : 0,
					"source" : [ "obj-8", 20 ]
				}

			}
, 			{
				"patchline" : 				{
					"destination" : [ "obj-3", 19 ],
					"disabled" : 0,
					"hidden" : 0,
					"source" : [ "obj-8", 19 ]
				}

			}
, 			{
				"patchline" : 				{
					"destination" : [ "obj-3", 18 ],
					"disabled" : 0,
					"hidden" : 0,
					"source" : [ "obj-8", 18 ]
				}

			}
, 			{
				"patchline" : 				{
					"destination" : [ "obj-3", 17 ],
					"disabled" : 0,
					"hidden" : 0,
					"source" : [ "obj-8", 17 ]
				}

			}
, 			{
				"patchline" : 				{
					"destination" : [ "obj-3", 16 ],
					"disabled" : 0,
					"hidden" : 0,
					"source" : [ "obj-8", 16 ]
				}

			}
, 			{
				"patchline" : 				{
					"destination" : [ "obj-3", 15 ],
					"disabled" : 0,
					"hidden" : 0,
					"source" : [ "obj-8", 15 ]
				}

			}
, 			{
				"patchline" : 				{
					"destination" : [ "obj-3", 14 ],
					"disabled" : 0,
					"hidden" : 0,
					"source" : [ "obj-8", 14 ]
				}

			}
, 			{
				"patchline" : 				{
					"destination" : [ "obj-3", 13 ],
					"disabled" : 0,
					"hidden" : 0,
					"source" : [ "obj-8", 13 ]
				}

			}
, 			{
				"patchline" : 				{
					"destination" : [ "obj-3", 12 ],
					"disabled" : 0,
					"hidden" : 0,
					"source" : [ "obj-8", 12 ]
				}

			}
, 			{
				"patchline" : 				{
					"destination" : [ "obj-3", 11 ],
					"disabled" : 0,
					"hidden" : 0,
					"source" : [ "obj-8", 11 ]
				}

			}
, 			{
				"patchline" : 				{
					"destination" : [ "obj-3", 10 ],
					"disabled" : 0,
					"hidden" : 0,
					"source" : [ "obj-8", 10 ]
				}

			}
, 			{
				"patchline" : 				{
					"destination" : [ "obj-3", 9 ],
					"disabled" : 0,
					"hidden" : 0,
					"source" : [ "obj-8", 9 ]
				}

			}
, 			{
				"patchline" : 				{
					"destination" : [ "obj-3", 8 ],
					"disabled" : 0,
					"hidden" : 0,
					"source" : [ "obj-8", 8 ]
				}

			}
, 			{
				"patchline" : 				{
					"destination" : [ "obj-3", 7 ],
					"disabled" : 0,
					"hidden" : 0,
					"source" : [ "obj-8", 7 ]
				}

			}
, 			{
				"patchline" : 				{
					"destination" : [ "obj-3", 6 ],
					"disabled" : 0,
					"hidden" : 0,
					"source" : [ "obj-8", 6 ]
				}

			}
, 			{
				"patchline" : 				{
					"destination" : [ "obj-3", 5 ],
					"disabled" : 0,
					"hidden" : 0,
					"source" : [ "obj-8", 5 ]
				}

			}
, 			{
				"patchline" : 				{
					"destination" : [ "obj-3", 4 ],
					"disabled" : 0,
					"hidden" : 0,
					"source" : [ "obj-8", 4 ]
				}

			}
, 			{
				"patchline" : 				{
					"destination" : [ "obj-3", 3 ],
					"disabled" : 0,
					"hidden" : 0,
					"source" : [ "obj-8", 3 ]
				}

			}
, 			{
				"patchline" : 				{
					"destination" : [ "obj-3", 2 ],
					"disabled" : 0,
					"hidden" : 0,
					"source" : [ "obj-8", 2 ]
				}

			}
, 			{
				"patchline" : 				{
					"destination" : [ "obj-3", 1 ],
					"disabled" : 0,
					"hidden" : 0,
					"source" : [ "obj-8", 1 ]
				}

			}
, 			{
				"patchline" : 				{
					"destination" : [ "obj-3", 0 ],
					"disabled" : 0,
					"hidden" : 0,
					"source" : [ "obj-8", 0 ]
				}

			}
, 			{
				"patchline" : 				{
					"destination" : [ "obj-5", 35 ],
					"disabled" : 0,
					"hidden" : 0,
					"source" : [ "obj-8", 71 ]
				}

			}
, 			{
				"patchline" : 				{
					"destination" : [ "obj-5", 34 ],
					"disabled" : 0,
					"hidden" : 0,
					"source" : [ "obj-8", 70 ]
				}

			}
, 			{
				"patchline" : 				{
					"destination" : [ "obj-5", 33 ],
					"disabled" : 0,
					"hidden" : 0,
					"source" : [ "obj-8", 69 ]
				}

			}
, 			{
				"patchline" : 				{
					"destination" : [ "obj-5", 32 ],
					"disabled" : 0,
					"hidden" : 0,
					"source" : [ "obj-8", 68 ]
				}

			}
, 			{
				"patchline" : 				{
					"destination" : [ "obj-5", 31 ],
					"disabled" : 0,
					"hidden" : 0,
					"source" : [ "obj-8", 67 ]
				}

			}
, 			{
				"patchline" : 				{
					"destination" : [ "obj-5", 30 ],
					"disabled" : 0,
					"hidden" : 0,
					"source" : [ "obj-8", 66 ]
				}

			}
, 			{
				"patchline" : 				{
					"destination" : [ "obj-5", 29 ],
					"disabled" : 0,
					"hidden" : 0,
					"source" : [ "obj-8", 65 ]
				}

			}
, 			{
				"patchline" : 				{
					"destination" : [ "obj-5", 28 ],
					"disabled" : 0,
					"hidden" : 0,
					"source" : [ "obj-8", 64 ]
				}

			}
, 			{
				"patchline" : 				{
					"destination" : [ "obj-5", 27 ],
					"disabled" : 0,
					"hidden" : 0,
					"source" : [ "obj-8", 63 ]
				}

			}
, 			{
				"patchline" : 				{
					"destination" : [ "obj-5", 26 ],
					"disabled" : 0,
					"hidden" : 0,
					"source" : [ "obj-8", 62 ]
				}

			}
, 			{
				"patchline" : 				{
					"destination" : [ "obj-5", 25 ],
					"disabled" : 0,
					"hidden" : 0,
					"source" : [ "obj-8", 61 ]
				}

			}
, 			{
				"patchline" : 				{
					"destination" : [ "obj-5", 24 ],
					"disabled" : 0,
					"hidden" : 0,
					"source" : [ "obj-8", 60 ]
				}

			}
, 			{
				"patchline" : 				{
					"destination" : [ "obj-5", 23 ],
					"disabled" : 0,
					"hidden" : 0,
					"source" : [ "obj-8", 59 ]
				}

			}
, 			{
				"patchline" : 				{
					"destination" : [ "obj-5", 22 ],
					"disabled" : 0,
					"hidden" : 0,
					"source" : [ "obj-8", 58 ]
				}

			}
, 			{
				"patchline" : 				{
					"destination" : [ "obj-5", 21 ],
					"disabled" : 0,
					"hidden" : 0,
					"source" : [ "obj-8", 57 ]
				}

			}
, 			{
				"patchline" : 				{
					"destination" : [ "obj-5", 20 ],
					"disabled" : 0,
					"hidden" : 0,
					"source" : [ "obj-8", 56 ]
				}

			}
, 			{
				"patchline" : 				{
					"destination" : [ "obj-5", 19 ],
					"disabled" : 0,
					"hidden" : 0,
					"source" : [ "obj-8", 55 ]
				}

			}
, 			{
				"patchline" : 				{
					"destination" : [ "obj-5", 18 ],
					"disabled" : 0,
					"hidden" : 0,
					"source" : [ "obj-8", 54 ]
				}

			}
, 			{
				"patchline" : 				{
					"destination" : [ "obj-5", 17 ],
					"disabled" : 0,
					"hidden" : 0,
					"source" : [ "obj-8", 53 ]
				}

			}
, 			{
				"patchline" : 				{
					"destination" : [ "obj-5", 16 ],
					"disabled" : 0,
					"hidden" : 0,
					"source" : [ "obj-8", 52 ]
				}

			}
, 			{
				"patchline" : 				{
					"destination" : [ "obj-5", 15 ],
					"disabled" : 0,
					"hidden" : 0,
					"source" : [ "obj-8", 51 ]
				}

			}
, 			{
				"patchline" : 				{
					"destination" : [ "obj-5", 14 ],
					"disabled" : 0,
					"hidden" : 0,
					"source" : [ "obj-8", 50 ]
				}

			}
, 			{
				"patchline" : 				{
					"destination" : [ "obj-5", 13 ],
					"disabled" : 0,
					"hidden" : 0,
					"source" : [ "obj-8", 49 ]
				}

			}
, 			{
				"patchline" : 				{
					"destination" : [ "obj-5", 12 ],
					"disabled" : 0,
					"hidden" : 0,
					"source" : [ "obj-8", 48 ]
				}

			}
, 			{
				"patchline" : 				{
					"destination" : [ "obj-5", 11 ],
					"disabled" : 0,
					"hidden" : 0,
					"source" : [ "obj-8", 47 ]
				}

			}
, 			{
				"patchline" : 				{
					"destination" : [ "obj-5", 10 ],
					"disabled" : 0,
					"hidden" : 0,
					"source" : [ "obj-8", 46 ]
				}

			}
, 			{
				"patchline" : 				{
					"destination" : [ "obj-5", 9 ],
					"disabled" : 0,
					"hidden" : 0,
					"source" : [ "obj-8", 45 ]
				}

			}
, 			{
				"patchline" : 				{
					"destination" : [ "obj-5", 8 ],
					"disabled" : 0,
					"hidden" : 0,
					"source" : [ "obj-8", 44 ]
				}

			}
, 			{
				"patchline" : 				{
					"destination" : [ "obj-5", 7 ],
					"disabled" : 0,
					"hidden" : 0,
					"source" : [ "obj-8", 43 ]
				}

			}
, 			{
				"patchline" : 				{
					"destination" : [ "obj-5", 6 ],
					"disabled" : 0,
					"hidden" : 0,
					"source" : [ "obj-8", 42 ]
				}

			}
, 			{
				"patchline" : 				{
					"destination" : [ "obj-5", 5 ],
					"disabled" : 0,
					"hidden" : 0,
					"source" : [ "obj-8", 41 ]
				}

			}
, 			{
				"patchline" : 				{
					"destination" : [ "obj-5", 4 ],
					"disabled" : 0,
					"hidden" : 0,
					"source" : [ "obj-8", 40 ]
				}

			}
, 			{
				"patchline" : 				{
					"destination" : [ "obj-5", 3 ],
					"disabled" : 0,
					"hidden" : 0,
					"source" : [ "obj-8", 39 ]
				}

			}
, 			{
				"patchline" : 				{
					"destination" : [ "obj-5", 2 ],
					"disabled" : 0,
					"hidden" : 0,
					"source" : [ "obj-8", 38 ]
				}

			}
, 			{
				"patchline" : 				{
					"destination" : [ "obj-5", 1 ],
					"disabled" : 0,
					"hidden" : 0,
					"source" : [ "obj-8", 37 ]
				}

			}
, 			{
				"patchline" : 				{
					"destination" : [ "obj-5", 0 ],
					"disabled" : 0,
					"hidden" : 0,
					"source" : [ "obj-8", 36 ]
				}

			}
, 			{
				"patchline" : 				{
					"destination" : [ "obj-60", 1 ],
					"disabled" : 0,
					"hidden" : 0,
					"source" : [ "obj-85", 1 ]
				}

			}
, 			{
				"patchline" : 				{
					"destination" : [ "obj-60", 0 ],
					"disabled" : 0,
					"hidden" : 0,
					"source" : [ "obj-85", 0 ]
				}

			}
, 			{
				"patchline" : 				{
					"destination" : [ "obj-30", 0 ],
					"disabled" : 0,
					"hidden" : 0,
					"midpoints" : [ 323.033356, 251.5, 410.200012, 251.5 ],
					"source" : [ "obj-9", 1 ]
				}

			}
, 			{
				"patchline" : 				{
					"destination" : [ "obj-46", 0 ],
					"disabled" : 0,
					"hidden" : 0,
					"source" : [ "obj-9", 0 ]
				}

			}
, 			{
				"patchline" : 				{
					"destination" : [ "obj-76", 0 ],
					"disabled" : 0,
					"hidden" : 0,
					"source" : [ "obj-9", 2 ]
				}

			}
, 			{
				"patchline" : 				{
					"destination" : [ "obj-8", 0 ],
					"disabled" : 0,
					"hidden" : 0,
					"midpoints" : [ 361.366669, 238.5, 98.5, 238.5 ],
					"source" : [ "obj-9", 2 ]
				}

			}
, 			{
				"patchline" : 				{
					"destination" : [ "obj-85", 2 ],
					"disabled" : 0,
					"hidden" : 0,
					"source" : [ "obj-9", 2 ]
				}

			}
 ],
		"parameters" : 		{
			"obj-60" : [ "live.gain~", "live.gain~", 0 ]
		}
,
		"dependency_cache" : [ 			{
				"name" : "buffers.maxpat",
				"bootpath" : "~/Documents/code/trajectories/max/elev0",
				"type" : "JSON",
				"implicit" : 1
			}
, 			{
				"name" : "createBuffer.js",
				"bootpath" : "~/Documents/code/trajectories/max/elev0",
				"type" : "TEXT",
				"implicit" : 1
			}
, 			{
				"name" : "azi2speakers.maxpat",
				"bootpath" : "~/Documents/code/trajectories/max/elev0",
				"type" : "JSON",
				"implicit" : 1
			}
, 			{
				"name" : "azi.gendsp",
				"bootpath" : "~/Documents/code/trajectories/max/elev0",
				"type" : "gDSP",
				"implicit" : 1
			}
, 			{
				"name" : "pnr.maxpat",
				"bootpath" : "~/Documents/code/trajectories/max/elev0",
				"type" : "JSON",
				"implicit" : 1
			}
, 			{
				"name" : "panner.maxpat",
				"bootpath" : "~/Documents/code/trajectories/max/elev0",
				"type" : "JSON",
				"implicit" : 1
			}
, 			{
				"name" : "o.expr.codebox.mxo",
				"type" : "iLaX"
			}
, 			{
				"name" : "o.listenumerate.mxo",
				"type" : "iLaX"
			}
, 			{
				"name" : "o.route.mxo",
				"type" : "iLaX"
			}
, 			{
				"name" : "multiconvolve~.mxo",
				"type" : "iLaX"
			}
 ],
		"autosave" : 0
	}

}
